<?xml version="1.0" encoding="UTF-8" standalone="no"?>
<svg
   xmlns:dc="http://purl.org/dc/elements/1.1/"
   xmlns:cc="http://creativecommons.org/ns#"
   xmlns:rdf="http://www.w3.org/1999/02/22-rdf-syntax-ns#"
   xmlns:svg="http://www.w3.org/2000/svg"
   xmlns="http://www.w3.org/2000/svg"
   xmlns:sodipodi="http://sodipodi.sourceforge.net/DTD/sodipodi-0.dtd"
   xmlns:inkscape="http://www.inkscape.org/namespaces/inkscape"
   version="1.1"
   id="Ebene_1"
   x="0px"
   y="0px"
   width="168px"
   height="81px"
   viewBox="0 0 168 81"
   enable-background="new 0 0 168 81"
   xml:space="preserve"
   sodipodi:docname="logo-weiss.svg"
   inkscape:version="1.0.1 (3bc2e813f5, 2020-09-07)"><metadata
   id="metadata19"><rdf:RDF><cc:Work
       rdf:about=""><dc:format>image/svg+xml</dc:format><dc:type
         rdf:resource="http://purl.org/dc/dcmitype/StillImage" /><dc:title>BSI_Logo_2017</dc:title></cc:Work></rdf:RDF></metadata><defs
   id="defs17" /><sodipodi:namedview
   pagecolor="#ffffff"
   bordercolor="#666666"
   borderopacity="1"
   objecttolerance="10"
   gridtolerance="10"
   guidetolerance="10"
   inkscape:pageopacity="0"
   inkscape:pageshadow="2"
   inkscape:window-width="1695"
   inkscape:window-height="1077"
   id="namedview15"
   showgrid="false"
   inkscape:zoom="6.0297619"
   inkscape:cx="84"
   inkscape:cy="40.5"
   inkscape:window-x="1107"
   inkscape:window-y="118"
   inkscape:window-maximized="0"
   inkscape:current-layer="Ebene_1" />
<rect
   fill="#FFFFFF"
   width="168"
   height="81"
   id="rect2" />
<title
   id="title4">BSI_Logo_2017</title>
<g
   id="Symbols">
	<g
   id="Header_x2F_BSI-Top"
   transform="translate(-117.000000, -54.000000)">
		<g
   id="BSI_2017_DTP_CMYK_de"
   transform="translate(117.000000, 54.000000)">
			<path
   id="Fill-2"
   fill="#1A1919"
   d="M59.538,3.237c0,0.385-0.048,0.722-0.142,1.01c-0.095,0.288-0.224,0.537-0.387,0.745     c-0.163,0.209-0.352,0.377-0.568,0.505s-0.439,0.225-0.671,0.288v0.032c0.284,0.054,0.55,0.155,0.797,0.305     c0.247,0.149,0.463,0.337,0.647,0.562c0.185,0.225,0.332,0.489,0.442,0.793c0.111,0.305,0.166,0.639,0.166,1.002     c0,0.438-0.073,0.838-0.22,1.202c-0.149,0.364-0.377,0.679-0.688,0.945c-0.311,0.269-0.703,0.476-1.177,0.625     c-0.474,0.151-1.036,0.225-1.689,0.225h-2.227V0.416h2.101c0.642,0,1.191,0.067,1.649,0.201C58.03,0.75,58.406,0.94,58.7,1.186     c0.295,0.247,0.508,0.543,0.64,0.89C59.471,2.423,59.538,2.81,59.538,3.237z M58.148,3.286c0-0.513-0.179-0.935-0.538-1.266     c-0.358-0.332-0.921-0.497-1.689-0.497h-0.727v3.814h0.711c0.737,0,1.295-0.182,1.673-0.544     C57.958,4.429,58.148,3.927,58.148,3.286z M58.353,8.383c0-0.598-0.191-1.071-0.576-1.418c-0.383-0.348-0.934-0.521-1.651-0.521     h-0.931v3.879h0.853c0.811,0,1.397-0.163,1.761-0.489C58.172,9.508,58.353,9.024,58.353,8.383z M66.817,11.477h-1.169v-0.866     h-0.032c-0.031,0.065-0.1,0.158-0.205,0.282c-0.106,0.123-0.24,0.24-0.403,0.352c-0.163,0.113-0.359,0.211-0.592,0.298     c-0.23,0.085-0.489,0.128-0.773,0.128c-0.337,0-0.64-0.051-0.908-0.152c-0.269-0.103-0.498-0.265-0.687-0.489     c-0.19-0.225-0.334-0.516-0.434-0.875c-0.101-0.357-0.15-0.799-0.15-1.323V3.783h1.279v4.953c0,0.641,0.102,1.098,0.308,1.372     c0.205,0.272,0.523,0.408,0.956,0.408c0.367,0,0.678-0.093,0.931-0.28c0.252-0.188,0.453-0.372,0.6-0.554V3.783h1.279V11.477z      M72.912,11.477V6.524c0-0.652-0.107-1.12-0.324-1.402c-0.215-0.284-0.544-0.426-0.986-0.426c-0.38,0-0.695,0.097-0.948,0.289     c-0.253,0.192-0.454,0.38-0.601,0.562v5.931h-1.279V3.783h1.169v0.866h0.032c0.032-0.065,0.1-0.158,0.206-0.282     c0.105-0.123,0.242-0.24,0.41-0.352c0.168-0.113,0.369-0.211,0.6-0.298c0.232-0.084,0.495-0.128,0.79-0.128     c0.337,0,0.642,0.051,0.916,0.152c0.275,0.103,0.506,0.266,0.695,0.489c0.19,0.225,0.337,0.516,0.442,0.874     s0.158,0.799,0.158,1.323v5.049H72.912z M75.754,7.742c0-0.78,0.101-1.432,0.3-1.956c0.2-0.522,0.458-0.946,0.773-1.266     c0.316-0.321,0.674-0.547,1.075-0.68c0.399-0.135,0.799-0.201,1.2-0.201c0.241,0,0.453,0.019,0.631,0.057     c0.179,0.036,0.327,0.082,0.442,0.136V0.144L81.454,0v11.477h-1.169V10.66h-0.031c-0.032,0.064-0.09,0.152-0.174,0.264     c-0.085,0.113-0.2,0.225-0.348,0.337c-0.147,0.113-0.332,0.209-0.553,0.29c-0.22,0.08-0.479,0.12-0.773,0.12     c-0.357,0-0.697-0.073-1.018-0.217c-0.321-0.145-0.603-0.375-0.845-0.69c-0.242-0.315-0.434-0.721-0.576-1.218     S75.754,8.448,75.754,7.742z M78.754,10.516c0.2,0,0.379-0.027,0.537-0.08c0.158-0.054,0.295-0.122,0.41-0.201     c0.117-0.081,0.214-0.163,0.292-0.25c0.08-0.084,0.141-0.16,0.182-0.224V5.017c-0.115-0.074-0.25-0.139-0.402-0.191     c-0.153-0.054-0.345-0.081-0.577-0.081c-0.294,0-0.571,0.051-0.828,0.152c-0.259,0.101-0.481,0.27-0.671,0.505     c-0.19,0.234-0.34,0.54-0.45,0.914c-0.111,0.374-0.166,0.833-0.166,1.379c0,0.534,0.045,0.979,0.134,1.338     s0.213,0.646,0.372,0.866c0.158,0.22,0.337,0.376,0.536,0.473C78.323,10.467,78.534,10.516,78.754,10.516z M88.275,6.38     c0,0.331-0.01,0.617-0.031,0.856c-0.021,0.241-0.043,0.453-0.063,0.635h-3.87c0.042,0.908,0.234,1.576,0.577,2.003     c0.342,0.427,0.834,0.642,1.477,0.642c0.221,0,0.42-0.027,0.6-0.08c0.18-0.054,0.334-0.119,0.466-0.193     c0.132-0.075,0.243-0.149,0.331-0.225c0.091-0.074,0.156-0.134,0.198-0.177l0.474,0.915c-0.053,0.053-0.131,0.131-0.237,0.232     c-0.104,0.101-0.247,0.203-0.427,0.304c-0.179,0.101-0.398,0.19-0.662,0.266c-0.264,0.074-0.574,0.112-0.932,0.112     c-0.475,0-0.902-0.081-1.287-0.241c-0.384-0.16-0.71-0.408-0.979-0.745c-0.27-0.336-0.476-0.764-0.624-1.282     c-0.148-0.519-0.222-1.141-0.222-1.867c0-0.684,0.076-1.274,0.228-1.771c0.154-0.497,0.361-0.906,0.624-1.227     c0.264-0.321,0.569-0.558,0.917-0.712c0.348-0.155,0.721-0.233,1.121-0.233c0.726,0,1.293,0.233,1.705,0.698     C88.07,4.752,88.275,5.45,88.275,6.38z M85.875,4.649c-0.452,0-0.816,0.191-1.089,0.577c-0.273,0.385-0.432,0.94-0.474,1.667     h2.764c0.01-0.054,0.018-0.132,0.022-0.233s0.009-0.211,0.009-0.329c0-0.535-0.105-0.948-0.316-1.242     C86.581,4.796,86.275,4.649,85.875,4.649z M93.249,5.337c-0.083-0.095-0.236-0.226-0.458-0.392     c-0.221-0.166-0.511-0.25-0.867-0.25c-0.338,0-0.595,0.081-0.773,0.241c-0.18,0.161-0.27,0.353-0.27,0.577     c0,0.288,0.082,0.527,0.245,0.714c0.163,0.188,0.413,0.387,0.749,0.601l0.475,0.289c0.516,0.31,0.92,0.644,1.215,1.002     c0.297,0.358,0.443,0.82,0.443,1.386c0,0.61-0.208,1.122-0.623,1.54c-0.417,0.416-1.014,0.625-1.793,0.625     c-0.305,0-0.573-0.032-0.806-0.097c-0.231-0.063-0.434-0.139-0.607-0.224c-0.174-0.086-0.319-0.179-0.435-0.28     c-0.116-0.102-0.211-0.195-0.285-0.281l0.616-1.025c0.063,0.063,0.141,0.139,0.229,0.224c0.09,0.086,0.197,0.168,0.324,0.25     c0.125,0.079,0.268,0.146,0.426,0.201c0.157,0.052,0.342,0.08,0.553,0.08c0.379,0,0.669-0.085,0.868-0.256     c0.2-0.171,0.3-0.38,0.3-0.625c0-0.182-0.023-0.339-0.07-0.474c-0.048-0.133-0.118-0.253-0.214-0.359     c-0.095-0.108-0.211-0.209-0.348-0.305c-0.137-0.097-0.294-0.204-0.474-0.321l-0.474-0.304c-0.474-0.311-0.844-0.636-1.112-0.978     c-0.27-0.342-0.403-0.78-0.403-1.315c0-0.288,0.056-0.554,0.166-0.793c0.11-0.241,0.266-0.448,0.466-0.625     c0.2-0.176,0.434-0.315,0.703-0.417c0.268-0.101,0.555-0.152,0.859-0.152c0.295,0,0.549,0.03,0.758,0.089     c0.211,0.058,0.393,0.134,0.546,0.224c0.152,0.092,0.278,0.182,0.378,0.272c0.102,0.091,0.182,0.168,0.246,0.233L93.249,5.337z      M95.065,9.521c0-0.449,0.083-0.823,0.252-1.123c0.169-0.299,0.396-0.542,0.68-0.729C96.281,7.483,96.615,7.35,97,7.269     c0.384-0.08,0.793-0.12,1.224-0.12h0.394V6.412c0-0.652-0.112-1.101-0.338-1.347c-0.227-0.245-0.545-0.369-0.955-0.369     c-0.38,0-0.695,0.083-0.947,0.25c-0.254,0.166-0.453,0.313-0.602,0.44L95.239,4.52c0.083-0.085,0.192-0.181,0.323-0.288     c0.132-0.106,0.293-0.209,0.482-0.305s0.404-0.176,0.647-0.24c0.241-0.065,0.515-0.097,0.819-0.097c0.779,0,1.37,0.22,1.77,0.658     c0.4,0.438,0.6,1.144,0.6,2.116v3.51c0,0.332,0.011,0.655,0.031,0.97c0.021,0.315,0.043,0.526,0.064,0.633h-1.216l-0.048-0.85     h-0.031c-0.043,0.097-0.105,0.207-0.189,0.329s-0.19,0.235-0.316,0.336s-0.279,0.19-0.458,0.266     c-0.179,0.074-0.389,0.112-0.632,0.112c-0.283,0-0.549-0.054-0.797-0.16c-0.247-0.106-0.463-0.257-0.648-0.449     c-0.184-0.193-0.326-0.42-0.426-0.682S95.065,9.831,95.065,9.521z M97.354,10.564c0.179,0,0.337-0.027,0.474-0.081     c0.139-0.052,0.256-0.117,0.355-0.192c0.102-0.074,0.185-0.158,0.254-0.248c0.067-0.09,0.129-0.168,0.18-0.233V8.111l-0.41,0.016     c-0.609,0.021-1.072,0.128-1.389,0.321c-0.316,0.192-0.474,0.502-0.474,0.929c0,0.396,0.089,0.692,0.269,0.891     C96.792,10.464,97.039,10.564,97.354,10.564z M105.787,11.477V6.524c0-0.63-0.09-1.084-0.268-1.363     c-0.18-0.277-0.469-0.416-0.869-0.416c-0.211,0-0.397,0.027-0.561,0.081c-0.163,0.053-0.309,0.12-0.436,0.199     c-0.126,0.081-0.236,0.168-0.33,0.266c-0.096,0.096-0.174,0.181-0.238,0.256v5.931h-1.278V3.783h1.169v0.866h0.031     c0.053-0.086,0.132-0.19,0.236-0.313c0.105-0.124,0.238-0.241,0.396-0.353c0.157-0.113,0.34-0.206,0.551-0.28     c0.211-0.075,0.447-0.113,0.712-0.113c0.862,0,1.473,0.342,1.831,1.026c0.072-0.107,0.174-0.222,0.3-0.345     s0.273-0.235,0.442-0.336c0.168-0.101,0.357-0.185,0.568-0.248c0.21-0.065,0.442-0.097,0.694-0.097     c1.538,0,2.306,0.909,2.306,2.726v5.162h-1.279V6.524c0-0.63-0.109-1.084-0.331-1.363c-0.222-0.277-0.548-0.416-0.979-0.416     c-0.357,0-0.655,0.087-0.892,0.264c-0.237,0.177-0.425,0.345-0.562,0.505c0.021,0.117,0.037,0.244,0.049,0.377     c0.01,0.134,0.016,0.275,0.016,0.425v5.162H105.787z M116.192,4.84h-1.657v4.265c0,0.544,0.068,0.916,0.204,1.114     c0.137,0.198,0.369,0.297,0.695,0.297c0.19,0,0.353-0.027,0.489-0.08c0.137-0.054,0.236-0.103,0.301-0.146l0.174,1.042     c-0.053,0.043-0.18,0.109-0.38,0.201c-0.2,0.09-0.468,0.136-0.806,0.136c-0.652,0-1.143-0.185-1.467-0.554     c-0.326-0.368-0.49-0.98-0.49-1.835V4.84h-0.917V3.975l0.917-0.192l0.143-2.149h1.137v2.149h1.814L116.192,4.84z M56.743,21.005     h-1.548v6.637h-1.278v-6.637H53V20.14l0.917-0.176v-1.539c0-0.417,0.057-0.776,0.172-1.075c0.117-0.299,0.27-0.544,0.458-0.737     c0.189-0.193,0.411-0.332,0.663-0.417c0.253-0.085,0.521-0.128,0.806-0.128c0.273,0,0.505,0.038,0.695,0.113     c0.189,0.074,0.316,0.133,0.378,0.175l-0.268,1.075c-0.062-0.043-0.152-0.089-0.268-0.137c-0.117-0.047-0.258-0.071-0.427-0.071     c-0.305,0-0.536,0.096-0.694,0.288c-0.158,0.193-0.237,0.546-0.237,1.059v1.378h1.706L56.743,21.005z M63.312,27.642h-1.169     v-0.866h-0.031c-0.032,0.064-0.101,0.157-0.206,0.281c-0.105,0.123-0.24,0.24-0.403,0.352c-0.164,0.113-0.36,0.211-0.592,0.298     c-0.231,0.085-0.49,0.128-0.774,0.128c-0.337,0-0.639-0.051-0.907-0.152c-0.268-0.103-0.498-0.265-0.688-0.489     c-0.19-0.225-0.334-0.516-0.434-0.875c-0.099-0.358-0.15-0.799-0.15-1.323v-5.049h1.279v4.953c0,0.641,0.102,1.098,0.308,1.372     c0.206,0.272,0.523,0.408,0.956,0.408c0.369,0,0.678-0.093,0.932-0.28c0.252-0.188,0.452-0.372,0.6-0.554v-5.899h1.279V27.642z      M60.169,17.736c0,0.245-0.075,0.443-0.222,0.593c-0.147,0.149-0.327,0.225-0.536,0.225c-0.211,0-0.39-0.076-0.538-0.225     c-0.147-0.15-0.221-0.348-0.221-0.593c0-0.247,0.074-0.443,0.221-0.594c0.147-0.149,0.327-0.224,0.538-0.224     c0.209,0,0.389,0.074,0.536,0.224C60.095,17.292,60.169,17.489,60.169,17.736z M62.602,17.736c0,0.245-0.074,0.443-0.222,0.593     c-0.147,0.149-0.327,0.225-0.538,0.225c-0.209,0-0.389-0.076-0.536-0.225c-0.147-0.15-0.222-0.348-0.222-0.593     c0-0.247,0.074-0.443,0.222-0.594c0.147-0.149,0.326-0.224,0.536-0.224c0.211,0,0.39,0.074,0.538,0.224     C62.527,17.292,62.602,17.489,62.602,17.736z M68.601,21.086c-0.031-0.021-0.1-0.048-0.205-0.081     c-0.106-0.031-0.248-0.047-0.426-0.047c-0.401,0-0.714,0.109-0.939,0.329c-0.227,0.218-0.388,0.457-0.482,0.713v5.643H65.27     v-7.694h1.167v1.042h0.032c0.053-0.151,0.121-0.298,0.206-0.442c0.083-0.144,0.189-0.272,0.315-0.384     c0.126-0.113,0.276-0.201,0.45-0.265c0.174-0.063,0.38-0.096,0.624-0.096c0.179,0,0.324,0.016,0.434,0.048     c0.112,0.031,0.198,0.058,0.262,0.08L68.601,21.086z M77.239,18.28c-0.042-0.042-0.113-0.104-0.214-0.185     c-0.1-0.08-0.226-0.156-0.378-0.232c-0.154-0.074-0.332-0.139-0.538-0.193c-0.206-0.052-0.434-0.079-0.688-0.079     c-0.474,0-0.831,0.128-1.073,0.384c-0.242,0.257-0.364,0.556-0.364,0.898c0,0.213,0.029,0.411,0.088,0.593     c0.057,0.182,0.147,0.361,0.268,0.538c0.121,0.176,0.271,0.352,0.45,0.528c0.179,0.177,0.396,0.367,0.647,0.57l0.885,0.737     c0.252,0.214,0.493,0.433,0.718,0.658c0.227,0.225,0.42,0.462,0.583,0.714c0.164,0.25,0.293,0.522,0.388,0.816     c0.094,0.295,0.142,0.624,0.142,0.986c0,0.845-0.258,1.526-0.774,2.045c-0.516,0.517-1.269,0.777-2.258,0.777     c-0.389,0-0.734-0.038-1.034-0.112c-0.3-0.076-0.561-0.166-0.781-0.273c-0.222-0.106-0.406-0.215-0.554-0.329     c-0.147-0.112-0.257-0.205-0.332-0.28l0.553-1.218c0.063,0.063,0.158,0.149,0.284,0.256s0.278,0.214,0.458,0.321     s0.382,0.198,0.608,0.272c0.227,0.075,0.481,0.113,0.766,0.113c0.537,0,0.95-0.138,1.241-0.41     c0.289-0.272,0.434-0.595,0.434-0.97c0-0.234-0.029-0.449-0.087-0.642c-0.057-0.192-0.142-0.375-0.252-0.552     c-0.11-0.176-0.251-0.35-0.418-0.521c-0.168-0.171-0.369-0.353-0.601-0.546l-0.884-0.753c-0.305-0.256-0.573-0.5-0.806-0.73     c-0.231-0.229-0.428-0.47-0.592-0.721c-0.163-0.25-0.287-0.524-0.372-0.818c-0.083-0.293-0.126-0.633-0.126-1.017     c0-0.353,0.066-0.684,0.198-0.994c0.131-0.31,0.318-0.578,0.56-0.801c0.243-0.225,0.535-0.401,0.877-0.529     c0.342-0.128,0.729-0.193,1.16-0.193c0.358,0,0.674,0.035,0.948,0.105c0.274,0.069,0.508,0.15,0.703,0.24     c0.195,0.09,0.35,0.185,0.466,0.28c0.115,0.097,0.206,0.166,0.268,0.209L77.239,18.28z M79.686,27.642h1.279v-7.694h-1.279     V27.642z M80.333,18.089c-0.263,0-0.474-0.086-0.632-0.257c-0.158-0.171-0.236-0.395-0.236-0.674     c0-0.267,0.079-0.486,0.236-0.657c0.158-0.17,0.369-0.256,0.632-0.256c0.253,0,0.458,0.086,0.616,0.256     c0.158,0.171,0.237,0.391,0.237,0.657c0,0.279-0.08,0.502-0.237,0.674C80.791,18.002,80.586,18.089,80.333,18.089z      M87.139,21.439c-0.031-0.032-0.081-0.081-0.15-0.144c-0.068-0.065-0.154-0.129-0.26-0.193c-0.105-0.064-0.232-0.121-0.379-0.168     c-0.148-0.048-0.316-0.073-0.506-0.073c-0.273,0-0.528,0.051-0.766,0.152c-0.236,0.103-0.441,0.266-0.616,0.489     c-0.174,0.225-0.311,0.516-0.41,0.874c-0.101,0.358-0.15,0.793-0.15,1.307c0,0.566,0.043,1.042,0.134,1.427     c0.089,0.384,0.212,0.691,0.37,0.921c0.158,0.23,0.351,0.396,0.578,0.497c0.225,0.101,0.476,0.152,0.749,0.152     c0.39,0,0.688-0.07,0.892-0.209c0.205-0.139,0.35-0.25,0.436-0.337l0.52,0.898c-0.051,0.063-0.129,0.142-0.229,0.232     c-0.1,0.091-0.229,0.179-0.387,0.265c-0.158,0.085-0.351,0.158-0.576,0.216c-0.227,0.059-0.486,0.089-0.781,0.089     c-0.422,0-0.816-0.07-1.185-0.209c-0.368-0.139-0.688-0.369-0.963-0.689c-0.273-0.321-0.488-0.737-0.647-1.25     c-0.157-0.514-0.236-1.149-0.236-1.908c0-0.737,0.094-1.362,0.284-1.875c0.189-0.513,0.437-0.927,0.742-1.244     c0.307-0.313,0.645-0.544,1.019-0.688c0.374-0.145,0.749-0.217,1.13-0.217c0.283,0,0.534,0.027,0.749,0.081     c0.216,0.053,0.401,0.12,0.554,0.199c0.152,0.081,0.278,0.166,0.378,0.257c0.101,0.09,0.182,0.168,0.245,0.232L87.139,21.439z      M93.154,27.642v-4.953c0-0.652-0.107-1.12-0.323-1.402c-0.216-0.284-0.546-0.426-0.987-0.426c-0.378,0-0.693,0.097-0.947,0.289     c-0.252,0.192-0.453,0.38-0.6,0.562v5.931h-1.279V16.309l1.279-0.144v4.568h0.031c0.043-0.063,0.107-0.149,0.198-0.256     c0.089-0.108,0.212-0.214,0.37-0.321c0.158-0.107,0.35-0.2,0.577-0.281c0.226-0.08,0.492-0.12,0.798-0.12     c0.662,0,1.188,0.22,1.578,0.658c0.389,0.438,0.584,1.165,0.584,2.181v5.049H93.154z M101.207,22.545     c0,0.332-0.01,0.617-0.031,0.857c-0.021,0.241-0.043,0.453-0.063,0.634h-3.869c0.043,0.908,0.234,1.576,0.577,2.003     c0.341,0.427,0.833,0.642,1.476,0.642c0.222,0,0.421-0.027,0.6-0.08c0.18-0.054,0.334-0.119,0.466-0.193     c0.133-0.075,0.243-0.149,0.332-0.225c0.09-0.074,0.155-0.134,0.198-0.177l0.473,0.915c-0.053,0.053-0.131,0.131-0.237,0.232     c-0.104,0.101-0.247,0.203-0.426,0.304s-0.399,0.19-0.663,0.266c-0.264,0.074-0.574,0.112-0.932,0.112     c-0.475,0-0.902-0.081-1.286-0.241c-0.385-0.16-0.711-0.408-0.979-0.745c-0.27-0.336-0.477-0.764-0.623-1.282     c-0.147-0.519-0.222-1.141-0.222-1.867c0-0.684,0.077-1.274,0.229-1.771s0.359-0.906,0.623-1.227s0.568-0.558,0.916-0.712     c0.348-0.155,0.721-0.233,1.121-0.233c0.727,0,1.295,0.233,1.705,0.698C101.002,20.917,101.207,21.615,101.207,22.545z      M98.807,20.814c-0.451,0-0.815,0.191-1.089,0.577c-0.272,0.385-0.431,0.94-0.474,1.667h2.764     c0.012-0.054,0.018-0.132,0.024-0.233c0.004-0.101,0.007-0.211,0.007-0.329c0-0.535-0.105-0.949-0.316-1.242     C99.514,20.961,99.208,20.814,98.807,20.814z M106.244,21.086c-0.031-0.021-0.1-0.048-0.205-0.081     c-0.105-0.031-0.247-0.047-0.426-0.047c-0.4,0-0.713,0.109-0.939,0.329c-0.227,0.218-0.387,0.457-0.482,0.713v5.643h-1.279     v-7.694h1.17v1.042h0.031c0.053-0.151,0.121-0.298,0.205-0.442s0.189-0.272,0.315-0.384c0.126-0.113,0.276-0.201,0.45-0.265     c0.174-0.063,0.382-0.096,0.625-0.096c0.178,0,0.322,0.016,0.434,0.048c0.109,0.031,0.197,0.058,0.26,0.08L106.244,21.086z      M111.645,27.642v-4.953c0-0.652-0.107-1.12-0.323-1.402c-0.216-0.284-0.546-0.426-0.987-0.426c-0.378,0-0.693,0.097-0.947,0.289     c-0.252,0.192-0.453,0.38-0.6,0.562v5.931h-1.279V16.309l1.279-0.144v4.568h0.031c0.043-0.063,0.107-0.149,0.198-0.256     c0.089-0.108,0.212-0.214,0.37-0.321c0.158-0.107,0.35-0.2,0.577-0.281c0.226-0.08,0.491-0.12,0.798-0.12     c0.662,0,1.188,0.22,1.577,0.658c0.39,0.438,0.585,1.165,0.585,2.181v5.049H111.645z M119.698,22.545     c0,0.332-0.011,0.617-0.032,0.857c-0.021,0.241-0.043,0.453-0.063,0.634h-3.869c0.043,0.908,0.234,1.576,0.576,2.003     c0.342,0.427,0.834,0.642,1.477,0.642c0.222,0,0.421-0.027,0.6-0.08c0.18-0.054,0.335-0.119,0.467-0.193     c0.131-0.075,0.242-0.149,0.331-0.225c0.091-0.074,0.155-0.134,0.198-0.177l0.473,0.915c-0.053,0.053-0.131,0.131-0.236,0.232     s-0.248,0.203-0.427,0.304s-0.399,0.19-0.663,0.266c-0.264,0.074-0.573,0.112-0.932,0.112c-0.474,0-0.902-0.081-1.287-0.241     c-0.383-0.16-0.71-0.408-0.979-0.745c-0.27-0.336-0.476-0.764-0.625-1.282c-0.146-0.519-0.22-1.141-0.22-1.867     c0-0.684,0.075-1.274,0.228-1.771c0.154-0.497,0.361-0.906,0.625-1.227s0.568-0.558,0.916-0.712     c0.348-0.155,0.721-0.233,1.121-0.233c0.727,0,1.294,0.233,1.705,0.698C119.492,20.917,119.698,21.615,119.698,22.545z      M117.298,20.814c-0.452,0-0.816,0.191-1.089,0.577c-0.273,0.385-0.432,0.94-0.475,1.667h2.763     c0.011-0.054,0.019-0.132,0.024-0.233c0.005-0.101,0.008-0.211,0.008-0.329c0-0.535-0.105-0.949-0.316-1.242     C118.004,20.961,117.698,20.814,117.298,20.814z M121.403,27.642h1.278v-7.694h-1.278V27.642z M122.051,18.089     c-0.263,0-0.474-0.086-0.632-0.257c-0.157-0.171-0.237-0.395-0.237-0.674c0-0.267,0.08-0.486,0.237-0.657     c0.158-0.17,0.369-0.256,0.632-0.256c0.252,0,0.457,0.086,0.615,0.256c0.158,0.171,0.238,0.391,0.238,0.657     c0,0.279-0.08,0.502-0.238,0.674C122.508,18.002,122.303,18.089,122.051,18.089z M127.877,21.005h-1.657v4.265     c0,0.544,0.067,0.916,0.204,1.114c0.137,0.198,0.369,0.296,0.695,0.296c0.189,0,0.354-0.027,0.49-0.08     c0.137-0.054,0.236-0.103,0.3-0.146l0.174,1.042c-0.054,0.043-0.179,0.109-0.38,0.201c-0.2,0.09-0.469,0.136-0.805,0.136     c-0.653,0-1.143-0.185-1.469-0.554c-0.326-0.368-0.488-0.98-0.488-1.835v-4.441h-0.916V20.14l0.916-0.192l0.141-2.149h1.138     v2.149h1.815L127.877,21.005z M132.678,27.642h1.279v-7.694h-1.279V27.642z M133.325,18.089c-0.264,0-0.474-0.086-0.632-0.257     c-0.158-0.171-0.237-0.395-0.237-0.674c0-0.267,0.079-0.486,0.237-0.657c0.158-0.17,0.368-0.256,0.632-0.256     c0.253,0,0.458,0.086,0.616,0.256c0.158,0.171,0.236,0.391,0.236,0.657c0,0.279-0.078,0.502-0.236,0.674     C133.783,18.002,133.578,18.089,133.325,18.089z M140.051,27.642v-4.953c0-0.652-0.107-1.12-0.323-1.402     c-0.216-0.284-0.546-0.426-0.987-0.426c-0.378,0-0.693,0.097-0.947,0.289c-0.252,0.192-0.452,0.38-0.6,0.562v5.931h-1.279v-7.694     h1.169v0.866h0.032c0.03-0.065,0.1-0.158,0.204-0.282c0.106-0.123,0.243-0.24,0.411-0.352c0.169-0.113,0.367-0.211,0.6-0.298     c0.231-0.084,0.495-0.128,0.79-0.128c0.337,0,0.642,0.051,0.915,0.152c0.273,0.103,0.506,0.266,0.695,0.489     c0.189,0.225,0.338,0.516,0.442,0.874s0.157,0.799,0.157,1.323v5.049H140.051z M146.242,23.907c0-0.78,0.099-1.432,0.299-1.956     c0.201-0.522,0.458-0.945,0.773-1.266c0.316-0.321,0.674-0.547,1.074-0.68c0.4-0.135,0.8-0.201,1.201-0.201     c0.24,0,0.451,0.019,0.631,0.057c0.18,0.036,0.325,0.082,0.441,0.136v-3.687l1.279-0.144v11.477h-1.168v-0.817h-0.032     c-0.032,0.064-0.089,0.152-0.174,0.264c-0.084,0.113-0.199,0.225-0.347,0.336c-0.146,0.113-0.332,0.209-0.553,0.29     c-0.221,0.08-0.479,0.12-0.773,0.12c-0.359,0-0.699-0.073-1.019-0.217c-0.321-0.144-0.604-0.375-0.845-0.69     c-0.243-0.315-0.434-0.721-0.578-1.218C146.313,25.213,146.242,24.613,146.242,23.907z M149.242,26.681     c0.199,0,0.377-0.027,0.535-0.08c0.158-0.054,0.297-0.122,0.412-0.201c0.115-0.081,0.213-0.163,0.291-0.25     c0.08-0.084,0.14-0.16,0.182-0.224v-4.746c-0.116-0.074-0.25-0.139-0.402-0.191c-0.152-0.054-0.346-0.081-0.576-0.081     c-0.295,0-0.57,0.051-0.83,0.152c-0.257,0.101-0.48,0.27-0.67,0.505c-0.189,0.234-0.34,0.54-0.451,0.914     c-0.109,0.374-0.166,0.833-0.166,1.379c0,0.533,0.046,0.98,0.136,1.337c0.089,0.358,0.212,0.646,0.37,0.866     c0.158,0.218,0.338,0.376,0.537,0.473C148.811,26.632,149.02,26.681,149.242,26.681z M158.762,22.545     c0,0.332-0.009,0.617-0.03,0.857c-0.021,0.241-0.042,0.453-0.063,0.634H154.8c0.042,0.908,0.233,1.576,0.576,2.003     c0.343,0.427,0.835,0.642,1.477,0.642c0.22,0,0.421-0.027,0.601-0.08c0.178-0.054,0.334-0.119,0.465-0.193     c0.131-0.075,0.242-0.149,0.332-0.225c0.089-0.074,0.155-0.134,0.197-0.177l0.473,0.915c-0.052,0.053-0.131,0.131-0.236,0.232     c-0.104,0.101-0.246,0.203-0.426,0.304s-0.4,0.19-0.664,0.266c-0.262,0.074-0.574,0.112-0.931,0.112     c-0.474,0-0.903-0.081-1.287-0.241c-0.385-0.16-0.712-0.408-0.979-0.745c-0.268-0.336-0.477-0.764-0.623-1.282     c-0.148-0.519-0.223-1.141-0.223-1.867c0-0.684,0.078-1.274,0.23-1.771s0.36-0.906,0.623-1.227     c0.264-0.321,0.568-0.558,0.916-0.712c0.348-0.155,0.722-0.233,1.121-0.233c0.727,0,1.295,0.233,1.705,0.698     C158.558,20.917,158.762,21.615,158.762,22.545z M156.363,20.814c-0.453,0-0.816,0.191-1.09,0.577     c-0.274,0.385-0.432,0.94-0.474,1.667h2.763c0.011-0.054,0.019-0.132,0.023-0.233c0.006-0.101,0.008-0.211,0.008-0.329     c0-0.535-0.104-0.949-0.314-1.242S156.763,20.814,156.363,20.814z M163.801,21.086c-0.032-0.021-0.102-0.048-0.206-0.081     c-0.104-0.031-0.248-0.047-0.426-0.047c-0.401,0-0.714,0.109-0.939,0.329c-0.228,0.218-0.388,0.457-0.481,0.713v5.643h-1.279     v-7.694h1.168v1.042h0.031c0.053-0.151,0.121-0.298,0.205-0.442s0.19-0.272,0.316-0.384c0.126-0.113,0.275-0.201,0.449-0.265     c0.174-0.063,0.381-0.096,0.625-0.096c0.178,0,0.323,0.016,0.434,0.048c0.111,0.031,0.197,0.058,0.262,0.08L163.801,21.086z      M54.375,33.708h-1.153v-0.961h3.679v0.961h-1.153v9.089h1.184v1.011H53.19v-1.011h1.185V33.708z M62.585,43.808v-4.954     c0-0.652-0.109-1.119-0.324-1.402c-0.216-0.284-0.545-0.425-0.987-0.425c-0.379,0-0.695,0.097-0.947,0.29     c-0.253,0.191-0.453,0.378-0.6,0.56v5.932h-1.279v-7.695h1.167v0.866h0.032c0.032-0.065,0.101-0.158,0.206-0.282     c0.105-0.123,0.241-0.24,0.41-0.353c0.168-0.112,0.369-0.21,0.6-0.296c0.232-0.085,0.495-0.128,0.79-0.128     c0.337,0,0.642,0.051,0.917,0.152c0.273,0.103,0.504,0.266,0.694,0.489c0.189,0.225,0.337,0.516,0.443,0.874     c0.105,0.357,0.157,0.799,0.157,1.322v5.05H62.585z M68.964,37.17h-1.547v6.637h-1.279V37.17h-0.916v-0.865l0.916-0.177v-1.538     c0-0.418,0.058-0.776,0.174-1.075c0.115-0.299,0.268-0.544,0.458-0.737c0.19-0.193,0.41-0.332,0.664-0.417     c0.252-0.085,0.521-0.128,0.806-0.128c0.273,0,0.505,0.038,0.694,0.113c0.19,0.074,0.316,0.133,0.379,0.175l-0.268,1.075     c-0.063-0.043-0.152-0.089-0.269-0.136c-0.116-0.048-0.258-0.073-0.426-0.073c-0.305,0-0.537,0.096-0.694,0.288     c-0.159,0.193-0.237,0.546-0.237,1.059v1.378h1.705L68.964,37.17z M69.738,39.96c0-0.706,0.082-1.314,0.245-1.828     c0.163-0.512,0.384-0.932,0.664-1.258c0.279-0.326,0.6-0.566,0.962-0.721c0.364-0.155,0.751-0.233,1.161-0.233     c0.42,0,0.811,0.078,1.169,0.233c0.357,0.155,0.667,0.395,0.932,0.721c0.263,0.326,0.471,0.746,0.624,1.258     c0.153,0.514,0.228,1.123,0.228,1.828c0,0.715-0.078,1.331-0.236,1.845c-0.158,0.512-0.377,0.932-0.656,1.258     c-0.278,0.326-0.602,0.563-0.971,0.713C73.49,43.925,73.101,44,72.691,44c-0.422,0-0.811-0.075-1.169-0.225     c-0.358-0.15-0.669-0.387-0.932-0.713s-0.471-0.744-0.624-1.252C69.814,41.305,69.738,40.686,69.738,39.96z M74.396,39.96     c0-1.026-0.147-1.771-0.442-2.236c-0.295-0.465-0.706-0.698-1.233-0.698c-0.525,0-0.934,0.233-1.223,0.698     c-0.29,0.464-0.434,1.209-0.434,2.236s0.147,1.764,0.442,2.212c0.294,0.449,0.706,0.674,1.231,0.674     c0.527,0,0.934-0.225,1.225-0.674C74.251,41.724,74.396,40.986,74.396,39.96z M80.665,37.251c-0.032-0.021-0.1-0.048-0.206-0.081     c-0.105-0.031-0.247-0.047-0.426-0.047c-0.399,0-0.713,0.109-0.939,0.329c-0.227,0.218-0.386,0.457-0.482,0.713v5.643h-1.279     v-7.695h1.169v1.042h0.032c0.052-0.151,0.121-0.297,0.204-0.442c0.085-0.144,0.19-0.272,0.316-0.384     c0.126-0.113,0.276-0.201,0.45-0.265c0.174-0.063,0.382-0.096,0.625-0.096c0.178,0,0.323,0.016,0.434,0.048     c0.11,0.031,0.198,0.058,0.26,0.08L80.665,37.251z M85.907,43.808v-4.954c0-0.63-0.091-1.084-0.269-1.363     c-0.179-0.277-0.468-0.416-0.869-0.416c-0.211,0-0.396,0.027-0.56,0.081c-0.163,0.053-0.308,0.12-0.435,0.2     c-0.126,0.081-0.236,0.168-0.331,0.265c-0.095,0.096-0.174,0.182-0.237,0.256v5.932h-1.279v-7.695h1.169v0.866h0.031     c0.053-0.086,0.133-0.19,0.237-0.313c0.105-0.124,0.236-0.241,0.396-0.353c0.157-0.113,0.341-0.206,0.552-0.28     c0.211-0.075,0.448-0.113,0.709-0.113c0.864,0,1.475,0.342,1.833,1.027c0.073-0.108,0.174-0.222,0.3-0.345     c0.127-0.123,0.273-0.235,0.441-0.336c0.169-0.101,0.359-0.185,0.57-0.248c0.209-0.064,0.441-0.097,0.693-0.097     c1.538,0,2.307,0.908,2.307,2.726v5.162h-1.279v-4.954c0-0.63-0.111-1.084-0.332-1.363c-0.221-0.277-0.548-0.416-0.979-0.416     c-0.359,0-0.656,0.089-0.893,0.264c-0.237,0.176-0.424,0.345-0.561,0.505c0.021,0.117,0.037,0.244,0.047,0.377     c0.012,0.133,0.017,0.274,0.017,0.424v5.162H85.907z M92.633,41.852c0-0.449,0.086-0.823,0.254-1.122     c0.168-0.299,0.395-0.542,0.678-0.729c0.285-0.187,0.619-0.321,1.004-0.401c0.385-0.08,0.791-0.12,1.223-0.12h0.396v-0.737     c0-0.652-0.112-1.101-0.339-1.347c-0.228-0.246-0.546-0.369-0.956-0.369c-0.38,0-0.695,0.083-0.947,0.249     c-0.253,0.166-0.452,0.313-0.601,0.44l-0.537-0.866c0.086-0.085,0.193-0.181,0.324-0.288c0.131-0.106,0.292-0.209,0.481-0.305     c0.19-0.096,0.405-0.176,0.647-0.24c0.243-0.064,0.517-0.097,0.822-0.097c0.778,0,1.367,0.22,1.768,0.658     c0.4,0.438,0.6,1.144,0.6,2.116v3.51c0,0.331,0.012,0.655,0.033,0.97c0.02,0.315,0.041,0.527,0.062,0.634h-1.216l-0.047-0.851     h-0.032c-0.041,0.098-0.104,0.207-0.188,0.329c-0.085,0.122-0.189,0.235-0.316,0.337c-0.127,0.101-0.279,0.189-0.459,0.266     C95.107,43.963,94.896,44,94.655,44c-0.285,0-0.55-0.054-0.798-0.16c-0.248-0.107-0.464-0.258-0.646-0.449     c-0.186-0.192-0.326-0.42-0.428-0.682C92.684,42.448,92.633,42.161,92.633,41.852z M94.924,42.895     c0.179,0,0.337-0.027,0.473-0.082c0.137-0.053,0.256-0.117,0.356-0.191c0.1-0.074,0.183-0.158,0.252-0.248     c0.069-0.091,0.129-0.169,0.182-0.233v-1.699l-0.411,0.016c-0.61,0.021-1.074,0.128-1.389,0.321     c-0.316,0.192-0.475,0.502-0.475,0.929c0,0.396,0.09,0.692,0.269,0.891C94.359,42.795,94.607,42.895,94.924,42.895z      M102.613,37.17h-1.658v4.265c0,0.544,0.068,0.916,0.205,1.113c0.137,0.198,0.369,0.297,0.695,0.297     c0.189,0,0.353-0.027,0.489-0.08s0.236-0.102,0.3-0.145l0.174,1.042c-0.053,0.044-0.179,0.109-0.379,0.2     c-0.201,0.091-0.469,0.137-0.806,0.137c-0.653,0-1.142-0.185-1.468-0.554c-0.326-0.368-0.49-0.98-0.49-1.835V37.17h-0.915v-0.865     l0.915-0.193l0.143-2.148h1.137v2.148h1.816L102.613,37.17z M104.066,43.808h1.279v-7.695h-1.279V43.808z M104.713,34.254     c-0.264,0-0.473-0.086-0.631-0.257c-0.158-0.171-0.238-0.395-0.238-0.674c0-0.267,0.08-0.486,0.238-0.657     c0.158-0.169,0.367-0.256,0.631-0.256c0.252,0,0.459,0.086,0.616,0.256c0.157,0.171,0.236,0.391,0.236,0.657     c0,0.279-0.079,0.502-0.236,0.674C105.172,34.167,104.965,34.254,104.713,34.254z M106.956,39.96     c0-0.706,0.081-1.314,0.244-1.828c0.163-0.512,0.385-0.932,0.663-1.258c0.279-0.326,0.6-0.566,0.963-0.721     c0.364-0.155,0.75-0.233,1.16-0.233c0.422,0,0.811,0.078,1.169,0.233c0.358,0.155,0.669,0.395,0.932,0.721     c0.263,0.326,0.472,0.746,0.624,1.258c0.152,0.514,0.229,1.123,0.229,1.828c0,0.715-0.079,1.331-0.236,1.845     c-0.158,0.512-0.376,0.932-0.656,1.258c-0.278,0.326-0.602,0.563-0.97,0.713c-0.368,0.149-0.759,0.225-1.169,0.225     c-0.42,0-0.811-0.075-1.169-0.225c-0.356-0.15-0.667-0.387-0.932-0.713c-0.263-0.326-0.472-0.744-0.624-1.252     C107.031,41.305,106.956,40.686,106.956,39.96z M111.613,39.96c0-1.026-0.147-1.771-0.441-2.236     c-0.295-0.465-0.707-0.698-1.232-0.698c-0.526,0-0.934,0.233-1.223,0.698c-0.291,0.464-0.436,1.209-0.436,2.236     s0.147,1.764,0.441,2.212c0.295,0.449,0.707,0.674,1.233,0.674c0.525,0,0.935-0.225,1.224-0.674     C111.469,41.724,111.613,40.986,111.613,39.96z M118.688,43.808v-4.954c0-0.652-0.107-1.119-0.324-1.402     c-0.215-0.284-0.544-0.425-0.986-0.425c-0.379,0-0.695,0.097-0.947,0.29c-0.254,0.191-0.452,0.378-0.602,0.56v5.932h-1.278     v-7.695h1.169v0.866h0.031c0.032-0.065,0.1-0.158,0.206-0.282c0.104-0.123,0.241-0.24,0.41-0.353     c0.169-0.112,0.369-0.21,0.6-0.296c0.232-0.085,0.495-0.128,0.79-0.128c0.337,0,0.643,0.051,0.915,0.152     c0.274,0.103,0.506,0.266,0.695,0.489c0.19,0.225,0.337,0.516,0.442,0.874c0.104,0.357,0.158,0.799,0.158,1.322v5.05H118.688z      M125.145,37.667c-0.083-0.096-0.236-0.227-0.457-0.392c-0.221-0.166-0.51-0.249-0.868-0.249c-0.337,0-0.595,0.081-0.773,0.241     c-0.179,0.161-0.27,0.353-0.27,0.577c0,0.288,0.083,0.527,0.245,0.714c0.164,0.188,0.413,0.387,0.75,0.601l0.475,0.288     c0.516,0.31,0.92,0.644,1.215,1.002s0.443,0.82,0.443,1.387c0,0.608-0.209,1.121-0.624,1.539     c-0.417,0.416-1.014,0.625-1.792,0.625c-0.306,0-0.575-0.032-0.807-0.098c-0.231-0.063-0.434-0.139-0.607-0.223     c-0.174-0.086-0.318-0.18-0.434-0.28c-0.117-0.103-0.211-0.195-0.285-0.282l0.615-1.024c0.064,0.063,0.141,0.139,0.23,0.224     c0.088,0.086,0.197,0.168,0.323,0.249c0.126,0.079,0.269,0.147,0.426,0.2c0.158,0.053,0.343,0.08,0.554,0.08     c0.378,0,0.668-0.086,0.867-0.256c0.201-0.172,0.301-0.38,0.301-0.625c0-0.182-0.023-0.34-0.07-0.475     c-0.049-0.133-0.119-0.253-0.215-0.359c-0.094-0.107-0.209-0.209-0.348-0.305c-0.137-0.097-0.294-0.203-0.473-0.32l-0.475-0.306     c-0.473-0.31-0.844-0.636-1.111-0.977c-0.27-0.342-0.403-0.78-0.403-1.315c0-0.288,0.056-0.553,0.165-0.793     c0.111-0.241,0.266-0.449,0.467-0.625c0.2-0.177,0.434-0.315,0.703-0.418c0.268-0.101,0.555-0.152,0.859-0.152     c0.295,0,0.549,0.03,0.758,0.089c0.211,0.058,0.393,0.133,0.545,0.223c0.152,0.092,0.279,0.182,0.379,0.272     c0.101,0.091,0.182,0.168,0.245,0.233L125.145,37.667z M130.641,37.17h-1.658v4.265c0,0.544,0.068,0.916,0.205,1.113     c0.137,0.198,0.369,0.297,0.694,0.297c0.19,0,0.353-0.027,0.489-0.08s0.238-0.102,0.301-0.145l0.174,1.042     c-0.053,0.044-0.18,0.109-0.379,0.2S129.999,44,129.662,44c-0.653,0-1.143-0.185-1.469-0.554c-0.326-0.368-0.49-0.98-0.49-1.835     V37.17h-0.916v-0.865l0.916-0.193l0.143-2.148h1.137v2.148h1.816L130.641,37.17z M136.846,38.71c0,0.332-0.011,0.617-0.031,0.857     c-0.021,0.241-0.042,0.453-0.063,0.633h-3.869c0.042,0.91,0.234,1.578,0.576,2.004c0.343,0.427,0.835,0.642,1.477,0.642     c0.221,0,0.422-0.027,0.601-0.08s0.333-0.118,0.466-0.192c0.131-0.075,0.241-0.149,0.332-0.225     c0.088-0.074,0.154-0.134,0.195-0.177l0.475,0.915c-0.053,0.052-0.132,0.13-0.236,0.231c-0.106,0.102-0.248,0.203-0.426,0.305     c-0.18,0.101-0.4,0.189-0.664,0.266c-0.264,0.074-0.574,0.111-0.932,0.111c-0.473,0-0.903-0.081-1.287-0.241     c-0.385-0.16-0.711-0.408-0.979-0.745c-0.269-0.336-0.477-0.764-0.624-1.282s-0.222-1.141-0.222-1.867     c0-0.684,0.077-1.275,0.229-1.771c0.153-0.497,0.361-0.906,0.624-1.227c0.263-0.32,0.568-0.558,0.916-0.712     c0.348-0.155,0.721-0.233,1.121-0.233c0.725,0,1.295,0.233,1.705,0.698C136.641,37.083,136.846,37.78,136.846,38.71z      M134.445,36.979c-0.453,0-0.814,0.191-1.09,0.577c-0.273,0.385-0.431,0.94-0.473,1.667h2.764     c0.01-0.054,0.018-0.132,0.023-0.233s0.008-0.211,0.008-0.329c0-0.535-0.105-0.949-0.315-1.242     C135.151,37.126,134.846,36.979,134.445,36.979z M142.768,37.604c-0.031-0.032-0.082-0.081-0.15-0.144     c-0.068-0.065-0.154-0.129-0.261-0.193c-0.104-0.064-0.231-0.12-0.378-0.168c-0.147-0.048-0.316-0.072-0.506-0.072     c-0.273,0-0.529,0.051-0.766,0.152c-0.238,0.103-0.441,0.266-0.615,0.489c-0.174,0.225-0.311,0.516-0.412,0.874     c-0.1,0.358-0.15,0.793-0.15,1.307c0,0.566,0.046,1.042,0.137,1.427c0.088,0.383,0.211,0.69,0.369,0.921s0.351,0.396,0.576,0.497     c0.227,0.102,0.477,0.152,0.751,0.152c0.389,0,0.687-0.07,0.892-0.209c0.206-0.139,0.351-0.25,0.434-0.337l0.521,0.898     c-0.053,0.063-0.129,0.142-0.229,0.231c-0.1,0.092-0.229,0.18-0.387,0.266c-0.158,0.085-0.35,0.158-0.576,0.216     c-0.227,0.06-0.486,0.089-0.783,0.089c-0.42,0-0.814-0.07-1.184-0.209c-0.368-0.139-0.689-0.369-0.963-0.689     s-0.489-0.736-0.647-1.25c-0.157-0.514-0.235-1.149-0.235-1.908c0-0.737,0.094-1.362,0.283-1.875s0.437-0.927,0.742-1.242     c0.305-0.316,0.645-0.545,1.019-0.689c0.373-0.145,0.75-0.217,1.13-0.217c0.283,0,0.533,0.027,0.749,0.081     c0.216,0.053,0.399,0.12,0.552,0.199c0.152,0.081,0.28,0.166,0.38,0.257c0.1,0.09,0.182,0.168,0.244,0.232L142.768,37.604z      M148.783,43.808v-4.954c0-0.652-0.108-1.119-0.323-1.402c-0.216-0.284-0.546-0.425-0.987-0.425c-0.379,0-0.695,0.097-0.947,0.29     c-0.252,0.191-0.453,0.378-0.6,0.56v5.932h-1.279V32.474l1.279-0.144v4.568h0.031c0.041-0.063,0.107-0.149,0.197-0.256     c0.09-0.108,0.213-0.214,0.371-0.32c0.158-0.108,0.35-0.201,0.576-0.282c0.227-0.08,0.492-0.12,0.797-0.12     c0.664,0,1.19,0.22,1.579,0.658c0.39,0.438,0.585,1.165,0.585,2.18v5.05H148.783z M156.109,43.808v-4.954     c0-0.652-0.107-1.119-0.324-1.402c-0.215-0.284-0.543-0.425-0.985-0.425c-0.38,0-0.695,0.097-0.947,0.29     c-0.253,0.191-0.452,0.378-0.601,0.56v5.932h-1.278v-7.695h1.167v0.866h0.033c0.031-0.065,0.1-0.158,0.205-0.282     c0.105-0.123,0.242-0.24,0.41-0.353c0.168-0.112,0.369-0.21,0.6-0.296c0.232-0.085,0.495-0.128,0.789-0.128     c0.338,0,0.643,0.051,0.916,0.152c0.274,0.103,0.506,0.266,0.695,0.489c0.189,0.225,0.337,0.516,0.441,0.874     c0.105,0.357,0.158,0.799,0.158,1.322v5.05H156.109z M159.299,43.808h1.279v-7.695h-1.279V43.808z M159.947,34.254     c-0.264,0-0.475-0.086-0.632-0.257c-0.157-0.171-0.236-0.395-0.236-0.674c0-0.267,0.079-0.486,0.236-0.657     c0.157-0.169,0.368-0.256,0.632-0.256c0.252,0,0.457,0.086,0.615,0.256c0.158,0.171,0.238,0.391,0.238,0.657     c0,0.279-0.08,0.502-0.238,0.674C160.404,34.167,160.199,34.254,159.947,34.254z M165.396,39.64L168,43.808h-1.531l-2.133-3.592     h-0.521v3.592h-1.277V32.474l1.277-0.144v6.78h0.538l2.036-2.997h1.518L165.396,39.64L165.396,39.64z" />
			<polyline
   id="Fill-3"
   fill="#F1CC1F"
   points="42.286,54 44,54 44,81 40,81 40,54 42.286,54    " />
			<polyline
   id="Fill-4"
   fill="#D8232A"
   points="42.286,27 44,27 44,54 40,54 40,27 42.286,27    " />
			<path
   id="Fill-5"
   fill="#1A1919"
   d="M26.971,10.58c1.359,2.155,2.423,2.119,4.029,2.119c-1.329-1.022-2.208-2.33-2.627-2.998     l-2.482-3.983c-0.241-1.23-0.877-2.38-1.826-3.236c0.318-0.121,0.585-0.249,0.745-0.37c-1.621,0-3.227-0.825-4.111-0.825     c-0.568,0-0.935,0.341-0.935,0.791c0.037,0.5,0.552,1.012,1.504,1.012c0.215,0,0.491-0.028,0.794-0.079     c0.515,0.72,0.93,1.372,0.93,2.301c0,1.744-2.079,3.103-4.177,3.103c-0.12,0-0.232-0.005-0.351-0.013     c-0.191-0.433-0.823-1.16-0.823-1.984c0-1.386,0.901-2.517,0.901-3.891c0-0.852-0.416-1.38-0.575-1.6     c0.259-0.24,0.54-0.535,0.605-0.736c-0.148,0.064-0.326,0.073-0.585,0.073C16.981,0.262,16.161,0,15.362,0     c-0.457,0-0.58,0.141-0.58,0.275c0,0.049,0.008,0.1,0.021,0.124c-0.17-0.066-0.329-0.11-0.521-0.146     c-0.235-0.044-0.49-0.066-0.759-0.066c-0.972,0-1.317,0.409-1.317,0.757c0,0.297,0.232,0.837,0.497,1.249     c0.378-0.19,0.833-0.319,1.041-0.319c0.515,0,0.975,0.493,1.217,1.076c-0.346,0.042-0.413,0.057-0.763,0.057     c-0.946,0-1.59-0.339-1.723-0.339c-0.014,0-0.039,0.007-0.039,0.027c0,0.134,0.27,0.486,0.797,0.679     c0.696,0.256,1.74,0.362,1.915,0.392c0,0.03-0.177,0.36-0.375,0.423C14.731,4.201,14.7,4.203,14.65,4.192     c-0.728-0.144-0.931-0.205-1.853-0.558c-0.029-0.009-0.045,0.008-0.045,0.037c0,0.366,0.945,1.174,1.792,1.483     c-0.708,0.906-1.59,1.833-2.007,3.246c-0.118,0.008-0.232,0.013-0.35,0.013c-2.099,0-4.179-1.359-4.179-3.103     c0-0.929,0.417-1.581,0.932-2.301c0.303,0.051,0.578,0.079,0.794,0.079c0.952,0,1.467-0.511,1.504-1.012     c0-0.45-0.365-0.791-0.936-0.791c-0.882,0-2.489,0.825-4.111,0.825c0.161,0.121,0.426,0.249,0.745,0.37     C5.986,3.337,5.352,4.488,5.109,5.718L2.628,9.701C2.21,10.369,1.329,11.676,0,12.699c1.606,0,2.671,0.036,4.03-2.119     l1.272-2.042c0.095,0.265,0.211,0.523,0.348,0.776l-2.531,4.062c-0.422,0.674-1.294,1.97-2.628,2.998     c1.606,0,2.671,0.037,4.029-2.117l2.18-3.499c0.163,0.174,0.334,0.345,0.515,0.507l-3.074,4.936     c-0.422,0.675-1.29,1.968-2.628,2.996c1.606,0,2.672,0.039,4.03-2.117l2.997-4.813c0.198,0.125,0.4,0.246,0.608,0.361     l-3.659,5.871c-0.422,0.676-1.29,1.966-2.627,2.995c1.606,0,2.671,0.039,4.03-2.115l3.767-6.048     c0.223,0.085,0.449,0.168,0.678,0.241l-4.257,6.833c-0.416,0.666-1.304,1.979-2.625,2.996c1.604,0,2.67,0.036,4.028-2.117     l4.537-7.282c0.046,0.007,0.092,0.015,0.137,0.024c0.124,0.394,0.21,0.76,0.21,1.128c0,2.288-1.498,4.309-3.295,5.869     c0.116,0.051,0.315,0.068,0.5,0.068c0.371,0,0.611-0.02,0.779-0.049c-0.417,0.949-1.312,2.174-1.763,2.809     c-0.589-0.106-1.444-0.19-2.004-0.19c-0.587,0-0.653,0.345-0.653,0.652c0,0.534,0.249,0.958,0.539,1.196     c0.109-0.273,0.328-0.638,1.411-0.638c0.021,0,0.058,0.002,0.109,0.005C8.672,25.23,7.68,26.034,7.68,26.681     c0,0.428,0.47,1.071,1.087,1.071c-0.037-0.138-0.032-0.266-0.032-0.361c0-0.524,0.463-1.138,0.854-1.566     c-0.012,0.127-0.006,0.114-0.006,0.263c0,1.24,0.113,1.81,0.897,1.81c0.385,0,0.65-0.212,0.742-0.276     c-0.51-0.47-0.536-0.84-0.536-1.535c0.001-0.181,0.001-0.358,0.004-0.602c0.002-0.16,0-0.37-0.027-0.521     c0.282-0.039,0.396-0.039,0.611-0.039c0,0,1.115-0.089,1.383,0.493c0.302-0.278,0.742-0.671,0.742-1.104     c0-0.286-0.135-0.61-0.708-0.61c-0.218,0-0.901,0.133-1.474,0.133c0.154-0.343,0.837-1.347,1.431-2.074     c0.089,0.282,0.229,0.587,0.54,0.837c0.044-0.469,0.317-1.95,1.047-2.817c0.085,0.586,0.199,1.186,0.199,2.452     c0,3.079-0.738,5.355-2.306,5.79c0.204,0.355,0.634,0.676,1.083,0.676c0.572,0,0.885-0.651,1.204-1.265     C14.583,27.89,15.041,29,15.5,29s0.917-1.11,1.083-1.563c0.319,0.614,0.632,1.265,1.206,1.265c0.447,0,0.878-0.321,1.083-0.676     c-1.568-0.434-2.307-2.71-2.307-5.79c0-1.266,0.114-1.866,0.199-2.452c0.73,0.867,1.005,2.348,1.047,2.817     c0.312-0.25,0.453-0.555,0.542-0.837c0.592,0.727,1.277,1.731,1.431,2.074c-0.574,0-1.257-0.133-1.474-0.133     c-0.573,0-0.709,0.324-0.709,0.61c0,0.433,0.439,0.825,0.742,1.104c0.267-0.582,1.383-0.493,1.383-0.493     c0.215,0,0.329,0,0.61,0.039c-0.026,0.151-0.028,0.362-0.026,0.521c0.001,0.244,0.002,0.421,0.002,0.602     c0,0.695-0.025,1.065-0.535,1.535c0.091,0.064,0.357,0.276,0.742,0.276c0.785,0,0.897-0.57,0.897-1.81     c0-0.149,0.004-0.136-0.007-0.263c0.392,0.428,0.855,1.042,0.855,1.566c0,0.095,0.005,0.223-0.033,0.361     c0.619,0,1.088-0.643,1.088-1.071c0-0.647-0.991-1.451-1.31-1.805c0.052-0.003,0.089-0.005,0.109-0.005     c1.084,0,1.304,0.365,1.413,0.638c0.289-0.237,0.539-0.662,0.539-1.196c0-0.308-0.066-0.652-0.653-0.652     c-0.56,0-1.417,0.084-2.004,0.19c-0.453-0.635-1.346-1.859-1.763-2.809c0.167,0.029,0.409,0.049,0.778,0.049     c0.187,0,0.386-0.017,0.501-0.068c-1.797-1.56-3.296-3.581-3.296-5.869c0-0.368,0.088-0.734,0.211-1.128     c0.043-0.009,0.09-0.017,0.137-0.024l4.537,7.282c1.358,2.152,2.424,2.117,4.029,2.117c-1.322-1.017-2.21-2.33-2.625-2.996     l-4.258-6.833c0.231-0.073,0.457-0.156,0.68-0.241l3.767,6.048c1.359,2.154,2.424,2.115,4.03,2.115     c-1.336-1.029-2.205-2.319-2.627-2.995l-3.658-5.871c0.207-0.115,0.41-0.236,0.607-0.361l2.999,4.813     c1.359,2.155,2.422,2.117,4.028,2.117c-1.336-1.028-2.205-2.32-2.627-2.996l-3.074-4.936c0.181-0.163,0.353-0.333,0.514-0.507     l2.18,3.499c1.359,2.154,2.424,2.117,4.03,2.117c-1.335-1.028-2.207-2.324-2.628-2.998l-2.531-4.062     c0.137-0.253,0.252-0.511,0.348-0.776L26.971,10.58z M6.654,5.903c0-1.518,1.1-2.717,1.487-3.055     c0.094,0.022,0.187,0.044,0.28,0.064C8.008,3.415,7.282,4.26,7.282,5.378c0,2.22,2.365,4.148,5.044,4.148     c-0.017,0.19-0.026,0.39-0.026,0.595c0,0.329,0.019,0.634,0.05,0.921C9.321,11.024,6.654,8.559,6.654,5.903z M10.758,24.105     l-0.017,0.052h0.053c0.85,0,1.264-0.06,1.539-0.101c0.143-0.017,0.247-0.033,0.358-0.033c0.219,0,0.387,0.02,0.387,0.292     c0,0.183-0.212,0.471-0.419,0.639c-0.313-0.297-0.747-0.355-1.384-0.355c-0.297,0-0.688,0.055-0.896,0.084l-0.033,0.004     l-0.037,0.005l0.012,0.1c0.025,0.177,0.056,0.397,0.056,0.694l-0.004,0.269l-0.004,0.334c0,0.724,0.1,1.137,0.352,1.45     c-0.065,0.024-0.17,0.044-0.239,0.044c-0.449,0-0.579-0.197-0.579-1.493c0-0.261-0.015-0.504-0.022-0.667l-0.013-0.241     L9.81,25.225c-0.667,0.51-1.353,1.42-1.394,2.101c-0.2-0.129-0.418-0.42-0.418-0.644c0-0.372,0.558-0.929,1.201-1.576     l0.372-0.372l0.047-0.048l-0.121-0.031c-0.139-0.036-0.397-0.101-0.616-0.101c-0.724,0-1.176,0.137-1.455,0.442     c-0.101-0.145-0.185-0.484-0.185-0.683c0-0.129,0.025-0.22,0.076-0.271C7.38,23.98,7.479,23.98,7.565,23.98h0.019     c0.796,0,1.75,0.144,2.121,0.204l0.021,0.005L9.74,24.17c0.064-0.087,1.584-2.117,1.978-3.192c0.092-0.035,0.17-0.06,0.328-0.06     c0.3,0,0.384,0.202,0.469,0.513C11.565,22.587,10.974,23.487,10.758,24.105z M18.954,20.918c0.159,0,0.236,0.025,0.329,0.06     c0.394,1.076,1.914,3.105,1.977,3.192l0.014,0.019l0.023-0.005c0.372-0.06,1.325-0.204,2.121-0.204h0.019     c0.086,0,0.185,0,0.247,0.061c0.052,0.052,0.077,0.143,0.077,0.271c0,0.199-0.083,0.538-0.185,0.683     c-0.278-0.305-0.731-0.442-1.456-0.442c-0.218,0-0.475,0.065-0.614,0.101l-0.057,0.013l-0.065,0.018l0.418,0.419     c0.645,0.647,1.203,1.205,1.203,1.576c0,0.224-0.218,0.515-0.418,0.644c-0.042-0.68-0.727-1.591-1.395-2.101l-0.057-0.042     l-0.01,0.239c-0.009,0.163-0.024,0.406-0.024,0.667c0,1.295-0.131,1.493-0.579,1.493c-0.069,0-0.174-0.02-0.239-0.044     c0.252-0.313,0.352-0.726,0.352-1.45l-0.004-0.334l-0.004-0.269c0-0.297,0.031-0.517,0.055-0.694l0.013-0.1l-0.07-0.009     c-0.21-0.029-0.599-0.084-0.896-0.084c-0.639,0-1.071,0.059-1.385,0.355c-0.207-0.168-0.419-0.457-0.419-0.639     c0-0.271,0.167-0.292,0.388-0.292c0.111,0,0.215,0.016,0.358,0.033c0.275,0.042,0.688,0.101,1.539,0.101h0.052l-0.016-0.052     c-0.215-0.618-0.807-1.518-1.756-2.674C18.572,21.12,18.655,20.918,18.954,20.918z M15.436,3.211     c-0.095-0.393-0.296-0.799-0.552-1.104c-0.234-0.275-0.62-0.604-1.141-0.604c-0.237,0-0.636,0.112-0.889,0.218     c-0.094-0.171-0.28-0.588-0.28-0.777c0-0.193,0.327-0.389,0.949-0.389c1.369,0,2.188,0.622,2.188,1.663     C15.711,2.583,15.566,2.917,15.436,3.211z M16.051,1.857c-0.049-0.292-0.161-0.559-0.331-0.788     c0.008-0.269,0.118-0.526,0.551-0.314c-0.233,0.24-0.053,0.663-0.053,0.663s0.477-0.223,0.378-0.538     C17.305,1.05,16.795,2.005,16.051,1.857z M18.716,11.043c0.036-0.298,0.057-0.606,0.057-0.921c0-0.17,0.001-0.37-0.02-0.597     c2.646-0.037,4.966-1.949,4.966-4.146c0-1.119-0.728-1.964-1.139-2.467c0.093-0.02,0.186-0.042,0.278-0.064     c0.388,0.338,1.488,1.538,1.488,3.055C24.347,8.54,21.719,10.988,18.716,11.043L18.716,11.043z" />
			<polygon
   id="Fill-6"
   fill="#1A1919"
   points="40,28 44,28 44,1 40,1    " />
		</g>
	</g>
</g>
</svg>
