<svg height="338.576648" viewBox="0 0 82.400003 93.5" width="295.354097" xmlns="http://www.w3.org/2000/svg" xmlns:xlink="http://www.w3.org/1999/xlink"><linearGradient id="a" gradientUnits="userSpaceOnUse" x1=".882648" x2="10.795352" y1="41.440008" y2="41.440008"><stop offset=".11" stop-color="#fff"/><stop offset=".24" stop-color="#dcdfe1"/><stop offset=".44" stop-color="#a8afb3"/><stop offset=".54" stop-color="#949ca1"/></linearGradient><linearGradient id="b" gradientUnits="userSpaceOnUse" x1="76.919998" x2="76.919998" y1="45.48" y2="17.23"><stop offset="0" stop-color="#fff"/><stop offset=".35" stop-color="#fff"/><stop offset=".56" stop-color="#949ca1"/><stop offset="1" stop-color="#949ca1"/></linearGradient><linearGradient id="c" gradientUnits="userSpaceOnUse" x1="3.17" x2="41.220001" y1="77.82" y2="77.82"><stop offset=".15" stop-color="#fff"/><stop offset=".21" stop-color="#fafafa"/><stop offset=".29" stop-color="#ebeced"/><stop offset=".37" stop-color="#d2d5d7"/><stop offset=".45" stop-color="#afb5b9"/><stop offset=".51" stop-color="#949ca1"/></linearGradient><linearGradient id="d" gradientUnits="userSpaceOnUse" x1="63.799999" x2="18.68" y1="75.889999" y2="11.47"><stop offset="0" stop-color="#949ca1"/><stop offset=".01" stop-color="#99a1a6"/><stop offset=".12" stop-color="#c2c6c8"/><stop offset=".2" stop-color="#dbddde"/><stop offset=".25" stop-color="#e4e5e6"/><stop offset=".75" stop-color="#e4e5e6"/><stop offset=".8" stop-color="#dcdedf"/><stop offset=".87" stop-color="#c7cacd"/><stop offset=".97" stop-color="#a3aaae"/><stop offset="1" stop-color="#949ca1"/></linearGradient><linearGradient id="e"><stop offset=".25" stop-color="#fff"/><stop offset=".34" stop-color="#fafafa"/><stop offset=".45" stop-color="#ebeced"/><stop offset=".57" stop-color="#d2d5d7"/><stop offset=".7" stop-color="#afb5b9"/><stop offset=".79" stop-color="#949ca1"/></linearGradient><linearGradient id="f" gradientUnits="userSpaceOnUse" x1="16.27" x2="41.220001" xlink:href="#e" y1="7.3" y2="7.3"/><linearGradient id="g" gradientUnits="userSpaceOnUse" x1="41.220001" x2="80.800003" y1="68.559998" y2="68.559998"><stop offset=".2" stop-color="#fff"/><stop offset=".33" stop-color="#fafbfb"/><stop offset=".47" stop-color="#edeeef"/><stop offset=".63" stop-color="#d7dadc"/><stop offset=".79" stop-color="#b8bdc1"/><stop offset=".93" stop-color="#949ca1"/></linearGradient><linearGradient id="h" gradientUnits="userSpaceOnUse" x1="41.220001" x2="66.169998" xlink:href="#e" y1="7.3" y2="7.3"/><linearGradient id="i" gradientUnits="userSpaceOnUse" x1="1.67" x2="17.530001" y1="10.54" y2="10.54"><stop offset=".39" stop-color="#fff"/><stop offset=".47" stop-color="#fafafa"/><stop offset=".57" stop-color="#ebeced"/><stop offset=".67" stop-color="#d2d5d7"/><stop offset=".79" stop-color="#afb5b9"/><stop offset=".87" stop-color="#949ca1"/></linearGradient><path d="m4.4 56.6c0-8.5 4-11.7 4.8-19.8-1.1 7.1-5.8 12.8-5.8 19.8 0 2.7.4 5.1 1 7.3 2.9 9.8 11.7 15.2 20.1 17.4-12.9-3.3-20.1-14.3-20.1-24.7zm74.5 0c0-4.4-1.2-7.9-2.5-11.1-1.6-3.8-3.3-7.3-3.3-11.6 0 10.3 4.9 13.3 4.9 22.7 0 10.4-7.1 21.4-20.1 24.7 11.7-3 21-11.6 21-24.7z" fill="#fff"/><path d="m74.6 15.4c-2.7-.8-4.6-2.8-5.8-6l-2.6-7.4-1.3 4.7c2.6 11.5 12 12.3 12 12.3l3.8-1.8zm-44.6 41.9-4.9-7.6-5.5 4.1s1.9.1 1.9 2.1v14.3l3.9-2.9v-10.1l4.4 6.8 4.1-3.1v-17.8l-3.9 2.9zm15.8-16.6-4.4 3.3v-6.6l-5.9 4.4s1.9.1 1.9 2.1v14.3l4-3v-6.5l4.4-3.3v6.6l3.8-2.8v-17.9l-3.8 2.9zm11-1.6v-13.3l-5.9 4.4s1.9.1 1.9 2.1v14.3l11-8.3c-.2-2.8 0-4.5 0-4.5z" fill="#e4e5e6"/><path d="m6.6 33.9c0 10.1-5 12.1-5 22.7 0 3.2.5 6.3 1.5 9 .3-.6.8-1.3 1.3-1.7-.7-2.2-1-4.6-1-7.3 0-6.9 4.7-12.7 5.8-19.8.1-.9.1-1.9.1-2.9.1-8.1-3.8-14.9-3.8-14.9l-3.8-1.8 2.6 5.9c1.3 3 2.3 6.7 2.3 10.8z" fill="url(#a)"/><path d="m73.1 33.9c0 4.3 1.7 7.7 3.3 11.6l2.1-.1c-1.3-3.2-2.6-6.3-2.6-11.5 0-4.1 1-7.8 2.3-10.8l2.6-5.9-3.9 1.8s-3.8 6.8-3.8 14.9z" fill="url(#b)"/><path d="m38.2 84.4c-3.1-1.1-7.4-1.5-13.6-3.1-8.5-2.1-17.2-7.6-20.1-17.4-.5.5-1 1.1-1.3 1.7 3.3 9.4 11.7 16 20.7 18.4 5.8 1.5 8.5 1.6 12.8 2.8.6.6 4.5 4.9 4.5 4.9v-4.1s-2.6-2.9-3-3.2z" fill="url(#c)"/><path d="m25.3 78.5c6.9 1.7 11.4 1.9 14.4 3.4 0 0 1.1 1 1.5 1.5.4-.5 1.5-1.5 1.5-1.5 3-1.5 7.5-1.7 14.4-3.4 8.7-2.2 18.1-9.9 18.1-21.9 0-8.6-4.9-11.8-4.9-22.7 0-7.4 2.8-13.1 2.8-13.1s-6.4-1.3-9.4-9.4c0 0-4.3 4-10.2 4-7.4 0-12.3-5.2-12.3-5.2s-4.9 5.2-12.3 5.2c-5.9 0-10.2-4-10.2-4-3 8.1-9.4 9.4-9.4 9.4s2.8 5.7 2.8 13.1c0 10.9-4.9 14.1-4.9 22.7 0 12.1 9.4 19.7 18.1 21.9zm46.8-21.9c0 10.2-8.1 16.9-15.7 18.9-5.5 1.4-12.1 2.1-14.2 3.3-.5.3-1 .9-1 .9s-.6-.6-1-.9c-2-1.1-8.7-1.9-14.2-3.3-.2-.1-.4-.1-.6-.2l43-32.3c1.5 5.2 3.7 8.5 3.7 13.6zm-3.1-34c-.9 2.6-1.9 6.7-1.9 11.3 0 1.9.1 3.7.4 5.2l-46.1 34.6c-5.8-3-10.8-8.7-11.1-16.5l53-39.8c1.9 2.6 4 4.2 5.7 5.2zm-53.7 11.3c0-4.7-1-8.7-1.9-11.3 2-1.1 4.6-3.1 6.6-6.5 2.2 1.2 5.3 2.5 8.9 2.5 5.5 0 9.8-2.4 12.3-4.2 2.5 1.8 6.8 4.2 12.3 4.2.9 0 1.7-.1 2.5-.2l-45.1 33.8c1.3-5.1 4.4-9.3 4.4-18.3z" fill="url(#d)"/><path d="m28.9 12.6c7.4 0 12.3-6.3 12.3-6.3v-4l-3.9 3.8c-2 2-5.2 3.6-8.4 3.6-2.4 0-4.7-1.1-6.6-2.7l-6-5 1.3 4.7c-.1 0 5.6 5.9 11.3 5.9z" fill="url(#f)"/><path d="m78.9 56.6c0 13.1-9.3 21.7-21.1 24.7-6.2 1.6-10.5 2-13.6 3.1-.4.4-3 3.2-3 3.2v4.1s4-4.3 4.5-4.9c4.3-1.2 7-1.3 12.8-2.8 11.7-3 22.3-13.2 22.3-27.4 0-5.1-1.1-8.2-2.3-11.2l-2.1.1c1.3 3.2 2.5 6.7 2.5 11.1z" fill="url(#g)"/><path d="m53.5 12.6c5.7 0 11.4-5.8 11.4-5.8l1.3-4.8-6 5c-2 1.6-4.2 2.7-6.6 2.7-3.2 0-6.4-1.6-8.4-3.6l-3.9-3.8v3.9c-.1.1 4.8 6.4 12.2 6.4z" fill="url(#h)"/><path d="m17.5 6.7-1.2-4.7-2.7 7.4c-1.2 3.2-3.1 5.2-5.8 6l-6.1 1.8 3.8 1.8s9.5-.8 12-12.3z" fill="url(#i)"/><path d="m10.9 52.2 45.1-33.9c-.8.1-1.7.2-2.5.2-5.5 0-9.8-2.4-12.3-4.2-2.5 1.8-6.8 4.2-12.3 4.2-3.6 0-6.7-1.2-8.9-2.5-2 3.4-4.6 5.4-6.6 6.5.9 2.6 1.9 6.7 1.9 11.3 0 9.1-3.1 13.3-4.4 18.4zm14.5 23.1c.2.1.4.1.6.2 5.5 1.4 12.1 2.1 14.2 3.3.5.3 1 .9 1 .9s.6-.6 1-.9c2-1.1 8.7-1.9 14.2-3.3 7.6-1.9 15.7-8.6 15.7-18.9 0-5.1-2.2-8.4-3.7-13.6zm-20-41.4c0 9.7-5 11.9-5 22.7 0 15.5 12 25.7 23.2 28.6 5.6 1.4 7.3 1.5 12.4 2.7.4.4 5.2 5.6 5.2 5.6s4.8-5.1 5.2-5.6c5.1-1.3 6.8-1.3 12.4-2.7 11.2-2.9 23.2-13.1 23.2-28.6 0-10.8-5-13-5-22.7 0-3.5.7-7 2.2-10.3l3.2-7.2-7.4-2.1c-2.3-.7-3.9-2.4-5-5.2l-3.3-9-7.4 6.1c-1.9 1.6-3.9 2.4-5.9 2.4-2.6 0-5.6-1.3-7.5-3.2l-4.7-4.7-4.7 4.7c-2 2-4.9 3.2-7.5 3.2-1.9 0-3.9-.8-5.9-2.4l-7.4-6.2-3.3 9c-1 2.8-2.7 4.6-5 5.2l-7.4 2.3 3.2 7.2c1.4 3.2 2.2 6.7 2.2 10.2zm2.4-18.5c2.7-.8 4.6-2.8 5.8-6l2.7-7.4 6 5c2 1.6 4.2 2.7 6.6 2.7 3.2 0 6.4-1.6 8.4-3.6l3.9-3.8 3.9 3.8c2 2 5.2 3.6 8.4 3.6 2.4 0 4.7-1.1 6.6-2.7l6-5 2.7 7.4c1.2 3.2 3.1 5.2 5.8 6l6.1 1.8-2.6 5.9c-1.3 3-2.3 6.6-2.3 10.8 0 5.2 1.3 8.3 2.6 11.5 1.2 3 2.3 6.1 2.3 11.2.1 14.2-10.5 24.4-22.2 27.4-5.8 1.5-8.5 1.6-12.8 2.8-.6.6-4.5 4.9-4.5 4.9s-4-4.3-4.5-4.9c-4.3-1.2-7-1.3-12.8-2.8-9-2.3-17.4-8.9-20.7-18.4-1-2.8-1.5-5.8-1.5-9-.1-10.6 4.9-12.6 4.9-22.7 0-4.1-1-7.8-2.3-10.8l-2.6-5.9zm13.6 58.3 46.1-34.6c-.2-1.6-.4-3.3-.4-5.2 0-4.7 1-8.7 1.9-11.3-1.7-1-3.9-2.5-5.7-5.1l-53 39.8c.3 7.8 5.4 13.5 11.1 16.4zm35.4-47.9v13.2l7-5.3s-.2 1.7 0 4.5l-11 8.3v-14.1c0-2-1.9-2.1-1.9-2.1zm-15.4 11.6v6.6l4.4-3.3v-6.6l3.8-2.9v17.8l-3.8 3v-6.5l-4.4 3.3v6.5l-4 3v-14.3c0-2-1.9-2.1-1.9-2.1zm-16.3 12.3 4.9 7.6v-11.3l3.9-2.9v17.8l-4.1 3.1-4.4-6.8v10.1l-3.9 2.9v-14.3c0-2-1.9-2.1-1.9-2.1zm-15.9-12.9c-.8 8.1-4.8 11.3-4.8 19.8 0 10.4 7.2 21.4 20.2 24.7 6.2 1.6 10.5 2 13.6 3.1.4.4 3 3.2 3 3.2s2.6-2.8 3-3.2c3.1-1.1 7.4-1.5 13.6-3.1 13.1-3.3 20.2-14.3 20.2-24.7 0-9.5-4.9-12.4-4.9-22.7 0-8.1 3.8-14.9 3.8-14.9s-9.5-.8-12-12.3c0 0-5.7 5.8-11.4 5.8-7.4 0-12.3-6.3-12.3-6.3s-4.9 6.3-12.3 6.3c-5.7 0-11.4-5.8-11.4-5.8-2.5 11.5-12 12.3-12 12.3s3.8 6.8 3.8 14.9c.1 1.1 0 2-.1 2.9zm.2-16s6.4-1.3 9.4-9.4c0 0 4.3 4 10.2 4 7.4 0 12.3-5.2 12.3-5.2s4.9 5.2 12.3 5.2c5.9 0 10.2-4 10.2-4 3 8.1 9.4 9.4 9.4 9.4s-2.8 5.7-2.8 13.1c0 10.9 4.9 14.1 4.9 22.7 0 12-9.4 19.7-18.1 21.9-6.9 1.7-11.4 1.9-14.4 3.4 0 0-1.1 1-1.5 1.5-.4-.5-1.5-1.5-1.5-1.5-3-1.5-7.5-1.7-14.4-3.4-8.7-2.2-18.1-9.9-18.1-21.9 0-8.6 4.9-11.8 4.9-22.7-.1-7.4-2.8-13.1-2.8-13.1z" fill="#111"/></svg>