<?xml version="1.0" encoding="UTF-8" standalone="no"?>
<svg
   xmlns="http://www.w3.org/2000/svg"
   id="svg1139"
   xml:space="preserve"
   version="1.1"
   height="1600"
   width="1600"><title
     id="title1994">Kennedy Space Center Logo</title><defs
     id="defs207"><linearGradient
       gradientUnits="userSpaceOnUse"
       gradientTransform="matrix(-42.565 -2.1046 2.1046 -42.565 337.4 436.59)"
       x2="1"
       id="linearGradient2134"><stop
         id="stop4"
         offset="0"
         stop-color="#fff" /><stop
         id="stop6"
         offset="1"
         stop-color="#dbdddc" /></linearGradient><linearGradient
       gradientUnits="userSpaceOnUse"
       gradientTransform="matrix(60.695 -11.836 11.836 60.695 289.55 445.14)"
       x2="1"
       id="linearGradient2190"><stop
         id="stop9"
         offset="0"
         stop-color="#e91e27" /><stop
         id="stop11"
         offset=".52909"
         stop-color="#eb1e29" /><stop
         id="stop13"
         offset="1"
         stop-opacity=".94118"
         stop-color="#de1f27" /></linearGradient><linearGradient
       gradientUnits="userSpaceOnUse"
       gradientTransform="matrix(60.695 -11.836 11.836 60.695 287.81 436.22)"
       x2="1"
       id="linearGradient2212"><stop
         id="stop16"
         offset="0"
         stop-color="#991a20" /><stop
         id="stop18"
         offset=".42212"
         stop-color="#ec1e28" /><stop
         id="stop20"
         offset="1"
         stop-color="#991a20" /></linearGradient><linearGradient
       gradientUnits="userSpaceOnUse"
       gradientTransform="matrix(0 -22.578 22.578 0 284.78 444.31)"
       x2="1"
       id="linearGradient2284"><stop
         id="stop35"
         offset="0"
         stop-color="#264ca3" /><stop
         id="stop37"
         offset=".24502"
         stop-color="#264ca3" /><stop
         id="stop39"
         offset=".43168"
         stop-color="#263b79" /><stop
         id="stop41"
         offset="1"
         stop-color="#263b79" /></linearGradient><linearGradient
       gradientUnits="userSpaceOnUse"
       gradientTransform="matrix(11.41 74.774 -74.774 11.41 279.42 437.61)"
       x2="1"
       id="linearGradient2360"><stop
         id="stop44"
         offset="0"
         stop-color="#d3cb5f" /><stop
         id="stop46"
         offset=".12"
         stop-color="#ab881e" /><stop
         id="stop48"
         offset=".24336"
         stop-color="#f2ee96" /><stop
         id="stop50"
         offset=".43288"
         stop-color="#d3cb5f" /><stop
         id="stop52"
         offset=".55118"
         stop-color="#f1f195" /><stop
         id="stop54"
         offset=".64386"
         stop-color="#c9bb4f" /><stop
         id="stop56"
         offset=".75714"
         stop-color="#ab881e" /><stop
         id="stop58"
         offset="1"
         stop-color="#f7f9b2" /></linearGradient><linearGradient
       gradientUnits="userSpaceOnUse"
       gradientTransform="matrix(-20.878 71.86 -71.86 -20.878 332.46 437.96)"
       x2="1"
       id="linearGradient2426"><stop
         id="stop80"
         offset="0"
         stop-color="#d3cb5f" /><stop
         id="stop82"
         offset=".12"
         stop-color="#ab881e" /><stop
         id="stop84"
         offset=".24336"
         stop-color="#f2ee96" /><stop
         id="stop86"
         offset=".43288"
         stop-color="#d3cb5f" /><stop
         id="stop88"
         offset=".55118"
         stop-color="#f1f195" /><stop
         id="stop90"
         offset=".64386"
         stop-color="#c9bb4f" /><stop
         id="stop92"
         offset=".75714"
         stop-color="#ab881e" /><stop
         id="stop94"
         offset="1"
         stop-color="#f7f9b2" /></linearGradient><linearGradient
       gradientUnits="userSpaceOnUse"
       gradientTransform="matrix(0 -98.727 98.727 0 303.84 513.34)"
       x2="1"
       id="linearGradient2494"><stop
         id="stop116"
         offset="0"
         stop-color="#d3cb5f" /><stop
         id="stop118"
         offset=".12"
         stop-color="#ab881e" /><stop
         id="stop120"
         offset=".26"
         stop-color="#f2ee96" /><stop
         id="stop122"
         offset=".41"
         stop-color="#d3cb5f" /><stop
         id="stop124"
         offset=".54"
         stop-color="#f1f195" /><stop
         id="stop126"
         offset=".65"
         stop-color="#f7f9b2" /><stop
         id="stop128"
         offset=".75714"
         stop-color="#ab881e" /><stop
         id="stop130"
         offset=".87"
         stop-color="#c9bb4f" /><stop
         id="stop132"
         offset="1"
         stop-color="#f7f9b2" /></linearGradient><linearGradient
       gradientUnits="userSpaceOnUse"
       gradientTransform="matrix(119.52 0 0 119.52 244.08 464.96)"
       x2="1"
       id="linearGradient2528"><stop
         id="stop135"
         offset="0"
         stop-color="#d3cb5f" /><stop
         id="stop137"
         offset=".12"
         stop-color="#ab881e" /><stop
         id="stop139"
         offset=".26"
         stop-color="#f2ee96" /><stop
         id="stop141"
         offset=".41"
         stop-color="#d3cb5f" /><stop
         id="stop143"
         offset=".54"
         stop-color="#f1f195" /><stop
         id="stop145"
         offset=".65"
         stop-color="#f7f9b2" /><stop
         id="stop147"
         offset=".75714"
         stop-color="#ab881e" /><stop
         id="stop149"
         offset=".87"
         stop-color="#c9bb4f" /><stop
         id="stop151"
         offset="1"
         stop-color="#f7f9b2" /></linearGradient><linearGradient
       gradientUnits="userSpaceOnUse"
       gradientTransform="matrix(0 -115.08 115.08 0 303.84 522.24)"
       x2="1"
       id="linearGradient2554"><stop
         id="stop154"
         offset="0"
         stop-color="#1b2c4e" /><stop
         id="stop156"
         offset=".24506"
         stop-color="#2f61b6" /><stop
         id="stop158"
         offset=".48316"
         stop-color="#1b2c4e" /><stop
         id="stop160"
         offset=".76118"
         stop-color="#25519a" /><stop
         id="stop162"
         offset="1"
         stop-color="#1b2c4e" /></linearGradient><linearGradient
       gradientUnits="userSpaceOnUse"
       gradientTransform="matrix(0 -113.14 113.14 0 303.84 521.18)"
       x2="1"
       id="linearGradient2578"><stop
         id="stop165"
         offset="0"
         stop-color="#264ca3" /><stop
         id="stop167"
         offset=".24502"
         stop-color="#264ca3" /><stop
         id="stop169"
         offset=".43168"
         stop-color="#263b79" /><stop
         id="stop171"
         offset="1"
         stop-color="#263b79" /></linearGradient><linearGradient
       gradientUnits="userSpaceOnUse"
       gradientTransform="matrix(0 -23.811 23.811 0 321.3 437.51)"
       x2="1"
       id="linearGradient2750"><stop
         id="stop174"
         offset="0"
         stop-color="#264ca3" /><stop
         id="stop176"
         offset=".45815"
         stop-color="#264ca3" /><stop
         id="stop178"
         offset=".73577"
         stop-color="#263b79" /><stop
         id="stop180"
         offset=".84949"
         stop-color="#263c7c" /><stop
         id="stop182"
         offset="1"
         stop-color="#263c7c" /></linearGradient><linearGradient
       gradientUnits="userSpaceOnUse"
       gradientTransform="matrix(0 -23.811 23.811 0 306.22 437.51)"
       x2="1"
       id="linearGradient2776"><stop
         id="stop185"
         offset="0"
         stop-color="#264ca3" /><stop
         id="stop187"
         offset=".45815"
         stop-color="#264ca3" /><stop
         id="stop189"
         offset=".73577"
         stop-color="#263b79" /><stop
         id="stop191"
         offset=".84949"
         stop-color="#263c7c" /><stop
         id="stop193"
         offset="1"
         stop-color="#263c7c" /></linearGradient><linearGradient
       gradientUnits="userSpaceOnUse"
       gradientTransform="matrix(0 -23.811 23.811 0 292.14 437.51)"
       x2="1"
       id="linearGradient2802"><stop
         id="stop196"
         offset="0"
         stop-color="#264ca3" /><stop
         id="stop198"
         offset=".45815"
         stop-color="#264ca3" /><stop
         id="stop200"
         offset=".73577"
         stop-color="#263b79" /><stop
         id="stop202"
         offset=".84949"
         stop-color="#263c7c" /><stop
         id="stop204"
         offset="1"
         stop-color="#263c7c" /></linearGradient></defs><g
     id="g1137"
     transform="matrix(13.179 0 0 -13.179 -3203.5 6928.4)"><g
       id="g917"><g
         id="g211"
         transform="translate(351.71,476.02)"><path
           id="path209"
           d="m 0,0 c 2.368,-27.254 -19.734,-48.738 -46.989,-51.107 -27.254,-2.369 -51.269,17.805 -53.637,45.059 -2.37,27.256 17.099,45.862 44.353,48.231 27.255,2.369 51.975,-12.398 54.344,-39.652" /></g><g
         id="g215"
         transform="translate(253.05,452.49)"><path
           style="fill:#2f62b6"
           id="path213"
           d="M 0,0 C 0,0 49.586,20.548 95.545,8.305 L 103.203,-0.648 78.396,-19.171 6.92,-19.612 4.34,-9.668 Z" /></g><g
         id="g219"
         transform="translate(253.14,451.46)"><path
           style="fill:#264ca3"
           id="path217"
           d="m 0,0 c 0,0 49.12,19.442 95.545,8.304 l 6.884,-9.02 L 78.396,-19.171 6.92,-19.613 4.25,-8.636 Z" /></g><g
         id="g223"
         transform="translate(253.25,450.16)"><path
           style="fill:#1c2e52"
           id="path221"
           d="M 0,0 C 0,0 49.121,19.442 95.545,8.304 L 101.914,-0.76 58.845,-31.038 6.92,-19.612 3.572,-8.791 Z" /></g><g
         id="g227"
         transform="translate(289.86,443.04)"><path
           style="fill:#d2d2c7"
           id="path225"
           d="M 0,0 -0.06,-1.412 4.528,-0.884 4.527,0.495 Z" /></g><g
         id="g231"
         transform="translate(272.02,489.01)"><path
           style="fill:#babbbc"
           id="path229"
           d="m 0,0 16.377,3.907 1.486,-51.298 -2.062,0.299 -1.643,2.291 -1.362,-1.628 -7.069,1.502 -1.413,0.25 -2.978,0.806 z" /></g><g
         id="g235"
         transform="translate(288.4,492.91)"><path
           style="fill:#ffffff"
           id="path233"
           d="m 0,0 38.559,-4.218 0.242,-26.621 -22.376,0.335 0.074,-8.383 -2.978,-0.22 -0.011,-4.256 -1.69,-0.195 0.011,-1.1 -7.304,-0.64 0.028,-2.848 -3.308,-0.292 z" /></g><g
         id="g239"
         transform="translate(299.91,470.31)"><path
           style="fill:#eb1d27"
           id="path237"
           d="m 0,0 h -0.765 l -0.266,19.69 h 0.765 z" /></g><g
         id="g243"
         transform="translate(297.28,470.38)"><path
           style="fill:#eb1d27"
           id="path241"
           d="m 0,0 h -0.766 l -0.322,19.808 h 0.764 z" /></g><g
         id="g247"
         transform="translate(298.54,470.38)"><path
           style="fill:#eb1d27"
           id="path245"
           d="m 0,0 h -0.766 l -0.265,19.691 h 0.766 z" /></g><g
         id="g251"
         transform="translate(295.95,470.38)"><path
           style="fill:#eb1d27"
           id="path249"
           d="M 0,0 H -0.766 L -1.03,11.922 h 0.764 z" /></g><g
         id="g255"
         transform="translate(294.42,470.38)"><path
           style="fill:#eb1d27"
           id="path253"
           d="M 0,0 H -0.765 L -1.03,12.013 h 0.765 z" /></g><g
         id="g259"
         transform="translate(293.05,470.41)"><path
           style="fill:#eb1d27"
           id="path257"
           d="M 0,0 H -0.765 L -1.03,12.012 h 0.765 z" /></g><g
         id="g263"
         transform="translate(291.67,470.5)"><path
           style="fill:#eb1d27"
           id="path261"
           d="m 0,0 h -0.766 l -0.265,12.013 h 0.765 z" /></g><g
         id="g267"
         transform="translate(290.49,490.81)"><path
           style="fill:#2f62b6"
           id="path265"
           d="M 0,0 5.119,-0.513 5.24,-8.508 0.154,-8.322 Z" /></g><g
         id="g271"
         transform="translate(301.13,491.52)"><path
           style="fill:#d1d3d2"
           id="path269"
           d="m 0,0 0.769,-37.737 3.008,0.231 -0.081,8.394 12.558,0.159 -0.364,27.225 z" /></g><g
         id="g275"
         transform="translate(275.79,453.98)"><path
           style="fill:#5a5c62"
           id="path273"
           d="m 0,0 0.217,-9.636 -1.098,0.417 -0.282,12.445 -0.265,4.127 -0.516,4.281 -0.609,7.261 -0.82,10.331 -0.214,6.663 0.419,0.053 0.372,-9.477 1.983,-23.218 0.22,-3.221 z" /></g><g
         id="g279"
         transform="translate(304.82,462.41)"><path
           style="fill:#ffffff"
           id="path277"
           d="M 0,0 -0.579,22.298 9.629,21.6 9.949,0.146 1.471,-0.01 Z" /></g><g
         id="g283"
         transform="translate(305.97,481.08)"><path
           style="fill:#e6e6e6"
           id="path281"
           d="m 0,0 6.972,-0.419 0.23,-18.104 -6.884,-0.156 z" /></g><g
         id="g287"
         transform="translate(275.42,484.1)"><path
           style="fill:#5a5c62"
           id="path285"
           d="m 0,0 -0.182,6.392 -2.674,-0.56 0.304,-6.515 z" /></g><g
         id="g291"
         transform="translate(273.3,483.05)"><path
           style="fill:#777a7d"
           id="path289"
           d="m 0,0 0.122,-3.91 2.4,0.621 -0.394,3.91 z" /></g><g
         id="g295"
         transform="translate(273.72,478.89)"><path
           style="fill:#777a7d"
           id="path293"
           d="M 0,0 V -3.91 L 2.311,-3.598 2.128,0.434 Z" /></g><g
         id="g299"
         transform="translate(273.96,474.61)"><path
           style="fill:#777a7d"
           id="path297"
           d="M 0,0 0.212,-3.847 2.462,-3.691 2.187,0.28 Z" /></g><g
         id="g303"
         transform="translate(274.45,470.36)"><path
           style="fill:#777a7d"
           id="path301"
           d="M 0,0 0.153,-3.848 2.371,-3.754 2.005,0.124 Z" /></g><g
         id="g307"
         transform="translate(274.88,466.14)"><path
           style="fill:#777a7d"
           id="path305"
           d="M 0,0 0.03,-3.816 H 2.432 L 2.005,0.093 Z" /></g><g
         id="g311"
         transform="translate(275.24,461.86)"><path
           style="fill:#777a7d"
           id="path309"
           d="M 0,0 0.091,-3.784 2.582,-3.879 2.034,0.062 Z" /></g><g
         id="g315"
         transform="translate(280.41,484.66)"><path
           style="fill:#777a7d"
           id="path313"
           d="M 0,0 0.03,-2.729 2.644,-2.264 2.461,0.497 Z" /></g><g
         id="g319"
         transform="translate(280.8,480.26)"><path
           style="fill:#777a7d"
           id="path317"
           d="M 0,0 0.091,-4.623 2.796,-4.282 2.4,0.279 Z" /></g><g
         id="g323"
         transform="translate(281.2,475.38)"><path
           style="fill:#777a7d"
           id="path321"
           d="m 0,0 0.121,-4.282 2.552,0.279 -0.242,4.25 z" /></g><g
         id="g327"
         transform="translate(281.5,470.76)"><path
           style="fill:#777a7d"
           id="path325"
           d="M 0,0 0.183,-4.128 2.826,-4.034 2.401,0.31 Z" /></g><g
         id="g331"
         transform="translate(281.86,466.26)"><path
           style="fill:#777a7d"
           id="path329"
           d="M 0,0 0.212,-4.157 2.705,-4.189 2.4,0.124 Z" /></g><g
         id="g335"
         transform="translate(282.23,461.76)"><path
           style="fill:#777a7d"
           id="path333"
           d="M 0,0 0.242,-4.095 2.735,-4.249 2.371,0 Z" /></g><g
         id="g339"
         transform="translate(280.44,481.93)"><path
           style="fill:#5a5c62"
           id="path337"
           d="M 0,0 2.613,0.465 2.704,-1.302 0.152,-1.644 Z" /></g><g
         id="g343"
         transform="translate(292.98,444.76)"><path
           style="fill:#babbbc"
           id="path341"
           d="M 0,0 -0.061,2.853 12.899,0.93 13.005,-5.01 1.398,-2.606 v 2.358 z" /></g><g
         id="g347"
         transform="translate(292.92,447.61)"><path
           style="fill:#a3a5a7"
           id="path345"
           d="m 0,0 0.146,0.014 9.061,0.763 13.216,-1.738 -9.54,-0.961 z" /></g><g
         id="g351"
         transform="translate(300.22,449.35)"><path
           style="fill:#777a7d"
           id="path349"
           d="M 0,0 0.061,-1.801 7.17,-2.794 v 1.986 z" /></g><g
         id="g355"
         transform="translate(304.59,449.79)"><path
           style="fill:#ebeaeb"
           id="path353"
           d="m 0,0 -4.376,-0.434 7.17,-0.808 4.772,0.496 z" /></g><g
         id="g359"
         transform="translate(307.39,446.56)"><path
           style="fill:#b5b6b8"
           id="path357"
           d="M 0,0 -0.086,2.038 4.772,2.482 4.803,0.527 Z" /></g><g
         id="g363"
         transform="translate(315.4,441.22)"><path
           style="fill:#ebeaeb"
           id="path361"
           d="M 0,0 -0.051,5.438 -9.514,4.476 -9.408,-1.465 Z" /></g><g
         id="g367"
         transform="translate(301.92,449.6)"><path
           style="fill:#777a7d"
           id="path365"
           d="M 0,0 -0.023,4.182 5.128,3.808 5.105,4.592 7.525,4.449 7.566,3.599 14.402,3.087 14.539,-8.803 13.48,-8.386 13.429,-2.948 10.271,-2.513 10.24,-0.559 2.675,0.187 Z" /></g><g
         id="g371"
         transform="translate(304.83,462.45)"><path
           style="fill:#b0b1b2"
           id="path369"
           d="M -0.01,-0.04 14.366572,-0.3990856 14.9716,-9.6060001 6.563,-8.874 l 0.006,0.648 -2.868,0.153 -1.513,-0.18 0.009,-0.319 -2.129,0.14 z" /></g><g
         id="g375"
         transform="translate(329.64,462.37)"><path
           style="fill:#979a9d"
           id="path373"
           d="M 0,0 -4.577,0.087 -12.32,0.233 -24.821,0.04 -10.467,-0.326 Z" /></g><g
         id="g379"
         transform="translate(301.89,453.78)"><path
           style="fill:#777a7d"
           id="path377"
           d="M 0,0 3.027,0.224 5.138,0.087 5.15,-0.374 Z" /></g><g
         id="g383"
         transform="translate(309.44,454.05)"><path
           style="fill:#e9e8db"
           id="path381"
           d="M 0,0 1.894,0.158 1.96,0.171 1.955,-0.477 9.84,-1.083 6.877,-1.362 0.04,-0.85 Z" /></g><g
         id="g387"
         transform="translate(307.03,454.2)"><path
           style="fill:#cdcfce"
           id="path385"
           d="M 0,0 1.512,0.182 4.377,0.026 2.419,-0.152 Z" /></g><g
         id="g391"
         transform="translate(316.32,452.68)"><path
           style="fill:#8d9194"
           id="path389"
           d="M 0,0 0.023,-2.407 3.02,-2.116 3.009,0.303" /></g><g
         id="g395"
         transform="translate(316.35,450.03)"><path
           style="fill:#8d9194"
           id="path393"
           d="M 0,0 3.019,0.235 3.144,-8.888 0.071,-9.244 Z" /></g><g
         id="g399"
         transform="translate(319.18,462.04)"><path
           style="fill:#ffffff"
           id="path397"
           d="M 0,0.0049144 10.467,0.326 10.634,-19.701 0.322,-20.896 Z" /></g><g
         id="g403"
         transform="translate(321.06,441.88)"><path
           style="fill:#d1d3d2"
           id="path401"
           d="M 0,0 -0.003,0.155 -0.244,18.708 7.11,18.925 7.262,0.962" /></g><g
         id="g407"
         transform="translate(322.76,450.55)"><path
           style="fill:#8d9194"
           id="path405"
           d="M 0,0 0.125,-8.826 4.196,-8.392 4.08,0.303 Z" /></g><g
         id="g411"
         transform="translate(316.34,450.56)"><path
           style="fill:#979a9d"
           id="path409"
           d="m 0,0 v -0.529 l 10.704,0.842 0.03,0.465 z" /></g><g
         id="g415"
         transform="translate(286.18,444.2)"><path
           style="fill:#d1d3d2"
           id="path413"
           d="M 0,0 6.807,0.559 8.205,0.31 1.429,-0.357 Z" /></g><g
         id="g419"
         transform="translate(287.71,443.85)"><path
           style="fill:#b0b1b2"
           id="path417"
           d="M 0,0 6.67,0.667 6.669,-0.311 2.142,-0.807 2.157,-0.59 Z" /></g><g
         id="g423"
         transform="translate(291.76,442.2)"><path
           style="fill:#5a5c62"
           id="path421"
           d="M 0,0 V 1.024 L 1.99,1.241 1.974,0.246 Z" /></g><g
         id="g427"
         transform="translate(293.91,443.47)"><path
           style="fill:#5a5c62"
           id="path425"
           d="m 0,0 -0.031,-1.006 0.487,0.047 0.015,1.022 z" /></g><g
         id="g431"
         transform="translate(275.65,457.98)"><path
           style="fill:#777a7d"
           id="path429"
           d="m 0,0 0.353,-13.633 0.798,-0.265 1.671,-0.265 -0.312,10.02 -0.225,0.08 -0.108,3.98 z" /></g><g
         id="g435"
         transform="translate(282.68,457.57)"><path
           style="fill:#777a7d"
           id="path433"
           d="M 0,0 0.071,-4.28 -0.228,-4.47 0.409,-14.815 2.59,-15.056 3.163,-15.177 2.895,-4.77 2.697,-4.68 2.626,-4.571 2.287,-0.169 Z" /></g><g
         id="g439"
         transform="translate(278.1,453.84)"><path
           style="fill:#5a5c62"
           id="path437"
           d="m 0,0 0.376,-10.026 1.931,-0.043 -0.349,9.883 z" /></g><g
         id="g443"
         transform="translate(281.12,453.4)"><path
           style="fill:#5a5c62"
           id="path441"
           d="m 0,0 0.287,-10.286 1.68,-0.301 -0.358,10.35 0.037,0.218 -0.019,0.768 -3.922,0.446 -0.728,-0.218 0.072,-0.776 z" /></g><g
         id="g447"
         transform="translate(285.39,452.98)"><path
           style="fill:#5a5c62"
           id="path445"
           d="M 0,0 0.184,-0.182 0.453,-10.56 0.79,-10.663 2.58,-11.07 3.008,-0.191 0.828,0.054 Z" /></g><g
         id="g451"
         transform="translate(288.7,453.46)"><path
           style="fill:#a3a5a7"
           id="path449"
           d="m 0,0 0.018,-0.711 0.09,-0.183 0.59,0.073 -0.017,1.004 -2.826,0.201 -0.716,-0.11 z" /></g><g
         id="g455"
         transform="translate(275.63,490.56)"><path
           style="fill:#babbbc"
           id="path453"
           d="M 0,0 2.129,-0.162 2.116,-14.387 0.514,-14.229 Z" /></g><g
         id="g459"
         transform="translate(283.13,492.47)"><path
           style="fill:#babbbc"
           id="path457"
           d="M 0,0 2.265,-0.263 2.117,-14.388 2.008,-31.032 0.514,-14.228 Z" /></g><g
         id="g463"
         transform="translate(275.24,490.49)"><path
           style="fill:#5a5c62"
           id="path461"
           d="m 0,0 0.214,-6.663 0.82,-10.331 0.608,-7.26 0.516,-4.283 0.488,-4.125 0.06,-4.003 0.213,-0.093 0.03,0.589 0.638,0.28 L 2.706,-7.097 2.524,-0.086 1.278,-9.517 0.791,-9.424 0.419,0.053 Z" /></g><g
         id="g467"
         transform="translate(279.34,491.64)"><path
           style="fill:#5a5c62"
           id="path465"
           d="m 0,0 0.183,-6.795 2.559,-30.609 0.365,-0.033 -2.377,30.642 2.826,0.65 2.491,-32.514 3.403,-0.217 -0.152,0.745 -2.703,0.187 0.546,0.247 L 6.047,0.652 5.135,-6.361 5.834,-29.91 3.951,-5.802 3.829,0.837 Z" /></g><g
         id="g471"
         transform="translate(332.21,453.78)"><path
           style="fill:#ebeaeb"
           id="path469"
           d="M 0,0 -2.713,-0.075 -2.402,-10.876 0,-10.581 Z" /></g><g
         id="g475"
         transform="translate(332.21,453.78)"><path
           style="fill:#777a7d"
           id="path473"
           d="M 0,0 V 0.152 L -2.493,0.221 V -0.075 Z" /></g><g
         id="g479"
         transform="translate(325.21,478.97)"><path
           style="fill:#2f62b6"
           id="path477"
           d="m 0,0 c 0.083,-2.426 -1.438,-4.375 -3.388,-4.315 -1.971,0.06 -3.681,2.147 -3.766,4.623 C -7.24,2.784 -5.669,4.73 -3.695,4.62 -1.743,4.511 -0.084,2.425 0,0" /></g><g
         id="g483"
         transform="translate(321.58,483.19)"><path
           style="fill:#ffffff"
           id="path481"
           d="M 0,0 -0.028,-0.035 -0.059,0.003 -0.03,0.038 Z" /></g><g
         id="g487"
         transform="translate(321.8,482.62)"><path
           style="fill:#ffffff"
           id="path485"
           d="m 0,0 -0.034,-0.043 -0.038,0.046 0.035,0.043 z" /></g><g
         id="g491"
         transform="translate(322.35,481.7)"><path
           style="fill:#ffffff"
           id="path489"
           d="m 0,0 -0.034,-0.042 -0.037,0.045 0.035,0.044 z" /></g><g
         id="g495"
         transform="translate(321.49,482.33)"><path
           style="fill:#ffffff"
           id="path493"
           d="m 0,0 -0.028,-0.034 -0.031,0.037 0.028,0.035 z" /></g><g
         id="g499"
         transform="translate(321.81,482.11)"><path
           style="fill:#ffffff"
           id="path497"
           d="m 0,0 -0.028,-0.036 -0.031,0.038 0.028,0.035 z" /></g><g
         id="g503"
         transform="translate(321.38,482.71)"><path
           style="fill:#ffffff"
           id="path501"
           d="m 0,0 -0.033,-0.042 -0.038,0.045 0.034,0.044 z" /></g><g
         id="g507"
         transform="translate(320.92,482.37)"><path
           style="fill:#ffffff"
           id="path505"
           d="m 0,0 -0.028,-0.035 -0.03,0.038 0.028,0.034 z" /></g><g
         id="g511"
         transform="translate(321.01,482.29)"><path
           style="fill:#ffffff"
           id="path509"
           d="M 0,0 -0.027,-0.035 -0.058,0.003 -0.03,0.038 Z" /></g><g
         id="g515"
         transform="translate(321.09,482.22)"><path
           style="fill:#ffffff"
           id="path513"
           d="M 0,0 -0.027,-0.034 -0.058,0.003 -0.03,0.038 Z" /></g><g
         id="g519"
         transform="translate(320.97,482.08)"><path
           style="fill:#ffffff"
           id="path517"
           d="M 0,0 -0.028,-0.035 -0.059,0.003 -0.03,0.038 Z" /></g><g
         id="g523"
         transform="translate(320.31,481.52)"><path
           style="fill:#ffffff"
           id="path521"
           d="M 0,0 -0.027,-0.035 -0.058,0.003 -0.03,0.038 Z" /></g><g
         id="g527"
         transform="translate(320.44,481.32)"><path
           style="fill:#ffffff"
           id="path525"
           d="m 0,0 -0.028,-0.035 -0.03,0.038 0.028,0.034 z" /></g><g
         id="g531"
         transform="translate(320.45,478.24)"><path
           style="fill:#ffffff"
           id="path529"
           d="M 0,0 -0.028,-0.035 -0.059,0.003 -0.03,0.037 Z" /></g><g
         id="g535"
         transform="translate(320.5,477.39)"><path
           style="fill:#ffffff"
           id="path533"
           d="m 0,0 -0.034,-0.043 -0.038,0.046 0.034,0.044 z" /></g><g
         id="g539"
         transform="translate(320.12,476.97)"><path
           style="fill:#ffffff"
           id="path537"
           d="m 0,0 -0.029,-0.036 -0.03,0.038 0.028,0.035 z" /></g><g
         id="g543"
         transform="translate(319.66,476.81)"><path
           style="fill:#ffffff"
           id="path541"
           d="m 0,0 -0.034,-0.043 -0.038,0.046 0.035,0.044 z" /></g><g
         id="g547"
         transform="translate(319.55,477.21)"><path
           style="fill:#ffffff"
           id="path545"
           d="m 0,0 -0.034,-0.043 -0.037,0.046 0.034,0.044 z" /></g><g
         id="g551"
         transform="translate(319.51,476.96)"><path
           style="fill:#ffffff"
           id="path549"
           d="M 0,0 -0.028,-0.036 -0.059,0.002 -0.03,0.037 Z" /></g><g
         id="g555"
         transform="translate(319.15,477.18)"><path
           style="fill:#ffffff"
           id="path553"
           d="m 0,0 -0.028,-0.035 -0.031,0.037 0.028,0.035 z" /></g><g
         id="g559"
         transform="translate(320.39,476.43)"><path
           style="fill:#ffffff"
           id="path557"
           d="M 0,0 -0.027,-0.036 -0.058,0.002 -0.03,0.037 Z" /></g><g
         id="g563"
         transform="translate(320.75,476.76)"><path
           style="fill:#ffffff"
           id="path561"
           d="m 0,0 -0.034,-0.043 -0.038,0.046 0.035,0.044 z" /></g><g
         id="g567"
         transform="translate(320.8,476.32)"><path
           style="fill:#ffffff"
           id="path565"
           d="m 0,0 -0.028,-0.036 -0.031,0.037 0.028,0.036 z" /></g><g
         id="g571"
         transform="translate(322.28,476.68)"><path
           style="fill:#ffffff"
           id="path569"
           d="m 0,0 -0.029,-0.035 -0.03,0.037 0.028,0.036 z" /></g><g
         id="g575"
         transform="translate(321.6,476.4)"><path
           style="fill:#ffffff"
           id="path573"
           d="m 0,0 -0.027,-0.035 -0.03,0.037 0.027,0.036 z" /></g><g
         id="g579"
         transform="translate(323.48,475.89)"><path
           style="fill:#ffffff"
           id="path577"
           d="M 0,0 -0.027,-0.034 -0.058,0.002 -0.03,0.037 Z" /></g><g
         id="g583"
         transform="translate(323.57,477.6)"><path
           style="fill:#ffffff"
           id="path581"
           d="m 0,0 -0.033,-0.042 -0.038,0.045 0.035,0.044 z" /></g><g
         id="g587"
         transform="translate(323.29,477.37)"><path
           style="fill:#ffffff"
           id="path585"
           d="M 0,0 -0.027,-0.035 -0.058,0.002 -0.03,0.038 Z" /></g><g
         id="g591"
         transform="translate(323.57,477.29)"><path
           style="fill:#ffffff"
           id="path589"
           d="m 0,0 -0.035,-0.043 -0.037,0.045 0.034,0.044 z" /></g><g
         id="g595"
         transform="translate(323.31,476.87)"><path
           style="fill:#ffffff"
           id="path593"
           d="m 0,0 -0.028,-0.035 -0.03,0.037 0.028,0.034 z" /></g><g
         id="g599"
         transform="translate(324,477.82)"><path
           style="fill:#ffffff"
           id="path597"
           d="m 0,0 -0.028,-0.034 -0.03,0.037 0.027,0.035 z" /></g><g
         id="g603"
         transform="translate(324.08,477.6)"><path
           style="fill:#ffffff"
           id="path601"
           d="M 0,0 -0.034,-0.043 -0.07,0.002 -0.037,0.046 Z" /></g><g
         id="g607"
         transform="translate(324.58,477.32)"><path
           style="fill:#ffffff"
           id="path605"
           d="M 0,0 -0.033,-0.043 -0.07,0.002 -0.036,0.046 Z" /></g><g
         id="g611"
         transform="translate(324.09,476.88)"><path
           style="fill:#ffffff"
           id="path609"
           d="m 0,0 -0.028,-0.035 -0.03,0.037 0.027,0.035 z" /></g><g
         id="g615"
         transform="translate(324.4,477.24)"><path
           style="fill:#ffffff"
           id="path613"
           d="m 0,0 -0.027,-0.035 -0.03,0.037 0.027,0.035 z" /></g><g
         id="g619"
         transform="translate(324.36,476.66)"><path
           style="fill:#ffffff"
           id="path617"
           d="m 0,0 -0.027,-0.035 -0.03,0.037 0.027,0.035 z" /></g><g
         id="g623"
         transform="translate(322.22,482.7)"><path
           style="fill:#ffffff"
           id="path621"
           d="M 0,0 0.036,0.043 0.043,0.139 0.062,0.041 0.1,-0.008 0.177,-0.026 0.1,-0.039 0.065,-0.082 0.055,-0.18 0.038,-0.081 10e-4,-0.032 -0.073,-0.013 Z" /></g><g
         id="g627"
         transform="translate(320.44,475.92)"><path
           style="fill:#ffffff"
           id="path625"
           d="M 0,0 0.036,0.044 0.043,0.14 0.063,0.042 0.1,-0.007 0.179,-0.023 0.101,-0.038 0.065,-0.082 0.055,-0.18 0.038,-0.081 0.001,-0.033 -0.074,-0.014 Z" /></g><g
         id="g631"
         transform="translate(324.09,476.67)"><path
           style="fill:#ffffff"
           id="path629"
           d="M 0,0 0.037,0.044 0.043,0.139 0.062,0.042 0.098,-0.006 0.176,-0.023 0.099,-0.037 0.064,-0.081 0.054,-0.178 0.038,-0.08 10e-4,-0.032 -0.073,-0.014 Z" /></g><g
         id="g635"
         transform="translate(324.35,477.64)"><path
           style="fill:#ffffff"
           id="path633"
           d="M 0,0 0.036,0.044 0.043,0.139 0.061,0.042 0.097,-0.006 0.176,-0.023 0.098,-0.037 0.063,-0.081 0.054,-0.178 0.037,-0.079 10e-4,-0.031 -0.073,-0.013 Z" /></g><g
         id="g639"
         transform="translate(320.61,481.44)"><path
           style="fill:#ffffff"
           id="path637"
           d="M 0,0 0.036,0.044 0.043,0.14 0.063,0.042 0.1,-0.007 0.179,-0.025 0.1,-0.038 0.065,-0.082 0.055,-0.18 l -0.018,0.1 -0.036,0.049 -0.077,0.019 z" /></g><g
         id="g643"
         transform="translate(320.45,479.37)"><path
           style="fill:#ffffff"
           id="path641"
           d="M 0,0 C 0.286,-0.59 0.609,-1.026 0.872,-1.437 1.106,-1.802 1.539,-1.996 1.394,-2.16 1.231,-2.344 0.789,-1.486 0.789,-1.486 0.501,-1.062 0.221,-0.612 -0.067,-0.027 Z" /></g><g
         id="g647"
         transform="translate(317.66,477.96)"><path
           style="fill:#eb1d27"
           id="path645"
           d="M 0,0 C 1.264,1.004 3.49,1.587 5.289,2.412 6.645,3.034 7.831,3.833 8.442,4.979 6.935,0.807 2.228,1.517 0.095,-0.043 Z" /></g><g
         id="g651"
         transform="translate(320.6,479.98)"><path
           style="fill:#ffffff"
           id="path649"
           d="m 0,0 0.642,-0.029 0.509,-1.462 0.158,-0.198 -0.832,0.033 0.146,0.186 -0.06,0.178 -0.462,0.02 -0.04,-0.2 0.116,-0.171 -0.437,0.018 0.146,0.185 0.253,1.266 z M 0.473,-1.035 0.266,-0.441 0.15,-1.022 Z" /></g><g
         id="g655"
         transform="translate(323.56,479.84)"><path
           style="fill:#ffffff"
           id="path653"
           d="m 0,0 0.656,-0.03 0.5,-1.45 0.155,-0.197 -0.819,0.035 0.145,0.184 -0.06,0.177 -0.453,0.018 -0.04,-0.197 0.114,-0.171 -0.43,0.018 0.145,0.185 0.248,1.254 z M 0.489,-1.028 0.287,-0.437 0.172,-1.014 Z" /></g><g
         id="g659"
         transform="translate(319.76,479)"><path
           style="fill:#ffffff"
           id="path657"
           d="M 0,0 -0.029,0.854 -0.17,1.028 0.278,1.007 0.15,0.847 l 0.045,-1.281 0.16,-0.2 -0.588,0.024 -0.544,1.087 0.029,-0.873 0.138,-0.199 -0.47,0.02 0.149,0.186 -0.043,1.286 -0.141,0.173 0.588,-0.025 z" /></g><g
         id="g663"
         transform="translate(323.09,479.45)"><path
           style="fill:#ffffff"
           id="path661"
           d="m 0,0 -0.032,0.507 -0.13,-0.112 c -0.196,0.093 -0.419,0.1 -0.572,0.015 -0.144,-0.081 -0.295,-0.256 -0.267,-0.518 0.027,-0.26 0.192,-0.368 0.34,-0.457 0.19,-0.113 0.394,-0.158 0.396,-0.297 l -0.207,-0.14 c -0.082,0.007 -0.356,0.043 -0.506,0.261 l 0.045,-0.535 0.148,0.133 c 0.187,-0.089 0.412,-0.132 0.615,-0.057 0.202,0.076 0.41,0.282 0.278,0.663 -0.056,0.164 -0.202,0.269 -0.288,0.317 l -0.387,0.216 C -0.646,0.05 -0.642,0.209 -0.459,0.234 -0.292,0.255 -0.053,0.075 0,0" /></g><g
         id="g667"
         transform="translate(318.76,475.39)"><path
           style="fill:#eb1d27"
           id="path665"
           d="M 0,0 C 2.476,3.19 6.215,4.528 7.348,7.548 6.706,4.591 2.721,3.105 -0.001,-0.154 Z" /></g><g
         id="g671"
         transform="translate(320.38,479.34)"><path
           style="fill:#ffffff"
           id="path669"
           d="M 0,0 -0.098,0.203 C -0.842,1.779 -0.796,3.35 0.475,2.599 1.545,1.967 2.599,0.298 3.039,-0.87 3.242,-1.41 3.808,-3.514 2.181,-2.612 L 2.177,-2.599 C 3.715,-3.433 3.386,-1.449 2.527,0.1 2.038,0.98 1.413,1.726 1.021,2.091 -0.29,3.312 -1.044,2.644 -0.069,0.328 -0.025,0.223 0.021,0.123 0.066,0.028 Z" /></g><g
         id="g675"
         transform="translate(290.99,483.39)"><path
           style="fill:#ffffff"
           id="path673"
           d="M 0,0 0.216,0.07 V 0.298 L 0.35,0.114 0.566,0.184 0.432,0 0.566,-0.183 0.35,-0.114 0.216,-0.297 v 0.227 z" /></g><g
         id="g679"
         transform="translate(290.94,484.69)"><path
           style="fill:#ffffff"
           id="path677"
           d="M 0,0 0.215,0.069 V 0.297 L 0.349,0.113 0.565,0.183 0.431,0 0.565,-0.184 0.349,-0.114 0.215,-0.298 v 0.228 z" /></g><g
         id="g683"
         transform="translate(290.88,485.99)"><path
           style="fill:#ffffff"
           id="path681"
           d="M 0,0 0.216,0.07 V 0.297 L 0.35,0.114 0.566,0.184 0.432,0 0.566,-0.183 0.35,-0.114 0.216,-0.297 v 0.227 z" /></g><g
         id="g687"
         transform="translate(290.82,487.3)"><path
           style="fill:#ffffff"
           id="path685"
           d="M 0,0 0.215,0.069 V 0.297 L 0.349,0.113 0.565,0.183 0.431,0 0.565,-0.184 0.349,-0.114 0.215,-0.298 v 0.228 z" /></g><g
         id="g691"
         transform="translate(290.77,488.6)"><path
           style="fill:#ffffff"
           id="path689"
           d="M 0,0 0.215,0.07 V 0.297 L 0.35,0.114 0.565,0.183 0.431,0 0.565,-0.184 0.35,-0.114 0.215,-0.298 v 0.228 z" /></g><g
         id="g695"
         transform="translate(290.71,489.9)"><path
           style="fill:#ffffff"
           id="path693"
           d="M 0,0 0.216,0.07 V 0.297 L 0.35,0.114 0.566,0.183 0.432,0 0.566,-0.184 0.35,-0.114 0.216,-0.297 v 0.227 z" /></g><g
         id="g699"
         transform="translate(291.42,483.98)"><path
           style="fill:#ffffff"
           id="path697"
           d="M 0,0 0.216,0.07 V 0.297 L 0.35,0.114 0.566,0.183 0.432,0 0.566,-0.183 0.35,-0.114 0.216,-0.297 v 0.227 z" /></g><g
         id="g703"
         transform="translate(291.42,485.29)"><path
           style="fill:#ffffff"
           id="path701"
           d="M 0,0 0.216,0.07 V 0.297 L 0.35,0.114 0.566,0.183 0.432,0 0.566,-0.183 0.35,-0.114 0.216,-0.297 v 0.227 z" /></g><g
         id="g707"
         transform="translate(291.42,486.59)"><path
           style="fill:#ffffff"
           id="path705"
           d="M 0,0 0.216,0.07 V 0.298 L 0.35,0.114 0.566,0.184 0.432,0 0.566,-0.183 0.35,-0.113 0.216,-0.297 v 0.228 z" /></g><g
         id="g711"
         transform="translate(291.42,487.89)"><path
           style="fill:#ffffff"
           id="path709"
           d="M 0,0 0.216,0.07 V 0.297 L 0.35,0.114 0.566,0.183 0.432,0 0.566,-0.183 0.35,-0.114 0.216,-0.297 v 0.227 z" /></g><g
         id="g715"
         transform="translate(291.42,489.19)"><path
           style="fill:#ffffff"
           id="path713"
           d="M 0,0 0.216,0.07 V 0.298 L 0.35,0.114 0.566,0.184 0.432,0 0.566,-0.183 0.35,-0.114 0.216,-0.297 v 0.227 z" /></g><g
         id="g719"
         transform="translate(292.37,483.95)"><path
           style="fill:#ffffff"
           id="path717"
           d="M 0,0 0.216,0.07 V 0.297 L 0.349,0.114 0.566,0.183 0.432,0 0.566,-0.183 0.349,-0.114 0.216,-0.297 v 0.227 z" /></g><g
         id="g723"
         transform="translate(292.37,485.25)"><path
           style="fill:#ffffff"
           id="path721"
           d="M 0,0 0.216,0.069 V 0.297 L 0.349,0.113 0.566,0.183 0.432,0 0.566,-0.184 0.349,-0.114 0.216,-0.298 v 0.228 z" /></g><g
         id="g727"
         transform="translate(292.37,486.55)"><path
           style="fill:#ffffff"
           id="path725"
           d="M 0,0 0.216,0.07 V 0.297 L 0.349,0.114 0.566,0.184 0.432,0 0.566,-0.183 0.349,-0.114 0.216,-0.297 v 0.227 z" /></g><g
         id="g731"
         transform="translate(292.37,487.86)"><path
           style="fill:#ffffff"
           id="path729"
           d="M 0,0 0.216,0.07 V 0.298 L 0.349,0.114 0.566,0.184 0.432,0 0.566,-0.183 0.349,-0.114 0.216,-0.297 v 0.227 z" /></g><g
         id="g735"
         transform="translate(292.37,489.16)"><path
           style="fill:#ffffff"
           id="path733"
           d="M 0,0 0.216,0.07 V 0.298 L 0.349,0.114 0.566,0.184 0.432,0 0.566,-0.183 0.349,-0.114 0.216,-0.297 v 0.227 z" /></g><g
         id="g739"
         transform="translate(293.34,483.81)"><path
           style="fill:#ffffff"
           id="path737"
           d="M 0,0 0.216,0.07 V 0.297 L 0.35,0.114 0.566,0.183 0.432,0 0.566,-0.184 0.35,-0.114 0.216,-0.298 v 0.228 z" /></g><g
         id="g743"
         transform="translate(293.34,485.11)"><path
           style="fill:#ffffff"
           id="path741"
           d="M 0,0 0.216,0.07 V 0.297 L 0.35,0.114 0.566,0.183 0.432,0 0.566,-0.184 0.35,-0.114 0.216,-0.297 v 0.227 z" /></g><g
         id="g747"
         transform="translate(293.34,486.42)"><path
           style="fill:#ffffff"
           id="path745"
           d="M 0,0 0.216,0.07 V 0.298 L 0.35,0.114 0.566,0.184 0.432,0 0.566,-0.183 0.35,-0.113 0.216,-0.297 v 0.228 z" /></g><g
         id="g751"
         transform="translate(293.34,487.72)"><path
           style="fill:#ffffff"
           id="path749"
           d="M 0,0 0.216,0.07 V 0.297 L 0.35,0.114 0.566,0.183 0.432,0 0.566,-0.183 0.35,-0.114 0.216,-0.297 v 0.227 z" /></g><g
         id="g755"
         transform="translate(293.34,489.02)"><path
           style="fill:#ffffff"
           id="path753"
           d="M 0,0 0.216,0.07 V 0.298 L 0.35,0.114 0.566,0.184 0.432,0 0.566,-0.183 0.35,-0.114 0.216,-0.297 v 0.227 z" /></g><g
         id="g759"
         transform="translate(294.4,483.81)"><path
           style="fill:#ffffff"
           id="path757"
           d="M 0,0 0.215,0.07 V 0.297 L 0.35,0.114 0.565,0.183 0.431,0 0.565,-0.184 0.35,-0.114 0.215,-0.298 v 0.228 z" /></g><g
         id="g763"
         transform="translate(294.4,485.11)"><path
           style="fill:#ffffff"
           id="path761"
           d="M 0,0 0.215,0.07 V 0.297 L 0.35,0.114 0.565,0.183 0.431,0 0.565,-0.184 0.35,-0.114 0.215,-0.297 v 0.227 z" /></g><g
         id="g767"
         transform="translate(294.4,486.42)"><path
           style="fill:#ffffff"
           id="path765"
           d="M 0,0 0.215,0.07 V 0.298 L 0.35,0.114 0.565,0.184 0.431,0 0.565,-0.183 0.35,-0.113 0.215,-0.297 v 0.228 z" /></g><g
         id="g771"
         transform="translate(294.4,487.72)"><path
           style="fill:#ffffff"
           id="path769"
           d="M 0,0 0.215,0.07 V 0.297 L 0.35,0.114 0.565,0.183 0.431,0 0.565,-0.183 0.35,-0.114 0.215,-0.297 v 0.227 z" /></g><g
         id="g775"
         transform="translate(294.4,489.02)"><path
           style="fill:#ffffff"
           id="path773"
           d="M 0,0 0.215,0.07 V 0.298 L 0.35,0.114 0.565,0.184 0.431,0 0.565,-0.183 0.35,-0.114 0.215,-0.297 v 0.227 z" /></g><g
         id="g779"
         transform="translate(291.94,483.39)"><path
           style="fill:#ffffff"
           id="path777"
           d="M 0,0 0.215,0.07 V 0.298 L 0.35,0.114 0.565,0.184 0.431,0 0.565,-0.183 0.35,-0.114 0.215,-0.297 v 0.227 z" /></g><g
         id="g783"
         transform="translate(291.91,484.69)"><path
           style="fill:#ffffff"
           id="path781"
           d="M 0,0 0.216,0.069 V 0.297 L 0.35,0.113 0.565,0.183 0.431,0 0.565,-0.184 0.35,-0.114 0.216,-0.298 v 0.228 z" /></g><g
         id="g787"
         transform="translate(291.89,485.99)"><path
           style="fill:#ffffff"
           id="path785"
           d="M 0,0 0.216,0.07 V 0.297 L 0.35,0.114 0.566,0.184 0.432,0 0.566,-0.183 0.35,-0.114 0.216,-0.297 v 0.227 z" /></g><g
         id="g791"
         transform="translate(291.86,487.3)"><path
           style="fill:#ffffff"
           id="path789"
           d="M 0,0 0.215,0.069 V 0.297 L 0.349,0.113 0.565,0.183 0.431,0 0.565,-0.184 0.349,-0.114 0.215,-0.298 v 0.228 z" /></g><g
         id="g795"
         transform="translate(291.83,488.6)"><path
           style="fill:#ffffff"
           id="path793"
           d="M 0,0 0.215,0.07 V 0.297 L 0.349,0.114 0.565,0.183 0.431,0 0.565,-0.184 0.349,-0.114 0.215,-0.298 v 0.228 z" /></g><g
         id="g799"
         transform="translate(291.81,489.9)"><path
           style="fill:#ffffff"
           id="path797"
           d="M 0,0 0.215,0.07 V 0.297 L 0.35,0.114 0.565,0.183 0.431,0 0.565,-0.184 0.35,-0.114 0.215,-0.297 v 0.227 z" /></g><g
         id="g803"
         transform="translate(292.92,483.21)"><path
           style="fill:#ffffff"
           id="path801"
           d="M 0,0 0.215,0.07 V 0.297 L 0.349,0.114 0.565,0.183 0.431,0 0.565,-0.184 0.349,-0.114 0.215,-0.298 v 0.228 z" /></g><g
         id="g807"
         transform="translate(292.89,484.55)"><path
           style="fill:#ffffff"
           id="path805"
           d="M 0,0 0.216,0.069 V 0.297 L 0.349,0.113 0.565,0.183 0.432,0 0.565,-0.184 0.349,-0.114 0.216,-0.298 v 0.228 z" /></g><g
         id="g811"
         transform="translate(292.86,485.88)"><path
           style="fill:#ffffff"
           id="path809"
           d="M 0,0 0.216,0.07 V 0.298 L 0.35,0.114 0.566,0.184 0.432,0 0.566,-0.183 0.35,-0.114 0.216,-0.297 v 0.227 z" /></g><g
         id="g815"
         transform="translate(292.83,487.22)"><path
           style="fill:#ffffff"
           id="path813"
           d="M 0,0 0.216,0.07 V 0.298 L 0.35,0.114 0.566,0.184 0.432,0 0.566,-0.183 0.35,-0.114 0.216,-0.297 v 0.227 z" /></g><g
         id="g819"
         transform="translate(292.8,488.56)"><path
           style="fill:#ffffff"
           id="path817"
           d="M 0,0 0.216,0.07 V 0.297 L 0.35,0.114 0.566,0.183 0.432,0 0.566,-0.184 0.35,-0.114 0.216,-0.297 v 0.227 z" /></g><g
         id="g823"
         transform="translate(292.77,489.9)"><path
           style="fill:#ffffff"
           id="path821"
           d="M 0,0 0.216,0.07 V 0.297 L 0.35,0.114 0.566,0.183 0.432,0 0.566,-0.184 0.35,-0.114 0.216,-0.297 v 0.227 z" /></g><g
         id="g827"
         transform="translate(293.98,483.07)"><path
           style="fill:#ffffff"
           id="path825"
           d="M 0,0 0.216,0.07 V 0.298 L 0.35,0.114 0.566,0.184 0.432,0 0.566,-0.183 0.35,-0.113 0.216,-0.297 v 0.228 z" /></g><g
         id="g831"
         transform="translate(293.95,484.41)"><path
           style="fill:#ffffff"
           id="path829"
           d="M 0,0 0.215,0.07 V 0.298 L 0.349,0.114 0.565,0.184 0.431,0 0.565,-0.183 0.349,-0.114 0.215,-0.297 v 0.227 z" /></g><g
         id="g835"
         transform="translate(293.92,485.75)"><path
           style="fill:#ffffff"
           id="path833"
           d="M 0,0 0.216,0.07 V 0.297 L 0.35,0.114 0.565,0.184 0.431,0 0.565,-0.183 0.35,-0.114 0.216,-0.297 v 0.227 z" /></g><g
         id="g839"
         transform="translate(293.89,487.09)"><path
           style="fill:#ffffff"
           id="path837"
           d="M 0,0 0.216,0.07 V 0.297 L 0.35,0.114 0.565,0.183 0.431,0 0.565,-0.184 0.35,-0.114 0.216,-0.298 v 0.228 z" /></g><g
         id="g843"
         transform="translate(293.86,488.43)"><path
           style="fill:#ffffff"
           id="path841"
           d="M 0,0 0.216,0.07 V 0.297 L 0.35,0.114 0.565,0.183 0.432,0 0.565,-0.184 0.35,-0.114 0.216,-0.298 v 0.228 z" /></g><g
         id="g847"
         transform="translate(293.83,489.77)"><path
           style="fill:#ffffff"
           id="path845"
           d="M 0,0 0.216,0.069 V 0.297 L 0.35,0.114 0.566,0.183 0.432,0 0.566,-0.184 0.35,-0.114 0.216,-0.298 v 0.228 z" /></g><g
         id="g851"
         transform="translate(294.78,483.09)"><path
           style="fill:#ffffff"
           id="path849"
           d="M 0,0 0.216,0.07 V 0.297 L 0.35,0.114 0.566,0.183 0.432,0 0.566,-0.183 0.35,-0.114 0.216,-0.297 v 0.227 z" /></g><g
         id="g855"
         transform="translate(294.78,484.37)"><path
           style="fill:#ffffff"
           id="path853"
           d="M 0,0 0.216,0.07 V 0.297 L 0.35,0.114 0.566,0.183 0.432,0 0.566,-0.184 0.35,-0.114 0.216,-0.298 v 0.228 z" /></g><g
         id="g859"
         transform="translate(294.78,485.64)"><path
           style="fill:#ffffff"
           id="path857"
           d="M 0,0 0.216,0.07 V 0.297 L 0.35,0.114 0.566,0.183 0.432,0 0.566,-0.184 0.35,-0.114 0.216,-0.298 v 0.228 z" /></g><g
         id="g863"
         transform="translate(294.78,486.92)"><path
           style="fill:#ffffff"
           id="path861"
           d="M 0,0 0.216,0.069 V 0.297 L 0.35,0.113 0.566,0.183 0.432,0 0.566,-0.184 0.35,-0.114 0.216,-0.298 v 0.228 z" /></g><g
         id="g867"
         transform="translate(294.78,488.19)"><path
           style="fill:#ffffff"
           id="path865"
           d="M 0,0 0.216,0.07 V 0.298 L 0.35,0.114 0.566,0.184 0.432,0 0.566,-0.183 0.35,-0.114 0.216,-0.297 v 0.227 z" /></g><g
         id="g871"
         transform="translate(294.78,489.47)"><path
           style="fill:#ffffff"
           id="path869"
           d="M 0,0 0.216,0.07 V 0.298 L 0.35,0.114 0.566,0.184 0.432,0 0.566,-0.183 0.35,-0.114 0.216,-0.297 v 0.227 z" /></g><g
         id="g875"
         transform="translate(281.5,497.62)"><path
           style="fill:#babbbc"
           id="path873"
           d="M 0,0 0.259,-0.697 0.955,-0.955 0.259,-1.212 0,-1.909 l -0.258,0.697 -0.695,0.257 0.695,0.258 z" /></g><g
         id="g879"
         transform="translate(287.34,501.99)"><path
           style="fill:#8d9194"
           id="path877"
           d="M 0,0 0.159,-0.428 0.587,-0.587 0.159,-0.746 0,-1.174 l -0.158,0.428 -0.428,0.159 0.428,0.159 z" /></g><g
         id="g883"
         transform="translate(315.02,494.75)"><path
           style="fill:#8d9194"
           id="path881"
           d="M 0,0 0.158,-0.429 0.587,-0.587 0.158,-0.747 0,-1.175 l -0.158,0.428 -0.428,0.16 0.428,0.158 z" /></g><g
         id="g887"
         transform="translate(333.45,477.45)"><path
           style="fill:#8d9194"
           id="path885"
           d="M 0,0 0.16,-0.428 0.589,-0.586 0.16,-0.746 0,-1.174 l -0.158,0.428 -0.428,0.16 0.428,0.158 z" /></g><g
         id="g891"
         transform="translate(334.7,489.24)"><path
           style="fill:#8d9194"
           id="path889"
           d="M 0,0 0.159,-0.429 0.587,-0.587 0.159,-0.746 0,-1.175 l -0.159,0.429 -0.429,0.159 0.429,0.158 z" /></g><g
         id="g895"
         transform="translate(341.52,468.34)"><path
           style="fill:#8d9194"
           id="path893"
           d="M 0,0 0.159,-0.428 0.588,-0.586 0.159,-0.745 0,-1.174 l -0.158,0.429 -0.428,0.159 0.428,0.158 z" /></g><g
         id="g899"
         transform="translate(343.42,479.8)"><path
           style="fill:#8d9194"
           id="path897"
           d="M 0,0 0.158,-0.428 0.586,-0.587 0.158,-0.746 0,-1.174 l -0.159,0.428 -0.428,0.159 0.428,0.159 z" /></g><g
         id="g903"
         transform="translate(268.2,470.12)"><path
           style="fill:#8d9194"
           id="path901"
           d="M 0,0 0.159,-0.428 0.588,-0.586 0.159,-0.745 0,-1.174 l -0.158,0.429 -0.428,0.159 0.428,0.158 z" /></g><g
         id="g907"
         transform="translate(319.31,502.36)"><path
           style="fill:#babbbc"
           id="path905"
           d="M 0,0 0.258,-0.697 0.954,-0.954 0.258,-1.212 0,-1.908 l -0.258,0.696 -0.697,0.258 0.697,0.257 z" /></g><g
         id="g911"
         transform="translate(298.02,504.19)"><path
           style="fill:#babbbc"
           id="path909"
           d="M 0,0 0.258,-0.697 0.953,-0.955 0.258,-1.212 0,-1.908 l -0.259,0.696 -0.696,0.257 0.696,0.258 z" /></g><g
         id="g915"
         transform="translate(333.75,491.74)"><path
           style="fill:#babbbc"
           id="path913"
           d="M 0,0 0.259,-0.696 0.954,-0.953 0.259,-1.211 0,-1.907 l -0.258,0.696 -0.695,0.258 0.695,0.257 z" /></g></g><path
       fill="url(#linearGradient2134)"
       id="path919"
       d="m290.36 449.13 2.104-27.586 14.112-2.952c0.765 0.044 1.524 0.108 2.281 0.189l0.491 0.055c18.778 2.221 34.337 15.723 39.288 33.834-10.681-2.598-35.467-6.349-45.655-1.608-2.752 1.282-4.93 1.753-6.646 1.753-4.795 0-5.975-3.685-5.975-3.685" /><g
       transform="translate(290.19 444.49)"
       id="g925"><path
         fill="#eb1e29"
         id="path923"
         d="m0 0s3.752 7.349 12.75 2.798c4.744-2.4 14.637-2.234 24.429-1.255 13.171 1.318 26.158 4.108 26.158 4.108l0.179 4.464s-13.41-2.317-26.957-3.336c-9.159-0.69-18.381-0.787-23.561 0.825-10.607 3.3-12.793-1.307-12.79-2.789z" /></g><path
       id="path929"
       fill="url(#linearGradient2190)"
       d="m288.74 440.79-0.208-4.814s3.882 10.524 12.75 2.797c6.571-5.724 28.674-2.051 41.382 0.678 1.087 1.648 2.07 3.37 2.942 5.158-11.645-2.484-35.764-6.69-44.076-1.03-2.907 1.979-5.202 2.708-6.995 2.708-4.426 1e-3 -5.797-4.443-5.795-5.497" /><path
       id="path931"
       fill="url(#linearGradient2212)"
       d="m286.99 431.82-0.208-4.815s3.881 10.524 12.751 2.798c5.373-4.682 21.132-3.078 33.647-0.846 2.118 1.726 4.083 3.638 5.869 5.708-12.53-2.396-31.978-5.021-39.27-0.056-2.906 1.978-5.201 2.707-6.993 2.707-4.427 2e-3 -5.798-4.442-5.796-5.496" /><g
       id="g943"
       transform="translate(305.98 442.79)"><path
         fill="#ab1b2b"
         id="path941"
         d="m0 0s0.687 2.482-5.674 2.049c-6.361-0.435-8.05-0.482-8.05-0.482s-1.666-0.239-2.215 0.303l0.326 4.472c0.548-0.541 2.113-0.411 2.113-0.411s1.688 0.047 8.048 0.48c6.362 0.435 5.675-2.047 5.675-2.047z" /></g><path
       fill="url(#linearGradient2284)"
       id="path947"
       d="m269.68 445.74-8.721 1.329c6.68-15.967 22.055-27.544 40.496-28.489 2.355-0.122 4.68-0.064 6.958 0.159 0.175 14.988-2.249 28.967-2.249 28.967-7.826-5.948-36.484-1.966-36.484-1.966" /><g
       id="g985"><g
         id="g951"
         transform="translate(301.25,442.84)"><path
           style="fill:#ffffff"
           id="path949"
           d="m 0,0 0.972,-2.174 2.369,0.252 -1.768,-1.596 0.972,-2.174 -2.064,1.188 -1.768,-1.597 0.493,2.33 -2.066,1.187 2.369,0.254 z" /></g><g
         id="g955"
         transform="translate(296.61,435.51)"><path
           style="fill:#ffffff"
           id="path953"
           d="M 0,0 0.971,-2.173 3.34,-1.921 1.572,-3.518 2.545,-5.692 0.48,-4.503 -1.287,-6.1 l 0.492,2.33 -2.065,1.187 2.369,0.254 z" /></g><g
         id="g959"
         transform="translate(285.04,434.05)"><path
           style="fill:#ffffff"
           id="path957"
           d="m 0,0 0.972,-2.174 2.368,0.252 -1.767,-1.596 0.972,-2.174 -2.064,1.188 -1.768,-1.597 0.492,2.33 -2.065,1.187 2.369,0.254 z" /></g><g
         id="g963"
         transform="translate(278.56,442.83)"><path
           style="fill:#ffffff"
           id="path961"
           d="m 0,0 0.638,-2.294 2.38,-0.102 -1.985,-1.316 0.638,-2.294 -1.864,1.48 -1.985,-1.316 0.831,2.232 -1.864,1.48 2.379,-0.101 z" /></g><g
         id="g967"
         transform="translate(267.53,444.32)"><path
           style="fill:#ffffff"
           id="path965"
           d="m 0,0 0.419,-2.344 2.359,-0.325 -2.1,-1.124 0.419,-2.344 -1.717,1.65 -2.099,-1.123 1.038,2.143 -1.717,1.651 2.36,-0.326 z" /></g><g
         id="g971"
         transform="translate(302.8,429.44)"><path
           style="fill:#ffffff"
           id="path969"
           d="m 0,0 1.06,-2.133 2.355,0.349 -1.7,-1.667 1.06,-2.133 -2.111,1.104 -1.7,-1.669 0.396,2.349 -2.111,1.103 2.355,0.348 z" /></g><g
         id="g975"
         transform="translate(272.9,437.24)"><path
           style="fill:#ffffff"
           id="path973"
           d="M 0,0 0.511,-2.326 2.882,-2.56 0.826,-3.764 1.338,-6.09 l -1.781,1.582 -2.054,-1.205 0.954,2.182 -1.781,1.58 2.37,-0.231 z" /></g><g
         id="g979"
         transform="translate(290.9,428.43)"><path
           style="fill:#ffffff"
           id="path977"
           d="m 0,0 1.059,-2.133 2.356,0.35 -1.7,-1.667 1.059,-2.132 -2.111,1.102 -1.7,-1.668 0.396,2.349 -2.111,1.103 2.356,0.348 z" /></g><g
         id="g983"
         transform="translate(289.71,441.63)"><path
           style="fill:#ffffff"
           id="path981"
           d="m 0,0 0.761,-2.257 2.381,0.026 -1.91,-1.421 0.761,-2.256 -1.942,1.378 -1.912,-1.421 0.711,2.273 -1.941,1.379 2.38,0.026 z" /></g></g><path
       id="path987"
       fill="url(#linearGradient2360)"
       d="m302.86 510.38c-2.021-41.978-14.571-69.648-21.586-74.605-8.542-6.035-15.246 3.426-15.246 3.426-3.579-15.057 20.142-19.332 20.142-19.332 18.675 10.157 17.152 90.848 17.152 90.848z" /><path
       id="path989"
       fill="url(#linearGradient2394)"
       d="m303.32 510.72s0.029-1.589 0.029-4.35c0 2.761-0.029 4.35-0.029 4.35zm-0.462-0.336c-2.021-41.977-14.571-69.648-21.586-74.605-2.066-1.46-4.024-2.013-5.806-2.013-5.586 0-9.44 5.439-9.44 5.439-0.251-1.056-0.368-2.059-0.368-3.012 0-12.625 20.511-16.32 20.511-16.32s-20.511 3.695-20.511 16.32c0 0.953 0.117 1.956 0.368 3.012 0 0 3.854-5.439 9.44-5.439 1.782 0 3.74 0.553 5.806 2.013 7.015 4.957 19.565 32.628 21.586 74.605l0.462 0.336zm0.491-4.014m-17.18-86.497c16.053 8.731 17.18 69.583 17.18 86.497 0-16.914-1.127-77.766-17.18-86.497m17.18 86.497" /><path
       id="path991"
       fill="url(#linearGradient2426)"
       d="m321.99 419.87s23.722 4.275 20.143 19.332c0 0-6.704-9.461-15.245-3.426-7.016 4.957-19.567 32.627-21.587 74.605l-0.46 0.337s-1.526-80.691 17.149-90.848" /><path
       id="path993"
       fill="url(#linearGradient2460)"
       d="m304.84 510.72 0.461-0.336c2.021-41.977 14.571-69.648 21.586-74.605 2.066-1.46 4.023-2.013 5.805-2.013 5.587 0 9.44 5.439 9.44 5.439s-3.853-5.439-9.44-5.439c-1.782 0-3.739 0.553-5.805 2.013-7.015 4.957-19.565 32.628-21.586 74.605l-0.461 0.336m-0.031-4.35c0 2.761 0.031 4.35 0.031 4.35s-0.031-1.589-0.031-4.35m0-0.05c2e-3 -16.983 1.143-77.725 17.18-86.447-16.037 8.722-17.178 69.464-17.18 86.447zm37.69-70.127c0 0.953-0.116 1.956-0.367 3.012 0.251-1.056 0.367-2.059 0.367-3.012m-20.51-16.32s20.51 3.695 20.51 16.32c0-12.625-20.51-16.32-20.51-16.32" /><path
       id="path995"
       fill="url(#linearGradient2494)"
       d="m276.08 517.44c-14.017-7.416-24.308-19.846-28.976-35.001-4.668-15.156-3.155-31.221 4.26-45.238 10.316-19.501 30.442-31.616 52.524-31.617h3e-3c9.593 0 19.174 2.386 27.71 6.902 14.016 7.414 24.308 19.845 28.975 34.999 4.669 15.155 3.156 31.221-4.259 45.239-10.318 19.502-30.444 31.616-52.524 31.616-9.595 0-19.179-2.386-27.713-6.9m11.632-99.422 2.181 5.93-1.562 0.603c-8.078 3.111-14.985 8.522-19.974 15.651-5.103 7.29-7.799 15.852-7.799 24.76 0 23.867 19.415 43.284 43.282 43.284s43.283-19.417 43.283-43.284c0-17.218-10.221-32.801-26.04-39.7l-2.11-0.92 3.653-4.245c-0.518-0.464-1.677-1.315-4.214-2.596-1.093-0.554-3.616-1.213-9.415-1.213-7.67 0-17.168 1.17-21.285 1.73" /><path
       id="path997"
       fill="url(#linearGradient2528)"
       d="m275.91 517.76c-14.102-7.461-24.457-19.968-29.153-35.214-4.697-15.249-3.174-31.412 4.286-45.516 10.379-19.621 30.629-31.81 52.846-31.811h3e-3c9.652 0 19.293 2.401 27.88 6.943 14.103 7.461 24.457 19.967 29.154 35.215s3.174 31.413-4.286 45.515c-10.382 19.622-30.63 31.811-52.846 31.811-9.654 0-19.296-2.401-27.884-6.943m27.979-111.81c-21.947 1e-3 -41.95 12.042-52.203 31.423-7.369 13.931-8.873 29.898-4.233 44.961 4.64 15.061 14.868 27.415 28.798 34.784 8.483 4.488 18.007 6.86 27.543 6.86 21.945 0 41.948-12.041 52.201-31.423 7.37-13.932 8.874-29.899 4.235-44.961-4.641-15.061-14.867-27.415-28.798-34.785-8.484-4.487-18.006-6.859-27.54-6.859v-0.364zm-43.696 59.014c0-8.983 2.72-17.618 7.867-24.968 5.03-7.188 11.995-12.645 20.141-15.784l1.228-0.472-2.214-6.02 0.45-0.06c3.824-0.522 13.558-1.733 21.336-1.733 5.87 0 8.448 0.68 9.578 1.25 1.138 0.576 1.196 0.996 0.964 1.33-0.385-0.21-0.815-0.437-1.294-0.679-1.058-0.535-3.523-1.173-9.251-1.173-7.443 0-16.707 1.119-20.786 1.665l2.147 5.843-1.896 0.73c-8.011 3.084-14.86 8.452-19.807 15.519-5.06 7.228-7.735 15.719-7.735 24.552 0 23.667 19.254 42.92 42.92 42.92s42.92-19.253 42.92-42.92c0-17.074-10.135-32.525-25.822-39.366l-2.564-1.117 1.18-1.371-0.053-3.503-0.651-0.135c-0.307-0.276 0.409-0.556 0.692-0.965 1.303 0.715 2.092 1.253 2.567 1.632l-2.555 2.971 0.017 1.097 1.658 0.723c15.952 6.957 26.26 22.672 26.26 40.034 0 24.068-19.581 43.649-43.649 43.649-24.067 0-43.648-19.581-43.648-43.649" /><path
       id="path999"
       fill="url(#linearGradient2554)"
       d="m276.99 515.71c-13.554-7.172-23.506-19.192-28.022-33.849-4.514-14.656-3.051-30.194 4.121-43.75 9.977-18.86 29.441-30.577 50.798-30.578h3e-3c9.276 0 18.542 2.309 26.798 6.675 13.555 7.172 23.507 19.193 28.022 33.849 4.514 14.656 3.051 30.194-4.121 43.75-9.977 18.861-29.441 30.579-50.797 30.579-9.278 0-18.546-2.309-26.802-6.676m-21.755-76.464c-6.869 12.984-8.27 27.863-3.946 41.901 4.324 14.037 13.854 25.548 26.837 32.417 7.908 4.182 16.783 6.393 25.666 6.393 20.454 0 39.097-11.221 48.653-29.285 6.868-12.984 8.269-27.864 3.944-41.901-4.324-14.036-13.853-25.548-26.837-32.417-7.907-4.182-16.779-6.393-25.662-6.393h-3e-3c-20.454 0-39.098 11.223-48.652 29.285m0.941 25.713c0-26.281 21.381-47.664 47.663-47.664s47.664 21.383 47.664 47.664c0 26.282-21.382 47.663-47.664 47.663s-47.663-21.381-47.663-47.663m2.428 0c0 24.943 20.292 45.236 45.235 45.236 24.944 0 45.236-20.293 45.236-45.236s-20.292-45.236-45.236-45.236c-24.943 0-45.235 20.293-45.235 45.236" /><path
       id="path1001"
       fill="url(#linearGradient2578)"
       d="m277.56 514.64c-27.435-14.515-37.91-48.522-23.397-75.959 14.515-27.435 48.522-37.91 75.959-23.398 27.436 14.515 37.911 48.523 23.398 75.96-10.081 19.056-29.571 29.93-49.726 29.931-8.864 1e-3 -17.853-2.101-26.234-6.534m-20.169-49.678c0 25.655 20.797 46.45 46.45 46.45s46.45-20.795 46.45-46.45c0-25.653-20.797-46.45-46.45-46.45s-46.45 20.797-46.45 46.45" /><g
       id="g1099"
       fill="#fff"><g
         id="g1019"><g
           id="g1005"
           transform="matrix(-0.10849,0.98416,0.9941,0.10958,256.52,457.42)"><path
             id="path1003"
             d="M 0.37625,-5.3729 V 0 h 0.9933 V -3.7625 H 1.3846 L 2.709,0 H 3.9431 V -5.3729 H 2.9498 v 3.6797 H 2.93475 l -1.3094,-3.6797 z" /></g><g
           id="g1009"
           transform="matrix(0.039744,0.98922,0.99921,-0.040155,255.92,464.79)"><path
             id="path1007"
             d="m 0,0 h 1.1289 l 0.24835,-1.1364 h 1.4299 L 3.0555,0 H 4.1844 L 2.762,-5.3734 H 1.4224 Z m 2.0846,-4.4402 h 0.015052 l 0.51928,2.4158 h -1.0536 z" /></g><g
           id="g1013"
           transform="matrix(0.18427,0.97305,0.98288,-0.18613,256.44,472.04)"><path
             id="path1011"
             d="m 0.16551,-1.6777 v 0.21818 c 0,0.99308 0.48149,1.5649 1.7078,1.5649 1.1736,0 1.8658,-0.51159 1.8658,-1.6476 0,-0.65453 -0.21065,-1.0683 -1.0232,-1.4219 L 1.88082,-3.32524 C 1.4219,-3.52085 1.32409,-3.72398 1.32409,-4.055 c 0,-0.31598 0.1279,-0.62444 0.61691,-0.62444 0.41378,0 0.58682,0.29341 0.58682,0.79747 h 1.0382 v -0.15047 c 0,-1.0307 -0.69967,-1.4445 -1.6627,-1.4445 -1.0232,0 -1.6627,0.53416 -1.6627,1.5799 0,0.89528 0.44388,1.294 1.4069,1.625 0.71472,0.24827 0.96299,0.42883 0.96299,0.91785 0,0.4514 -0.31598,0.66205 -0.64701,0.66205 -0.57177,0 -0.71472,-0.3235 -0.71472,-0.82757 V -1.6777 Z" /></g><g
           id="g1017"
           transform="matrix(0.32636,0.93579,0.94524,-0.32966,257.93,478.83)"><path
             id="path1015"
             d="m 0,0 h 1.1277 l 0.24809,-1.1352 h 1.4284 L 3.05228,0 h 1.1277 l -1.4209,-5.3677 h -1.3382 z m 2.0824,-4.4355 h 0.015036 l 0.51872,2.4132 h -1.0525 z" /></g></g><g
         id="g1049"><g
           id="g1023"
           transform="matrix(0.55143,0.82588,0.83422,-0.557,262.88,489.94)"><path
             id="path1021"
             d="M 0.37514,-5.357 V 0 h 1.0804 v -1.5906 l 0.39765,-0.60773 1.1029,2.1983 h 1.2155 l -1.6206,-3.0612 1.4555,-2.2959 h -1.1704 l -1.3655,2.1458 H 1.455584 v -2.1458 z" /></g><g
           id="g1027"
           transform="matrix(0.66513,0.73925,0.74672,-0.67186,267.1,495.82)"><path
             id="path1025"
             d="M 0.37462,-5.3495 V 0 h 3.0644 v -0.88409 h -1.9855 v -1.4385 h 1.7982 v -0.88409 h -1.7982 v -1.2587 h 1.9105 v -0.88409 z" /></g><g
           id="g1031"
           transform="matrix(0.76478,0.63501,0.64142,-0.7725,271.71,500.68)"><path
             id="path1029"
             d="M 0.37476,-5.3516 V 0 H 1.36414 V -3.7476 H 1.379131 L 2.698331,0 h 1.2292 v -5.3516 h -0.98938 v 3.6652 h -0.01499 l -1.3042,-3.6652 z" /></g><g
           id="g1035"
           transform="matrix(0.85134,0.5104,0.51556,-0.85994,277.55,505.23)"><path
             id="path1033"
             d="M 0.3753,-5.3593 V 0 H 1.3661 V -3.753 H 1.381112 L 2.702212,0 h 1.231 v -5.3593 h -0.9908 v 3.6704 H 2.9274 l -1.306,-3.6704 z" /></g><g
           id="g1039"
           transform="matrix(0.9157,0.3801,0.38393,-0.92494,283.99,508.81)"><path
             id="path1037"
             d="M 0.37574,-5.3656 V 0 h 3.0736 v -0.88675 h -1.9914 v -1.4428 h 1.8036 V -3.2163 h -1.8036 v -1.2625 h 1.9163 v -0.88675 z" /></g><g
           id="g1043"
           transform="matrix(0.96036,0.24291,0.24537,-0.97005,290.28,511.19)"><path
             id="path1041"
             d="m 0.42872,0 h 1.7074 c 1.4366,0 1.8427,-0.85744 1.8427,-2.7603 0,-1.5795 -0.27077,-2.6099 -1.775,-2.6099 h -1.775 z m 1.0831,-4.573 h 0.4588 c 0.82735,0 0.92513,0.62427 0.92513,1.8427 0,1.4591 -0.15043,1.933 -0.90256,1.933 H 1.51182 Z" /></g><g
           id="g1047"
           transform="matrix(0.98429,0.10723,0.10831,-0.99423,296.94,512.7)"><path
             id="path1045"
             d="m 0.022575,-5.3728 1.3921,3.2583 V 0 h 1.0836 v -2.1145 l 1.3921,-3.2583 h -1.1739 l -0.7525,2.0769 h -0.01505 l -0.70735,-2.0769 z" /></g></g><g
         id="g1071"><g
           id="g1053"
           transform="matrix(0.9811,-0.13375,-0.13511,-0.99102,308.79,513.03)"><path
             id="path1051"
             d="m 0.16554,-1.678 v 0.21821 c 0,0.99323 0.48157,1.5651 1.7081,1.5651 1.1738,0 1.8661,-0.51167 1.8661,-1.6479 0,-0.65463 -0.21069,-1.0685 -1.0233,-1.4221 L 1.88122,-3.32587 c -0.45899,-0.19564 -0.55681,-0.3988 -0.55681,-0.72988 0,-0.31603 0.12792,-0.62453 0.61701,-0.62453 0.41385,0 0.58691,0.29346 0.58691,0.7976 h 1.0384 v -0.15049 c 0,-1.0309 -0.69978,-1.4447 -1.6629,-1.4447 -1.0233,0 -1.6629,0.53424 -1.6629,1.5801 0,0.89542 0.44395,1.2942 1.4071,1.6253 0.71483,0.24831 0.96314,0.4289 0.96314,0.91799 0,0.45147 -0.31603,0.66216 -0.64711,0.66216 -0.57186,0 -0.71483,-0.32355 -0.71483,-0.8277 v -0.15801 z" /></g><g
           id="g1057"
           transform="matrix(0.95153,-0.27603,-0.27884,-0.96115,315.66,511.88)"><path
             id="path1055"
             d="m 0.376,0 h 1.0829 v -2.1432 h 0.57905 c 1.0227,0 1.7071,-0.50384 1.7071,-1.6168 0,-0.80465 -0.376,-1.6093 -1.4739,-1.6093 h -1.8951 z m 1.0829,-4.5722 h 0.4512 c 0.54145,0 0.75201,0.3008 0.75201,0.82721 0,0.54897 -0.29328,0.80465 -0.72193,0.80465 H 1.4589 Z" /></g><g
           id="g1061"
           transform="matrix(0.90399,-0.40768,-0.41179,-0.91312,322.07,509.83)"><path
             id="path1059"
             d="m 0,0 h 1.127 l 0.24794,-1.1345 h 1.4275 L 3.05038,0 h 1.127 l -1.42,-5.3644 h -1.3374 z m 2.0812,-4.4328 h 0.015026 l 0.51841,2.4117 h -1.0518 z" /></g><g
           id="g1065"
           transform="matrix(0.83655,-0.53477,-0.54017,-0.845,328.46,506.69)"><path
             id="path1063"
             d="m 3.7446,-3.5495 c 0,-0.78043 -0.11256,-1.9136 -1.6584,-1.9136 -1.6209,0 -1.8235,1.1556 -1.8235,2.784 0,1.6284 0.20261,2.784 1.8235,2.784 1.4183,0 1.7034,-0.99805 1.7034,-2.1537 H 2.709 c 0,1.1556 -0.28516,1.3583 -0.67537,1.3583 -0.46526,0 -0.69038,-0.29266 -0.69038,-1.9136 0,-1.5158 0.12757,-2.0636 0.67537,-2.0636 0.48777,0 0.64536,0.33769 0.64536,1.1181 z" /></g><g
           id="g1069"
           transform="matrix(0.75401,-0.64801,-0.65455,-0.76163,334.22,502.76)"><path
             id="path1067"
             d="M 0.3747,-5.3507 V 0 H 3.4398 V -0.8843 H 1.4539 V -2.3232 H 3.2525 V -3.2075 H 1.4539 v -1.259 h 1.911 v -0.8843 z" /></g></g><g
         id="g1974"><g
           id="g1075"
           transform="matrix(0.57597,-0.8093,-0.81747,-0.58178,342.38,494.53)"><path
             id="path1073"
             d="m 3.7429,-3.5478 c 0,-0.78007 -0.11251,-1.9127 -1.6577,-1.9127 -1.6202,0 -1.8227,1.1551 -1.8227,2.7828 0,1.6277 0.20252,2.7828 1.8227,2.7828 1.4176,0 1.7027,-0.99759 1.7027,-2.1527 H 2.7078 c 0,1.1551 -0.28503,1.3576 -0.67506,1.3576 -0.46504,0 -0.69007,-0.29253 -0.69007,-1.9127 0,-1.5151 0.12751,-2.0627 0.67506,-2.0627 0.48755,0 0.64506,0.33753 0.64506,1.1176 z" /></g><g
           id="g1079"
           transform="matrix(0.45528,-0.88144,-0.89035,-0.45989,346.24,488.71)"><path
             id="path1077"
             d="M 0.3755,-5.3622 V 0 H 3.4471 V -0.88619 H 1.4569 v -1.4419 H 3.2593 V -3.21428 H 1.4569 v -1.2617 H 3.372 v -0.88619 z" /></g><g
           id="g1083"
           transform="matrix(0.32092,-0.93763,-0.9471,-0.32417,349.14,482.69)"><path
             id="path1081"
             d="M 0.3759,-5.3678 V 0 H 1.36827 V -3.759 H 1.383306 L 2.706506,0 h 1.2329 v -5.3678 h -0.99237 v 3.6763 H 2.932 L 1.6239,-5.3678 Z" /></g><g
           transform="matrix(0.18613,-0.98253,-0.98253,-0.18613,0,0)"
           id="g1089"><path
             style="fill:#ffffff;stroke-width:0.75"
             d="m -401.59,-439.08 v 0.8836 h 1.1682 v 4.4629 h 1.0783 v -4.4629 h 1.1682 v -0.8836 z"
             id="path1087" /></g><g
           transform="matrix(0.041473,-0.99914,-0.99914,-0.041473,0,0)"
           id="g1093"><path
             style="fill:#ffffff;stroke-width:0.75"
             d="m -453.47,-376.81 v 5.3466 h 3.0627 v -0.88361 h -1.9844 v -1.4377 h 1.7972 v -0.8836 h -1.7972 v -1.258 h 1.9095 v -0.88361 z"
             id="path1091" /></g><g
           transform="matrix(-0.12143,-0.9926,-0.9926,0.12143,0,0)"
           id="g1097"><path
             style="fill:#ffffff;stroke-width:0.75"
             d="m -499.63,-298.12 h 0.5092 c 0.48673,0 0.74881,0.24711 0.74881,0.74132 0,0.57659 -0.29203,0.80124 -0.80872,0.80124 H -499.63 Z m -1.0783,4.5528 h 1.0783 v -2.2614 h 0.57659 c 0.43431,0 0.62152,0.2546 0.63649,0.67394 l 0.03,1.0259 c 0.007,0.20967 0.0299,0.41185 0.13478,0.56162 h 1.1682 v -0.0449 c -0.20218,-0.10484 -0.23214,-0.39687 -0.23962,-0.95849 -0.015,-1.1307 -0.1273,-1.5351 -0.86114,-1.6324 v -0.015 c 0.60654,-0.1273 0.89109,-0.60654 0.89109,-1.3179 0,-0.91355 -0.53915,-1.3778 -1.4228,-1.3778 h -1.9918 z"
             id="path1095" /></g></g></g><g
       id="g1103"
       transform="translate(304.11 513.94)"><path
         id="path1101"
         fill="#fff"
         d="m0 0v-6.099l-2.754-1.321z" /></g><g
       id="g1107"
       transform="translate(304.11 513.94)"><path
         id="path1105"
         fill="#a3a5a7"
         d="m0 0v-6.099l2.753-1.321z" /></g><g
       id="g1111"
       transform="translate(319.29 414.31)"><path
         id="path1109"
         fill="#edaa00"
         d="m0 0c-2.654 0-4.346 0.566-5.329 1.781-1.529 1.892-1.209 5.239-0.256 9.682 1.773 8.349 4.464 11.308 10.278 11.308 2.4 0 4.109-0.605 5.079-1.8 0.982-1.211 1.217-2.962 0.715-5.353l-0.361-1.626h-6.097l0.368 1.633c0.287 1.37 0.308 2.187 0.06 2.492-0.064 0.078-0.192 0.182-0.565 0.182-1.326 0-1.811-1.11-3.059-6.989-0.739-3.473-1.222-5.98-0.706-6.616 0.083-0.103 0.236-0.222 0.675-0.222 0.997 0 1.51 0.743 2.405 4.911l0.062 0.288h6.091l-0.418-2.013c-1.092-5.083-4.101-7.658-8.942-7.658" /></g><g
       id="g1115"
       transform="translate(323.99 437.45)"><path
         id="path1113"
         fill="#fff"
         d="m0 0c-6.034 0-8.816-3.036-10.635-11.599-0.975-4.544-1.291-7.982 0.329-9.986 1.058-1.308 2.84-1.917 5.613-1.917 2.207 0 4.078 0.536 5.562 1.591 1.856 1.321 3.114 3.459 3.736 6.352l0.329 1.581 0.181 0.878h-6.834l-0.123-0.577c-0.855-3.98-1.305-4.622-2.05-4.622-0.096 0-0.328 8e-3 -0.392 0.086-0.445 0.55 0.292 4.017 0.779 6.311 0.609 2.867 1.026 4.616 1.483 5.644 0.434 0.978 0.794 1.056 1.22 1.056 0.184 0 0.269-0.031 0.282-0.047 0.043-0.054 0.24-0.41-0.135-2.194l-0.265-1.177-0.2-0.89h6.844l0.127 0.572 0.297 1.337c0.528 2.512 0.271 4.363-0.786 5.666-1.043 1.283-2.847 1.935-5.362 1.935m0-0.729c4.99 0 6.298-2.615 5.436-6.715l-0.297-1.336h-5.347l0.268 1.188c0.505 2.407 0.207 3.12-0.862 3.12-1.694 0-2.198-1.545-3.417-7.278-1.218-5.734-1.366-7.279 0.327-7.279 1.367 0 1.901 1.188 2.763 5.199h5.347l-0.326-1.574c-1.278-5.941-5.05-7.368-8.585-7.368-6.209 0-6.922 3.119-5.23 11.022 1.723 8.109 4.189 11.021 9.923 11.021" /></g><g
       id="g1131"><g
         id="g1119"
         transform="translate(308.83,437.45)"><path
           style="fill:#ffffff"
           id="path1117"
           d="m 0,0 c -4.934,0 -8.077,-2.491 -9.09,-7.201 -1.024,-4.881 2.066,-6.261 4.322,-7.269 1.858,-0.83 2.537,-1.249 2.301,-2.358 -0.139,-0.681 -0.611,-1.471 -1.484,-1.471 -0.275,0 -0.461,0.057 -0.552,0.168 -0.081,0.102 -0.248,0.44 -0.043,1.408 l 0.117,0.497 0.211,0.897 h -6.866 l -0.118,-0.586 -0.148,-0.743 c -0.464,-2.143 -0.237,-3.752 0.696,-4.909 1.051,-1.302 2.971,-1.935 5.872,-1.935 5.361,0 8.599,2.393 9.623,7.111 1.066,5.05 -2.169,6.483 -4.533,7.529 -1.917,0.849 -2.62,1.274 -2.387,2.366 l 0.002,0.009 10e-4,0.008 c 0.12,0.635 0.596,1.277 1.392,1.277 0.222,0 0.285,-0.078 0.312,-0.111 0.127,-0.158 0.224,-0.591 0.076,-1.288 l -0.118,-0.497 -0.211,-0.897 h 6.684 l 0.121,0.58 C 6.705,-4.901 6.477,-3.083 5.479,-1.858 4.465,-0.607 2.673,0 0,0 m 0,-0.729 c 4.812,0 6.417,-1.991 5.466,-6.536 H 0.297 l 0.119,0.505 c 0.268,1.247 -0.029,2.288 -1.1,2.288 -1.188,0 -1.931,-0.922 -2.109,-1.872 -0.891,-4.189 8.556,-2.139 6.922,-9.893 -0.98,-4.515 -4.04,-6.536 -8.911,-6.536 -4.576,0 -6.804,1.576 -5.853,5.972 l 0.149,0.743 h 5.347 l -0.119,-0.505 c -0.386,-1.812 0.238,-2.466 1.307,-2.466 1.128,0 1.96,0.891 2.198,2.049 0.891,4.189 -8.199,2.11 -6.625,9.625 0.921,4.279 3.713,6.626 8.378,6.626" /></g><g
         id="g1123"
         transform="translate(291.75,414.73)"><path
           style="fill:#ffffff"
           id="path1121"
           d="M 0,0 -1.569,6.978 -2.578,5.813 -3.809,0 h -6.271 l 4.671,21.941 h 6.271 l -1.481,-6.991 5.001,6.991 h 6.824 L 3.518,12.229 7.076,0 Z" /></g><g
         id="g1127"
         transform="translate(303.71,437.04)"><path
           style="fill:#ffffff"
           id="path1125"
           d="m 0,0 h -7.765 l -0.219,-0.305 -3.877,-5.421 1.025,4.845 0.187,0.881 h -7.016 l -0.123,-0.578 -4.515,-21.211 -0.188,-0.881 h 7.018 l 0.122,0.578 1.149,5.431 0.475,0.548 1.347,-5.987 0.128,-0.57 h 7.854 l -0.272,0.934 -3.369,11.581 7.103,8.973 z m -1.508,-0.729 -7.338,-9.269 3.476,-11.943 h -6.298 l -1.664,7.397 -1.544,-1.782 -1.188,-5.615 h -5.526 l 4.515,21.212 h 5.525 l -1.723,-8.14 h 0.06 l 5.822,8.14 z" /></g><path
         style="fill:url(#linearGradient2750)"
         id="path1129"
         d="m 314.04,425.7 c -1.693,-7.902 -0.979,-11.02 5.23,-11.02 3.535,0 7.307,1.425 8.584,7.367 l 0.327,1.574 h -5.347 c -0.862,-4.011 -1.397,-5.198 -2.763,-5.198 -1.694,0 -1.545,1.544 -0.327,7.277 1.218,5.734 1.724,7.279 3.416,7.279 1.07,0 1.368,-0.713 0.862,-3.119 l -0.267,-1.189 h 5.346 l 0.297,1.336 c 0.862,4.1 -0.445,6.713 -5.435,6.713 -5.734,0 -8.2,-2.909 -9.923,-11.02" /></g><path
       fill="url(#linearGradient2776)"
       id="path1133"
       d="m300.43 430.1c-1.576-7.515 7.516-5.436 6.624-9.625-0.238-1.158-1.069-2.048-2.199-2.048-1.069 0-1.693 0.652-1.306 2.464l0.119 0.506h-5.349l-0.147-0.743c-0.951-4.396 1.277-5.97 5.852-5.97 4.872 0 7.931 2.018 8.912 6.535 1.634 7.753-7.813 5.703-6.922 9.892 0.178 0.951 0.921 1.872 2.108 1.872 1.071 0 1.369-1.039 1.1-2.288l-0.119-0.505h5.169c0.95 4.545-0.653 6.536-5.465 6.536-4.665 0-7.457-2.347-8.377-6.626" /><path
       id="path1135"
       fill="url(#linearGradient2802)"
       d="m296.3 436.3-5.823-8.139h-0.059l1.722 8.139h-5.525l-4.516-21.21h5.525l1.189 5.615 1.545 1.781 1.662-7.396 6.425-0.146-3.474 11.942 7.21 9.414z" /></g></svg>