<svg xmlns="http://www.w3.org/2000/svg" xmlns:xlink="http://www.w3.org/1999/xlink" width="424.10061" height="448.1387" viewBox="0 0 424.10061 448.1387">
  <defs>
    <linearGradient id="linear-gradient" x1="28.272" y1="181.2671" x2="398.04739" y2="181.2671" gradientUnits="userSpaceOnUse">
      <stop offset="0" stop-color="#e2231a"/>
      <stop offset="0.1602" stop-color="#db231b"/>
      <stop offset="0.39438" stop-color="#c7231f"/>
      <stop offset="0.67397" stop-color="#a72325"/>
      <stop offset="0.98636" stop-color="#7b232e"/>
      <stop offset="1" stop-color="#79232e"/>
    </linearGradient>
    <radialGradient id="radial-gradient" cx="213.16674" cy="223.4219" r="200.13958" gradientUnits="userSpaceOnUse">
      <stop offset="0" stop-color="#009add"/>
      <stop offset="1" stop-color="#001f5b"/>
    </radialGradient>
  </defs>
  <title>MLS crest logo</title>
  <g id="Layer_2" data-name="Layer 2">
    <g id="Layer_1-2" data-name="Layer 1">
      <g>
        <path d="M424.08689,26.0371V0H2.2461V26.0371s-.0137,146.0371-.0137,146.9087A283.44172,283.44172,0,0,0,52.49761,334.5322L0,387.0303l36.8257,36.8252L86.0161,374.665a285.92407,285.92407,0,0,0,38.2573,31.9756,283.6531,283.6531,0,0,0,81.46539,39.2871l7.4277,2.211,7.4282-2.211A284.40364,284.40364,0,0,0,424.10061,173C424.10061,172.1284,424.08689,26.0371,424.08689,26.0371Z" style="fill: #fff"/>
        <path d="M398.04739,25.6055H28.2857S28.272,171.8574,28.272,172.729A257.78812,257.78812,0,0,0,87.0083,336.9287L398.04739,25.8901Z" style="fill: url(#linear-gradient)"/>
        <path d="M213.16649,420.8613C320.09079,389.04,398.061,289.9893,398.061,172.729c0-.8496-.0131-139.7641-.0136-146.8389L87.0083,336.9287A259.10592,259.10592,0,0,0,213.16649,420.8613Z" style="fill: #fff"/>
        <path d="M88.687,294.5918l-2.2817,2.2813,6.2842,6.2841-1.4488,1.4483-6.2842-6.2842-2.2812,2.2822-1.1768-1.1767,6.0118-6.0118Zm9.7783-1.5576-3.2592-7.3154,2.08251-2.0821,7.46039,7.46-1.3579,1.3584-5.83149-5.8311-.03571.0362,3.604,8.0586-1.0141,1.0136-8.0586-3.6035-.03659.0361,5.831,5.8311-1.35791,1.3584-7.4604-7.4609,2.1005-2.1006Z" style="fill: #001f5b"/>
        <g>
          <g>
            <polygon points="168.226 172.53 172.944 187.05 160.592 178.078 148.241 187.05 152.956 172.53 140.607 163.555 155.877 163.555 160.592 149.031 165.309 163.555 180.577 163.555 168.226 172.53" style="fill: #fff"/>
            <polygon points="97.145 172.53 109.496 163.555 94.23 163.555 89.511 149.031 84.795 163.555 69.523 163.555 81.877 172.53 77.158 187.05 89.511 178.078 101.859 187.05 97.145 172.53" style="fill: #fff"/>
            <polygon points="129.771 210.838 125.052 196.316 120.335 210.838 105.066 210.838 117.416 219.813 112.7 234.332 125.052 225.36 137.401 234.332 132.686 219.813 145.036 210.838 129.771 210.838" style="fill: #fff"/>
          </g>
          <g>
            <path d="M83.5679,115.6685,69.563,83.7749h-.4443v42.5654a1.05306,1.05306,0,0,1-1.1099,1.1163H55.4512a1.0582,1.0582,0,0,1-1.1187-1.1163V52.9888a1.05218,1.05218,0,0,1,1.1187-1.1109H68.6753a1.70057,1.70057,0,0,1,1.7739,1.1109L89.5679,96.1104h.44971L108.7959,52.9888a1.70794,1.70794,0,0,1,1.7813-1.1109h13.0019a1.0447,1.0447,0,0,1,1.1079,1.1109v73.3515a1.05071,1.05071,0,0,1-1.1079,1.1163h-12.561a1.05152,1.05152,0,0,1-1.107-1.1163V83.7749h-.4462l-14.003,31.8936a2.13183,2.13183,0,0,1-2.1196,1.4497h-7.667a2.1272,2.1272,0,0,1-2.1074-1.4497" style="fill: #fff"/>
            <path d="M135.9717,127.4566H185.209a1.0556,1.0556,0,0,0,1.1128-1.1163V114.0039a1.05345,1.05345,0,0,0-1.1128-1.1113H151.8662a.58986.58986,0,0,1-.668-.668V52.9888a1.04657,1.04657,0,0,0-1.1103-1.1109H135.9717a1.04756,1.04756,0,0,0-1.1099,1.1109v73.3515a1.05359,1.05359,0,0,0,1.1099,1.1163" style="fill: #fff"/>
            <path d="M227.32519,81.9946l-3.9985-.5551c-8.6685-1.2198-11.7808-3.9976-11.7808-8.3335,0-4.7827,3.4429-8.2237,10.1133-8.2237,6.2256,0,11.7783,1.9981,17.5596,5.7793a1.113,1.113,0,0,0,1.5542-.3408l6.7812-10.1118c.5542-.7793.4439-1.2188-.2183-1.6646-6.3398-4.8916-15.6767-7.8911-25.6767-7.8911-16.3408,0-26.78469,9.2251-26.78469,23.1167,0,13.3374,8.55419,20.5596,23.89649,22.6734l4.0005.5527c9.0015,1.2236,11.6675,4.0049,11.6675,8.4512,0,5.3301-4.4439,9.0014-12.3355,9.0014-8.001,0-14.7778-3.7783-19.7827-7.7797a1.11439,1.11439,0,0,0-1.667.1093l-8.44769,9.6704a1.37022,1.37022,0,0,0,.1108,1.8916c5.89009,5.67,17.33549,10.3335,29.12209,10.3335,19.5571,0,29.6772-10.1132,29.6772-23.7807,0-13.6739-8.2285-20.7857-23.791-22.8985" style="fill: #fff"/>
          </g>
        </g>
        <path d="M406.72749,25.6045l-.00088-8.6787H19.6065l-.0005,8.6787s-.0137,146.2529-.0137,147.1245A266.394,266.394,0,0,0,73.70261,334.0742c.54639.7207,1.105,1.4307,1.65779,2.1455L24.5508,387.0303l12.2749,12.2744L86.4624,349.668a268.3834,268.3834,0,0,0,47.7388,42.6054,266.07976,266.07976,0,0,0,76.48919,36.9073l2.4761.7373,2.47612-.7373a266.0733,266.0733,0,0,0,76.48918-36.9073,268.46181,268.46181,0,0,0,60.4986-58.1992,266.39007,266.39007,0,0,0,54.1108-161.3452C406.74119,171.8574,406.72749,25.6045,406.72749,25.6045ZM87.543,323.5947A249.02552,249.02552,0,0,1,36.9522,172.729c0-.7427.0097-106.9844.0127-138.4438H377.29539L87.7358,323.8447C87.6724,323.7608,87.6065,323.6787,87.543,323.5947Zm288.45109-69.9082A249.093,249.093,0,0,1,338.79,323.5947a251.13661,251.13661,0,0,1-56.5922,54.4434,248.80006,248.80006,0,0,1-69.0313,33.7539,248.7982,248.7982,0,0,1-69.03119-33.7539,251.06321,251.06321,0,0,1-45.3692-40.6738L389.36961,46.7612c.00388,40.5518.01128,125.3047.01128,125.9678A249.74048,249.74048,0,0,1,375.99409,253.6865Z" style="fill: url(#radial-gradient)"/>
      </g>
    </g>
  </g>
</svg>
