<svg enable-background="new 85.333 -104 441.333 1000" height="476.190476" viewBox="85.333 -104 441.333 1000" width="210" xmlns="http://www.w3.org/2000/svg"><path d="m422.893-104h-234.08c-57.151 0-103.48 46.331-103.48 103.48v792.747c0 57.199 46.281 103.611 103.479 103.773h234.08c57.246-.162 103.611-46.525 103.773-103.773v-792.747c-.323-57.13-46.644-103.318-103.772-103.48" fill="#fff"/><path d="m364.816 79.079v3.244c7.074 4.127 10.611 7.664 17.982 12.086 19.162 12.088 42.746 33.314 39.504 107.017 5.307 15.92 7.664 47.465 12.678 57.784 10.023 19.752 16.508 32.429 19.457 51.297 0 0 2.949 28.892 6.484 30.955 19.754 4.423 14.152 6.486 16.805 9.729 2.654 3.242 14.447 3.833 14.447 14.445 3.662 5.139 6.73 10.677 9.139 16.509v-382.665c0-43.521-35.193-78.847-78.715-79.009h-75.767c12.089 4.422 18.869 9.433 22.997 17.394 9.728.884 21.521 22.701 3.243 55.13 7.961 5.307 1.768 13.267-4.129 22.7-1.768 2.948-3.537 8.255-8.846 7.96-6.779 14.446-15.033 28.597-21.52 29.481-1.77 2.358-3.242 8.55-.293 11.498 9.57 3.338 18.532 8.218 26.534 14.445m137.086 355.247c-14.48 36.121-55.5 53.662-91.619 39.18-36.119-14.48-53.661-55.498-39.181-91.618 8.442-21.062 26.515-36.769 48.548-42.197-8.256-20.341-25.354-53.359-30.366-64.268-5.013-10.909-16.509-77.831-18.868-91.097-.589-2.949-30.365 17.395-30.365 18.573 0 1.179-22.406 55.718-23.289 58.667-.887 2.948-.591 9.14-.591 9.14s10.022 1.178 15.919 18.868c5.897 17.688 23.291 82.253 23.291 82.253s-4.717 5.012-5.012 4.716c22.406 74.587 14.447 106.722 24.469 128.539 12.677 30.955 15.92 26.828 26.828 52.771 7.666 18.865 16.215 93.16 19.164 96.404 12.086 15.326 18.574 27.121 18.574 35.67 0 8.551-10.32 34.199-6.488 49.232 2.357 8.846 3.539 28.305 7.369 32.135 3.834 3.834 3.834 7.369 1.77 10.613-.795 1.227-1.203 2.666-1.18 4.127 6.779 23.291 28.008 63.387-6.777 84.318h.883c38.475-5.977 66.797-39.189 66.627-78.127v-357.9h.294z" fill="#da1a32"/><path d="m412.871 776.9c-12.678-11.207-4.131-16.215-4.721-20.639-8.254-34.494-35.965-55.721-21.521-66.924-3.535-11.496-10.611-25.646-10.318-25.646-42.748-24.471-79.302-64.566-85.494-70.463-6.19-5.896-20.342-16.51-22.701-22.994-10.318-9.436-60.732-81.072-72.524-107.605l-20.637-2.947c-9.433-38.031-40.389-70.166-41.273-108.198-.293-14.445 6.487-45.399 9.14-51.592 2.653-6.19 14.446-16.509 14.446-16.509v-10.318c-44.811 1.178-31.839-3.244-39.504-20.637-5.307-12.088-1.475-14.741.295-22.996 5.896-24.764 25.943-62.795 34.198-79.894 2.654-8.845 11.203-29.775 11.203-29.775 33.314-67.807 45.696-62.795 85.496-66.628l2.063-2.949c39.8-1.768 33.314-4.716 38.915-43.042-5.896 2.357-7.371-12.088-7.371-12.088-3.242-21.815 5.896-17.688 10.318-17.984.884-35.671 4.718-46.875 30.365-56.897h-134.433c-43.637 0-79.01 35.374-79.01 79.009v792.747c0 43.686 35.326 79.145 79.01 79.307h234.08c-26.829-14.447-10.909-41.865-10.022-94.338z" fill="#00438c"/><path d="m233.083 821.697v-143.578h27.778c16.147 0 26.042 8.68 26.042 28.82v21.354c0 13.021-3.993 19.617-9.548 22.92 5.555 3.816 9.548 10.24 9.548 21.178v20.834c0 19.617-10.59 28.473-26.042 28.473h-27.778zm19.099-62.328v44.273h7.29c6.599 0 8.333-3.475 8.333-10.246v-24.305c0-7.119-2.255-9.723-8.504-9.723h-7.119zm0-63.193v47.395h7.119c6.77 0 8.504-2.434 8.504-10.242v-27.605c0-6.598-2.081-9.723-8.333-9.723h-7.29zm79.862 96.353h-17.362l-2.432 29.168h-19.27l17.36-143.578h27.432l16.666 143.578h-20.139zm-8.507-98.263h-1.041c-1.218 17.361-3.646 47.572-4.339 57.289l-2.259 24.658h14.932l-2.262-24.658c-.689-9.893-3.468-39.928-5.031-57.289m-147.223 127.431h-16.666v-143.578h26.387l21.356 117.537c-1.738-28.125-4.167-62.158-4.167-91.148v-26.561h16.666v143.574h-24.306l-21.356-114.93c1.39 26.566 1.912 47.742 1.912 69.791v45.314h.174z" fill="#fff"/></svg>