<svg xmlns="http://www.w3.org/2000/svg" width="250" height="189.04" viewBox="0 0 250 189.04">
 <g transform="matrix(1.3333 0 0 -1.3333 -35.114 213.52)">
  <g transform="matrix(.77932 0 0 .77932 27.144 18.85)">
   <path d="m229.84 138.79-14.547-3.435v-126.51h-61.422l-65.498 66.177v-32.183l13.879-4.071v-29.91h-92.767v29.981l16.246 4.035v92.427l-16.899 3.553v32.316h83.699l62.634-65.356v29.423l-11.788 3.572v32.361h86.463zm-95.295 41.21v-39.907l-38.245 39.907h-96.299v-48.317l16.898-3.553v-78.351l-16.246-4.033v-45.722h110.43v39.526l39.1-39.55h73.941v128.36l14.547 3.436v48.2h-104.13" fill="#fff"/>
   <path d="m8.8315 171.17v-32.316l16.898-3.5537v-92.426l-16.247-4.0356v-29.981h92.767v29.911l-13.878 4.0708v32.183l65.498-66.177h61.422v126.51l14.546 3.4351v32.377h-86.462v-32.361l11.788-3.5713v-29.423l-62.634 65.355zm63.129-12.829 4.4546-12.79h14.266l-11.363-8.959 4.3345-13.699-11.692 8.8506-11.684-8.4155 4.5337 13.397-10.998 8.8257h13.666zm34.78-33.149 4.437-12.813h14.257l-11.341-8.9561 4.3022-13.701-11.656 8.8638-11.697-8.4023 4.5264 13.355-10.98 8.8403h13.661zm34.775-33.176 4.4707-12.792h14.222l-11.334-9.0059 4.3316-13.671-11.691 8.8506-11.682-8.3906 4.5234 13.367-11.002 8.8506h13.676zm34.739-33.157 4.478-12.826h14.244l-11.348-8.9531 4.3301-13.705-11.704 8.874-11.678-8.4023 4.5557 13.356-11.017 8.8301h13.67z" fill="#013369"/>
  </g>
 </g>
</svg>