<svg xmlns="http://www.w3.org/2000/svg" height="46.319" viewBox="0 0 193.02087 46.31887" width="193.02"><g transform="matrix(1.25 0 0 -1.25 -286.53 518.33)"><path d="m326.5 413.79c-1.5526-1.0378-2.328-1.5488-3.8828-2.5672 0.0128-3.5113 0.0189-5.2669 0.0328-8.7797-0.51449-0.34105-0.77419-0.51868-1.2891-0.85938 0.51707-0.35968 0.77982-0.54062 1.2969-0.90469 0.0139-3.5164 0.0173-6.4531 0.0312-9.9703 1.5734-0.66385 2.2369-0.96572 3.925-1.6281 4.5714-0.3279 6.8547-0.54168 11.419-1.0719 1.5734 0.8928 2.3608 1.3394 3.9328 2.2516-0.0263 3.7779-0.0404 5.6737-0.0656 9.4516 0.50245 0.33812 0.75739 0.50666 1.2609 0.84843-0.50793 0.41921-0.7656 0.62413-1.275 1.0375-0.0252 3.7724-0.04 5.6615-0.0656 9.4328-1.5818 1.1243-2.3728 1.6763-3.9547 2.7594h-11.366zm-94.641-0.0984c-0.004-5.4693-0.005-10.938-0.008-16.408-0.50977-0.58863-1.3875-1.0158-1.8969-1.6172 0.50939-0.42725 1.3855-0.50826 1.8938-0.92343 0 0-0.002-10.294-0.006-16.408 2.4067 0.78032 3.6124 1.1495 6.025 1.8531 0.0113 4.5466 0.0144 6.8257 0.025 11.372 3.3152 0.63793 4.9795 0.93014 8.3031 1.4797 1.5789 1.5881 2.3674 2.3536 3.95 3.8438 0.0292 5.4422 0.0478 8.1647 0.0781 13.606-1.5709 1.2412-2.3628 1.881-3.9344 3.2016h-14.43zm24.8 0c-2.5163-10.742-3.7641-16.362-6.0938-27.35-1.9492-1.423-4.5323-3.1068-6.7766-4.5312 1.8992 0.5178 4.621 1.3114 6.3453 1.6828-0.00072-0.008 3.4323 0.75593 5.9625 1.1547 0.6025 2.7087 0.903 4.051 1.5062 6.7031 2.5506 0.39255 3.8301 0.57197 6.3844 0.90937 0.57185-2.3786 0.85822-3.5624 1.4297-5.9016 2.4896 0.40788 3.7344 0.59813 6.2266 0.94063-2.574 10.193-3.854 15.438-6.4156 26.392h-8.5688zm13.475 0c-0.0135-1.9762-0.0232-2.9632-0.0375-4.9391 2.4199 0.0661 3.629 0.0954 6.05 0.15156-0.019-2.899-0.0232-4.3476-0.0422-7.2469-0.51488-0.40715-0.77815-0.61393-1.2938-1.0266 0.51123-0.33887 0.76608-0.50937 1.2766-0.84532-0.0328-4.8138-0.0437-7.2192-0.0766-12.036 2.4528 0.3038 3.6802 0.43889 6.1344 0.68281 0.0281 4.6886 0.0436 7.0322 0.0703 11.722 0.5083 0.38633 0.75565 0.57947 1.2625 0.9625-0.50393 0.3407-0.74912 0.51263-1.2516 0.85625 0.0168 2.8237 0.0223 4.2325 0.0391 7.0562 2.4214 0.0442 3.6331 0.061 6.0562 0.0953 0.008 1.8261 0.0139 2.7406 0.0219 4.5672h-18.209zm20.398 0c-0.019-4.5126-0.0334-7.9874-0.0484-11.38-0.50647-0.37063-0.7667-0.5555-1.275-0.93125 0.505-0.33193 0.76255-0.50127 1.2672-0.83282 0 0-0.0296-6.704-0.05-11.377 2.4593 0.15812 3.6887 0.22312 6.1469 0.325 0.0117 3.9418 0.0195 5.9156 0.0312 9.8578 0.72485 0.0175 1.0881 0.0272 1.8141 0.0422 2.0737-3.8871 3.1094-5.8201 5.1938-9.6984 2.6291 0.042 3.9464 0.0453 6.5766 0.0219-2.1256 3.9488-3.1861 5.9044-5.3 9.8203 1.6702 1.1408 2.5089 1.7058 4.1766 2.8312-0.001 3.5216-0.005 5.2811-0.008 8.8016-1.5544 1.0067-2.3303 1.5109-3.8844 2.5188h-14.641zm21.958 0c0.006-4.4589 0.008-6.6868 0.0156-11.145-0.51412-0.34288-0.7717-0.51898-1.2844-0.86406 0.51378-0.34507 0.77339-0.51847 1.2875-0.86719 0.006-4.4582 0.008-6.6851 0.0156-11.142 2.4593-0.0519 3.6919-0.0876 6.1516-0.19531-0.0131 4.494-0.024 6.7408-0.0375 11.234 0.50392 0.33341 0.75547 0.49952 1.2594 0.83437-0.50572 0.36515-0.75641 0.54558-1.2625 0.90781-0.0146 4.4951-0.0244 6.7424-0.0375 11.238h-6.1078zm31.52 0c0.0143-1.9642 0.022-2.9459 0.0359-4.9094 2.4199-0.0639 3.6298-0.10723 6.05-0.18281 0.0205-3.0804 0.0336-4.6161 0.0563-7.6969-0.51014-0.36005-0.76682-0.54039-1.2766-0.89531 0.51595-0.43125 0.7731-0.64858 1.2891-1.0875 0.0354-5.1173 0.0525-7.6765 0.0875-12.794 2.4458-0.41592 3.5093-0.51129 5.95-0.99219 0 0.003 6.1311-1.532 8.2453-2.1359-1.9842 1.2948-5.9575 3.5449-8.1031 4.9-0.0241 3.8078-0.0407 5.9974-0.0703 10.423 0.50065 0.35678 0.75285 0.53546 1.2531 0.89844-0.50538 0.46994-0.75834 0.70178-1.2641 1.1641-0.0212 3.2061-0.0315 4.8133-0.0516 8.0172 2.4188-0.0884 3.6295-0.13395 6.0469-0.23438-0.0132 2.2096-0.0209 3.314-0.0344 5.525h-18.214zm24.352 0c-1.5643-1.3284-2.3488-1.9683-3.911-3.2156 0.023-4.685 0.0368-7.0284 0.0594-11.714 1.5742-1.4668 2.3612-2.227 3.9328-3.7906 3.3142-0.50317 4.9728-0.77107 8.2797-1.3531 0.006-3.0202 0.009-4.532 0.0141-7.55-2.4404 0.5919-3.6617 0.87423-6.1094 1.4062-0.003 1.0407-0.008 1.5608-0.0109 2.6-2.4254 0.4736-3.638 0.69875-6.0641 1.1234 0.01-1.9736 0.0134-2.961 0.0234-4.9328 1.5716-1.6129 2.355-2.4422 3.9219-4.1625 4.1828-1.0714 6.2701-1.6599 10.433-2.95 1.5351 0.96585 2.3041 1.4642 3.8406 2.5031v13.706c-1.5435 1.7619-2.3183 2.6171-3.8687 4.2625-3.3284 0.4181-4.992 0.60953-8.3266 0.97031-0.01 2.8646-0.0164 4.299-0.0266 7.1641 2.459-0.1194 3.6866-0.1833 6.1438-0.31875 0.002-1.017 0.002-1.5284 0.005-2.5453 2.4298-0.1866 3.6459-0.28743 6.0734-0.49375v5.5594c-1.553 1.5486-2.3308 2.2882-3.8875 3.7312h-10.522zm-65.402-4.4141c-0.001-2.1449-0.00013-3.2184-0.003-5.3641-2.5374-0.0172-3.8077-0.0343-6.3437-0.0766 0.005 2.1621 0.0107 3.2442 0.0172 5.4062 2.5316 0.019 3.7977 0.0245 6.3297 0.0344zm25.773-0.0812c2.789-0.0409 4.1887-0.0622 6.9781-0.11875 0.0161-2.8537 0.0203-4.2791 0.0375-7.1328-0.51085-0.3458-0.76802-0.5207-1.2781-0.8625 0.51376-0.38743 0.77358-0.58413 1.2906-0.97813 0.0183-2.8533 0.0258-4.2784 0.0422-7.1328-2.7964 0.24648-4.1945 0.34988-6.9938 0.53281-0.0139 2.781-0.016 4.1686-0.0312 6.95 0.51267 0.33192 0.76774 0.49979 1.2797 0.83282-0.51635 0.3856-0.77539 0.57696-1.2906 0.95781-0.0139 2.781-0.019 4.1713-0.0344 6.9516zm-84.616-1.3734c-0.0161-3.7092-0.0187-5.5634-0.0344-9.2719-2.4714-0.30783-3.7084-0.47062-6.175-0.81094 0.01 3.9064 0.0182 5.8612 0.0281 9.7688 2.4739 0.13255 3.7059 0.19684 6.1812 0.31406zm16.767-2.3859c0.76645-3.3255 1.153-4.9677 1.9188-8.2125-1.5786-0.16248-2.3686-0.24802-3.9453-0.42657 0.81064 3.5018 1.2134 5.2289 2.0266 8.6391z" fill="#024"/></g></svg>
