<svg xmlns="http://www.w3.org/2000/svg" height="52.857" width="191.21" viewBox="0 0 191.20959 52.85672"><g transform="matrix(1.25 0 0 -1.25 -286.81 520.8)"><g transform="matrix(.25 0 0 .25 229.45 296.62)"><g fill="#b1babf"><path d="m503.72 463.69 11.565 16.376h-10.127l-5.9485-9.9727-5.8602 9.9727h-10.132l11.57-16.376v-7.4917h8.9333v7.4917zm-57.875 1.4918 3.3158 8.1354h0.1056l3.3211-8.1354h-6.7425zm-2.39 14.884-10.962-23.868h9.3805l1.5352 3.5217h11.612l1.5458-3.5217h9.3752l-10.982 23.868h-11.505zm-48.124-14.039h5.512c1.8267 0 2.5785-0.8996 2.5785-2.1368 0-1.6869-0.8929-2.2383-2.5785-2.2383h-5.512v4.3751zm0 4.2629v4.4185h4.4687c1.584 0 2.4783-0.6964 2.4783-2.2317 0-1.4403-0.8943-2.1868-2.5812-2.1868h-4.3658zm10.62-1.8835c3.4214 0.4946 4.9105 2.7289 4.9105 5.657 0 4.0215-2.0839 6.0026-6.8428 6.0026h-17.574v-23.868h17.474c6 0 8.1842 1.9917 8.1842 6.4484 0 3.3278-2.4309 5.2601-6.1517 5.7112v0.0488zm-90.066-3.2249 3.3805 8.1354 3.3739-8.1354h-6.7544zm-2.3808 14.884-10.966-23.868h9.3844l1.5405 3.5217h11.6l1.538-3.5217h9.3897l-10.966 23.868h-11.521zm-46.835-23.868v5.5568h6.7491c5.0161 0 9.333 2.6788 9.333 9.0349 0 6.947-4.0189 9.2763-10.181 9.2763h-14.779v-23.868h8.878zm0 18.013h4.3143c1.8294 0 2.9835-0.8401 2.9835-3.3752 0-2.3807-1.2002-3.2275-3.0296-3.2275h-4.2682v6.6027zm-50.902-4.9593-7.0921 10.814h-9.4359v-23.868h8.8213l0.009 12.456 5.7625-8.0839h3.9649l5.7572 8.0839-0.0131-12.448 8.8463-0.008v23.868h-9.4227l-7.1976-10.814zm-59.389-4.0703 3.3251 8.1354h0.0897l3.3344-8.1354h-6.7492zm-2.386 14.884-10.968-23.868h9.3791l1.5353 3.5217h11.618l1.5339-3.5217h9.3845l-10.972 23.868h-11.509zm-39.701-23.868v17.914h8.9242v5.9538h-26.588v-5.9538h8.7356v-17.914h8.928"/><path d="m94.265 348.42-6.5724 6.5988h18.946l12.223 12.051v73.232l6.3297-6.6001v-69.391l-15.909-15.891h-15.016"/><path d="m356.51 348.38-6.335 6.6027h14.998v85.365l6.3298-6.3218v-85.646h-14.993"/><path d="m565.61 335.4-6.6357 6.5975h35.197l11.367 11.472v35.677l6.331-5.4407v-32.995l-15.361-15.311h-30.898"/><path d="m506.3 348.38-6.5276 6.6027h41.231v27.204l6.3323-6.3376v-27.469h-41.036"/><path d="m280.25 310.93c-3.1589 3.1708-6.43 7.1686-9.0705 11.108-2.3135 9.2762-4.8591 27.536-4.8591 40.707 0 2.9294 0 5.6926 0.1965 8.4361h6.4247c0.1596-23.813 5.0028-49.373 7.3084-60.252"/><path d="m287.65 348.38-1.5722 6.6027h45.747v31.92l6.4919-11.606-0.149-26.918h-50.518"/><path d="m152.98 348.36-6.6278 6.5975h31.269v29.017l6.3271-3.5164v-32.098h-30.968"/><path d="m177.62 401.81v38.49l6.3271-6.6001v-35.55l-6.3271 3.6602"/><path d="m211.69 348.36-6.6331 6.5975h31.282v29.017l6.3192-3.5164v-32.098h-30.968"/><path d="m236.34 401.81v38.49l6.3192-6.6001v-35.55l-6.3192 3.6602"/><path d="m533.48 395.79 7.5221 7.5221v24.017l6.3323-6.3323v-20.439l-9.2248-9.2051-4.6296 4.437"/><path d="m390.06 348.38-6.612 6.6027h40.437v42.98l6.3298-3.7406v-45.842h-40.155"/><path d="m423.88 410.77v29.525l6.3298-6.6001v-26.774l-6.3298 3.8488"/><path d="m448.77 348.38-6.612 6.6027h40.44v42.98l6.3191-3.7406v-45.842h-40.147"/><path d="m482.6 410.77v29.525l6.3191-6.6001v-26.774l-6.3191 3.8488"/><path d="m605.54 400.04v55.613l6.331-6.5869v-54.554l-6.331 5.5278"/><path d="m285.47 440.35 9.2789-9.2723 9.0679-35.851-0.0422-25.671-18.305 70.794"/><path d="m19.671 334.13-6.6621 6.5473h35.025l12.007 12.43v35.912l6.3218-6.5486v-32.101l-15.685-16.239h-31.006"/><path d="m52.507 402.44 7.5339 7.5247v30.088l6.3218-6.5948v-24.975l-9.8843-10.138-3.9714 4.094"/></g><g fill="#A71930"><path d="m344.33 359.27h15.917v81.024h-15.917v-30.409l-17.354 30.409h-23.153l7.2359-7.2345v-73.79h15.917v45.834l17.354-29.604v-16.23"/><path d="m114.29 367.95v72.343h-17.36v-65.107h-6.5091v65.107h-24.592l7.2292-7.2345v-65.108l8.688-8.6815h23.865l8.6788 8.6815"/><path d="m284.14 359.27h17.942l-21.564 81.024h-24.446l7.0894-7.2345c-10.279-14.323-15.474-34.432-15.474-48.467 0-39.643 16.92-53.827 16.92-53.827s-3.0402 13.753-3.0402 30.818c0 21.56 3.4754 37.044 8.8291 49.194l5.2086-19.679h-6.3653c-1.3032-4.7733-2.3188-10.132-2.7514-15.911h13.463l4.189-15.917"/><path d="m27.498 440.29h9.395v-22.858l-4.6296-4.6322-4.7654 4.9184v22.572zm0-78.129v34.579l9.395-9.4082v-25.171h-9.395zm-27.498 94.05l8.6841-8.684v-101.27h38.34l8.6762 8.6761v38.196l-9.2525 9.2538 9.2525 9.2631v35.882l-8.6762 8.684h-47.024"/><path d="m572.18 383.44-18.803 15.911v-53.094h38.337l8.6841 8.6761v37.328l-28.218 23.872v24.165h9.4122v-21.274l18.806-15.913v53.102h-38.34l-8.6814-8.684v-37.325l28.215-23.875v-24.16h-9.4122v21.271"/><path d="m487.56 440.29 7.2319-7.2345v-73.79h17.363v29.373l6.509-6.513v-22.86h17.362v27.204l-9.2591 9.2565 9.2591 9.2578v26.625l-8.6867 8.6814h-39.779zm24.595-13.86h6.509v-17.1l-3.1866-3.1866-3.3224 3.4728v16.814"/><path d="m124.42 440.29 7.2385-7.2345v-65.108l8.684-8.6815h32.547v26.42l-17.355 9.9807v-20.484h-6.5144v51.247h6.5144v-12.994l17.355-9.9846v36.839h-48.469"/><path d="m183.01 440.29 7.2332-7.2345v-65.108l8.6815-8.6815h32.549v26.42l-17.358 9.9807v-20.484h-6.5078v51.247h6.5078v-12.994l17.358-9.9846v36.839h-48.464"/><path d="m418.83 359.27v33.101l-17.358-9.9753v-7.2082h-6.5131v18.806h6.5131l13.89 7.9626-13.89 7.9534h-6.5131v16.525h6.5131v-4.9224l17.358-9.9779v28.76h-48.467l7.2306-7.2345v-73.79h41.236"/><path d="m477.43 359.27v33.101l-17.366-9.9753v-7.2082h-6.5183v18.806h6.5183l13.885 7.9626-13.885 7.9534h-6.5183v16.525h6.5183v-4.9224l17.366-9.9779v28.76h-48.475l7.2306-7.2345v-73.79h41.244"/></g></g></g></svg>
