<svg id="Ebene_1" data-name="Ebene 1" xmlns="http://www.w3.org/2000/svg" viewBox="0 0 900 900"><circle cx="450" cy="450" r="450" style="fill:#fff"/><path d="M214.06,501.43c0-158.6,129-287.62,287.62-287.62s287.62,129,287.62,287.62S660.27,789,501.68,789,214.06,660,214.06,501.43Zm-9.79,0c0,164,133.42,297.4,297.41,297.4s297.41-133.41,297.41-297.4S665.67,204,501.68,204,204.27,337.44,204.27,501.43Z" transform="translate(-50 -50)" style="fill:#050703"/><path d="M769.74,235.13a40.61,40.61,0,0,0,5.2-6.24h0c1.81-2.67,3-5.31,3-7.34,0-8.54-8-14.13-15.91-14.13a21.82,21.82,0,0,0-9.18,2.4c-9.23-25.69-37.16-66.6-68.2-83.22-26.76-14.27-59.86-17.41-86-23.15-15.15-3.38-38.52-18.4-41.45-18.33h-5.05v4.12c2.27,9.49,18.53,14.52,23.07,21.43,3.39,5.44,6,12.62,11.15,17.32,8.67,7.94,20.13,14.27,27.05,20.74,30,27.79,64.81,29,91.64,45C662.65,184.93,660,178,626.79,178c-9.87,0-17.74.3-28.86-.78,1-.57,2.37-1,2.21-1.75a107.08,107.08,0,0,0,31.94-3.92c-11-4.11-22.13-5-32.12-9.23-6.64-2.8-11.73-8.88-16.73-8.74-13.68.44-33.73-10.6-45.31-19.52l12.34-.77c16,3.08,33.79,9.7,48.82,11.42-11.49-10.11-26-17.65-27.31-31.35-5.26,2.34-10.88,7-13.83,7s-4.14-2.06-18.27-1.18c-4.85.3-10.41,3.54-15.27,3.54-37.65,1-38.82,1.17-41.77,1.17s-11.13-4.11-15.84-4.41c-8.23-.74-17.64,1.18-25.88.44-4-.29-8-5.38-10.94-6.53-.58,15.5-20.09,24.47-27.31,31.3,18.19.67,35.84-11.38,53.5-11.38,2.94,0,5.62-.07,7.65.67-15.25,13.45-32.08,16.11-49,20.82-15,4.12-30.83,12.78-43.95,15.44,9.06,6.79,24.89,2.48,31.76,8.29-2,.73-4.15-2.13-50-.51-12.5.44-50.13,16.47-54.1,16.47-2.95,0-1.77-.59-1.77-.59,38.82-20.51,83.39-25.35,123-70.21,3.53-4,4.54-11,8.66-15.28,3.09-3.24,21.34-12.76,21.27-19.38V85.16h-5.07c-2.94-.11-23.27,12.27-34.46,16a120.24,120.24,0,0,1-31.6,5.86c-38.83,1.62-103.2,38.47-122.17,87.89-2.35,6.18-4.13,11.56-7.38,14.93-3.21-1.16-6.34-2.37-9.27-2.37-4.56,0-15.89,3.54-15.89,13a69.62,69.62,0,0,0,4.09,8.53h0a29.18,29.18,0,0,0,4.17,6.2c-10,10.91-16.11,24.55-21,34.54,5.45-3.5,10-3.42,14.48-5.17,2.49-6.08,6.51-14.76,14.07-19.4,4.08,4.25,9.64,8.24,11.85,8.24,18.44,0,6-16.71,12.18-24.43h0c1.86-2.31,5.39-3.8,11.93-3.8l54.12,2.35c36.78,0,72.43-6.44,113.91-37.48,3.68-2.79,9.38-.79,12.77-1.82,7.21-2.35,14.12-5.44,21.59-8.28-3.79-2.92-8.63-6.25-12.31-6.55-21.17-1.91-30.64-2.36-38.33-2,4.57-4.06,7.74-8.19,11.42-9.52,16.18-5.88,57.45-33.21,62.17-33.21,1.46,0,63.82,33.19,72.43,42.72-11.24-.36-18.35,1-37.16,2-3.53.15-9.31,4.27-11.11,7.88,8.63,2.69,16.85,5.48,25.08,8.13,2.2.73,6.39-.88,8,.6,13.53,12.8,62.46,36.34,80.55,36.34h79.72c.28,0,17.22-4.58,20.38,2.62h0a7.91,7.91,0,0,1,.34,2.67c0,6.33-4.13,21.77,11.17,21.77,4,0,10-6.7,11.85-9.41,8.38,6.93,11,13.73,13.63,21,4.94,1.61,9.38-.77,14.84,4.8C786.48,257.51,776.85,245.49,769.74,235.13ZM300.79,163.87c4-4,5.51-7.3,9.54-11.33,11.77-11.77,21.31-16.09,37.4-20.71,19.68-5.66,31.6-5.21,49.93-14.3-11.93,11.92-18.93,18.92-33.24,27.86-7.45,4.62-12.37,6.26-20.27,10.13-10,4.93-15,8.95-25.48,12.52-12.66,4.33-19.67,7.31-32,12.37C291,173.11,294.83,169.83,300.79,163.87Zm95.66,37.06c-4.18,1.64-6.41,4-10.73,5.37-14.45,4.47-23.55,5.21-38.75,5.21-18.93,0-29.65.45-48.58.6-1.93-.6-5.81.14-5.21-1.79.44-1.64,2.68-1.49,4.16-2.24,2.84-1.34,4.63-2.38,7.61-3.57,10-4.32,16.24-6.56,26.82-8.35C350.85,192.88,362,192,381.4,192c11,0,25.56-2.14,36.59-2.14C414.7,194.76,402.1,198.69,396.45,200.93ZM663,215.6c-19.23,0-30.11-5.37-47.84-13.11-9.25-4-14.9-5.07-24.3-8.79l3.59-1.8c11.32-.15,17.87-.59,29.21-.59,18.76,0,29.21,3.57,47.38,8.79,11.78,3.43,24.3,9.45,36.22,12.43C693.24,213,677,215.6,663,215.6Zm21.83-43.88c-11.61-4.77-17-10.13-28.6-14.9-13.41-5.52-21.46-8.49-32.64-17.88-7-5.82-11.92-8.65-16.54-16.55,26.82,11.18,44.85,9.39,71.24,22.51,14.15,7,17.73,16.69,27.42,29.21,3,4,5.21,6.11,7.59,10.58C704.35,176.19,696.15,176.34,684.82,171.72Z" transform="translate(-50 -50)" style="fill:#005c9d"/><path d="M840.49,372.6c-5.51-22.05-13-34-27.87-51.11-9.37-10.87-14.59-17.14-26.81-24.88-10.89-6.86-17-11-28.47-16.7a35.89,35.89,0,0,0,3.58,10.73c2.53,3.88,3.87,6.71,6.55,10.58,8.35,12.07,14.47,17.59,24.89,28,16.85,16.84,48.13,43.36,48.13,43.36ZM791.33,187.45c39.76,48.72,87.85,104.84,87.85,157.06,0,11.76,1.17,15.89,1.17,18.82,0,7.66-7.05,36.48-7.05,38.84,0,3.53,15.3,6.18,15.3,15.88,0,6.47-7.43,9.51-13.1,11.86-1,4.18-5.73,11.67-5.73,14.62s3.53,10,3.53,12.94-7.17,16.81-13.68,25.28c-1.62-12.28-.43-24.05-1.51-35.53-9.05-4.37-17.75-6.08-17.75-14.46,0-2.94,9.41-21.18,9.41-24.12,0-7.51-35.92-39.22-38.58-41-19.41-12.95-51.65-38.73-64.6-60.5-7.79-13.24-9.43-30.89-24.88-44.27-3.38-2.94-13.13-3.84-14.27-9.23a24.1,24.1,0,0,1,9.95-2.68c22.2,0,60.21,18.93,77.55,31,42.8,29.85,64.23,73,71.95,109,.6-2,2.88-4.71,2.88-7.65s-10.44-26.68-12.64-39.91c-5.74-34.12-17.67-71.94-48-107.76-.72,1-.56-.59-.56,2.35,0,17.36,22.29,52.7,28.07,65.17v4.2c-12.46-6.49-42.92-28.1-41.45-42.95.15-2.21-3.37-3.32-4-5.68-1.63-5.73-3.85-17.21-3.85-20.15s1.18-13,3.93-51.16Z" transform="translate(-50 -50)" style="fill:#005c9d;fill-rule:evenodd"/><path d="M159,369.69l-1.35,8.72c14.67-9.29,23.82-22.27,36.08-34.54C211.55,326,225.12,320.58,239.05,300c3.91-5.75,9.37-16.21,12.52-22.52-21.92,14.48-38.49,20.68-56.51,39.81-6.69,7.06-10.29,12.08-17.16,19-9.48,9.47-15,20.67-18.92,33.48Zm51.44-181.06,2.76,47.62c0,28.83-10.13,47.57-48,71.05,9.26-21.86,19.83-44.19,27.66-66.39v-5.26a321.34,321.34,0,0,0-31.89,51c-6.34,12.94-9.68,30.34-12.91,42.69-4,15.15-14.83,42.95-14.92,45.89v13.57c.67-.19,1.08,1.16,1.69,2.19,4.88-20.46,15.38-42.67,26.27-62.08,8.53-15.3,30.62-36.09,47.68-48.15,14-9.85,53.44-29.81,72.12-29.81a58.09,58.09,0,0,1,14.7,2.93c-28.83,7.64-29.83,40.37-44.1,58.76-9.56,12.35-24.35,26.71-37.29,37.73-2.21,1.92-62.16,45-62.16,58.25,0,1.76,3.63,13.39,8.86,18.17.49,1,.55,3,.55,5.95,0,6.91-3,12.35-16.75,13.44-.69,1.27-3.25,11.21-1.23,37.68-2.73-2.17-13.78-27.73-13.78-29.35,0-2.94,2.35-7.65,2.35-10.59,0-15.15-18.83-15.3-18.83-27.06,0-9,11.89-10.94,16.51-13.73-8.25-24-7.1-23.34-7.1-41.58,0-67.22,26-99.36,87.85-172.94Z" transform="translate(-50 -50)" style="fill:#005c9d;fill-rule:evenodd"/><path d="M135.1,569.74c-.75-17.13-1-24.94-6.56-41.47-2.53-7.61-5.21-13.87-7.15-21.47-5.82-22.35-5.82-36.45-18.33-56.26l-1.19-2.39c-.45,3.12-1.82,13.92-1.82,17.05,0,18.92,2.11,20.5,2.11,39.42,0,17.14,5.67,27.12,15.2,41.42,6,9.09,9.24,17.16,17.74,23.7Zm7-47c.62-1,.45-3,.45-18.3,5.15-32.11,17.58-59.68,36.86-90.87,4.11-6.77,11.89-12.48,18.29-13-3.4,13.48-8.09,30.39-8.09,33.34s5.15,22.31,5.89,34.08c1.47,20,1.17,26.52,1.17,29.46,0,31-33.84,98.86-30.79,114.58-10.16-3.58-9.21-20.16-9.21-27.51,0-32.8,14.57-80.15,22-114.17V459.2c-15.5,15.89-12.86,38.46-17.72,53.31-1.91,6-3,13.59-5.9,20.5-1.62,3.53-5.39,7.42-5.39,10.36s3.53,20,3.53,22.94-2.36,15.89-2.36,18.83,4.7,22.83,6.76,35.37c9.66-3.86,21.49,6,21.49,15.23,0,2.94-5.89,10-5.89,12.94s9.37,19.21,12.72,29.28c-7.75-4.67-14.76-8.17-21.8-12,9.12-24.09-28.58-16.38-28.58-32.56,0-5,7.65-10.21,11.78-12.46-44-55.13-62.37-100.79-62.37-151.1,0-2.94,2.35-28.24,2.35-31.18,0-6.47-7.06-33.68-7.06-35.88,0-5.45,9.17,3.93,17.84,17.9,9,11.77,23.18,24.15,26.41,35.47,6.62,22.65,11,44.7,17.67,66.66Z" transform="translate(-50 -50)" style="fill:#005c9d;fill-rule:evenodd"/><path d="M866,566.3c7.45-10.74,14.75-17.59,19.52-29.67,2.83-7.14,3.57-11.62,6-19.07,1.77-5.81,3.86-8.93,4.76-14.9,2.23-13.71,3.13-21.6,3.13-35.46V449.68l.45-1.56-.45-2.38v3.94L866,566.3ZM804.65,400.44c6.3,3.14,15.48,8.07,18.72,14.39,15.59,29.71,30.65,59,36.16,88.46v19.5c10-24.95,8-57.45,26.4-81,5.29-6.77,12.48-14.1,17.63-21.17,4-5.43,7.74-18.91,16.64-20.05-3.39,15.83-5.71,33.35-5.71,36.29s2.34,28.83,2.34,31.77c0,55-21.29,98.91-62.36,152.34,4.83,4.62,11.77,8.71,11.77,13,0,10.89-23.1,16.25-25,17.28-5.43,3.09-3.09,11.06-3.78,14.85a181.58,181.58,0,0,0-20.38,10.72c2.13-10,11.52-25.19,11.52-28.14s-5.87-10-5.87-12.94c0-4,4.19-14.12,11.1-15,2.35-.29,5.88-.29,9.14-.63.26-.67,8-30.57,8-35.56,0-2.94-2.34-15.3-2.34-18.24s3.53-20,3.53-22.94-4.39-6.74-5.56-10.41c-3.39-10.3-4.89-21.42-6.65-31.86a38.63,38.63,0,0,0-1.16-7,51.9,51.9,0,0,0-1.18-5.88c-.29-1.17-.6-3.71-1.18-5.91-1.46-6.18-6.79-15.49-13-23.09-.73,2-.66,4.13-.66,7.06,0,26.33,22.34,78.4,22.34,118.85,0,9.41,1.28,17.36-9,25.85-3.92-16.91-6.39-35.34-12.56-50.94-8.39-21.17-18.43-44.19-18.43-66.11a243,243,0,0,1,1.17-24.76c.9-10.58,5.89-29.95,5.89-32.89,0-8.39-3.78-20.07-7.46-30.53v-5.32Z" transform="translate(-50 -50)" style="fill:#005c9d;fill-rule:evenodd"/><path d="M810.18,580.46c8.82,8.23,7.81,26.3,7.81,35.28,0,46.47-21.5,112.64-62.47,152,40.43-21.95,87.74-68,119.65-111.09-26.38,10.2-51.46,53.7-78.17,67.15,4.58-11.26,9.46-23.84,16.67-34.88,2.81-4.26,75.07-57.92,86.25-57.77h7.43c-26,49.55-75.62,127.48-138,151.16-11.46,4.26-24.68,8.67-36.29,13.57-1.65,3.35-1.76,9.35-2.65,11.26-2.2,5.3-11.42,9.77-14.22,9.77s-10-5.88-12.94-5.88-28.83,10.58-31.77,10.58-3.79-1.23-6.36-2.63v-4.2c8.48-3.71,17.81-9.55,27-15.09a15.06,15.06,0,0,1-2.37-7.49c0-10.29,8.23-15.29,15.3-15.29,4.7,0,8-.48,11.24,4.7,3-3.36,8.83-9.72,13.68-13.69,1.91-1.62,5.4-.26,7-1.88C771.4,733,781.42,695.53,795.24,662c4.55-11.19,7.48-23.48,11-35a2.57,2.57,0,0,0-.51-1.82c-26.05,41.07-40.43,86.17-62.34,129.12-1.35,2.51-5.72,6.14-11,8.48-.28-1.69-1.46-2.28-1.46-5.22s5.88-13,6.61-20.07c4.72-46.62,35.45-92.39,57.8-119.15,7.95-9.56,11.49-25.36,14.85-37.84Z" transform="translate(-50 -50)" style="fill:#005c9d"/><path d="M191.54,581.63c3.22,9.06,4.38,25.87,12.32,33.07,27.07,24.42,33.07,46,47.63,72.23C258,698.4,258.76,714,261.7,728c1.62,8.09,9.13,23.22,9.11,26.16v6l-2.88,2.69c-10-5.21-12.63-18.43-16.31-26.22C235,701.73,221.38,662,197.24,627.49c-.71,1-.54-.58-.54,2.36s12,37.29,19.08,54.5c9.12,22.5,18.74,44.86,35.66,66,10.73,13.53,18.64,15.54,34.1,31.25,5.18-5.27,8.24-4.7,11.18-4.7,10.3,0,15.3,8.08,15.3,15.89,0,2.92-1.24,5-2.37,6.89,9.15,5.54,18.51,11.4,28.22,16.45-1.2,2.8-4.67,5.47-7.61,5.47s-29.42-10.58-32.36-10.58-9.42,5.88-12.36,5.88c-8.24,0-18.63-10.23-14.66-19.18-37.47-14.39-74.74-32.91-109.75-68.07C129.8,698.07,118,664.48,93.22,631.35c1.7-.32.52-1.5,3.47-1.5,19.56,0,84.89,50.54,90.48,57.89,7.21,9.56,10.64,21.25,16.4,32v4.22C176.35,704,157.85,667.62,126,657.82c32.31,36.36,78.54,91.94,122.55,108.8-48.28-44-55.67-89-64.8-133.77,0-17.71-1.18-18.3-1.18-21.24,0-6.32,4.14-25.25,9-30Z" transform="translate(-50 -50)" style="fill:#005c9d"/><path d="M290.57,834.88c-8.79-.75-21.31.6-21.31.6,20,6.86,29.16,11.23,48.83,18.69,8.19,3.11,17.08,4.22,25.13,7.35,15.94,6.26,24.84,4.8,42.13,4.8,17,0,32.64.7,48.57-6.64-13.49-5.51-28.52-7.37-45.35-12.87a155.94,155.94,0,0,0-37.94-7.32c-7.45-.45-11.63-1.78-19.08-1.78H314c-9.25,0-14.16-1.94-23.4-2.83Zm324,16.12c-11,3-48.42,8.19-48.42,8.19,8.49,2.09,13.7,3.43,22.5,3.43,7.44,0,43.11,5,48.18,5,3.57,0,21.72-2.33,25.28-2.63,11.93-1.19,19.53.44,30.25-4.78,7.3-3.57,12.22-4.49,19.23-8.52s16.74-11.77,23.89-15.93A65.36,65.36,0,0,1,714,840.07c-18.63,0-30.77,2.58-49.39,2.58-19.82,0-30.86,3.13-50.08,8.35ZM289.72,746.53H294c55.17,49.83,115.67,30.61,170.5,95.13,2-1.13,2.9-4.89,6.58-7.82,2.06-1.62,5.66-1.6,8.61-1.6,7.94,0,15.88,5.3,15.88,14.7,0,2.95-2.53,8.65-5.89,11.83,2.26,3.14,8.24,9.94,11.19,9.94s7.82-5.71,11.19-8.86c-3.43-4.31-5.89-11.72-5.89-14.67,0-8.52,11.31-14.12,15.89-14.12,3.08,0,10.87,5.5,14.22,9.42,15.78-9.05,37.62-33.35,53.81-39.68,15.29-5.87,30.48-12.8,45.92-17.66,21.77-6.91,49.3-11,71.71-36.58h4.33c-16.59,19.88-45,76.27-76.45,76.27A24.62,24.62,0,0,1,625,821c9.61-2.17,29-10.55,33.18-26.57-12.31,7.11-25,15.37-38.25,20.81-24.26,10.15-49.26,15.66-73.76,36.4,1,.74,0,1.75,2.94,1.75s23.21-10.44,35.14-13.81c19.41-5.44,44.92-9.28,64.83-12.07l28.26-1.18c38.95-3,82.95-5.79,112.22-24.64V806c-32.05,34.44-85.43,72.13-122.93,72.13h-80.9c-2.94,0-20.41-2.21-29.67-4-4.42-.73-14.75-5.21-18.86-10.16-7.86,3.5-16,7-24,11.2,18,10.38,41.14,22.67,54.06,35.53-8.83-.54-16.73,5.58-25.37,9.74-6.06-7.4-6.48-19.62-19-26.81-6.47-3.68-19.13-10.82-22.06-10.82-3.83,0-30.69,18.71-32.17,20.92-2.94,4.42-4.94,10.46-6.65,15.34,0,0,.57,1.39-2.37,1.39-6.47,0-11.82-8.37-25.27-9.81,14.58-13.57,42.79-29.82,54.09-35.48-6.73-3-20-10-22.94-10s-10.44,6.32-16.32,7.78c-11.62,3.09-24.8,4-36.59,5.17l-60,1.18c-45,2.06-99.14-29.46-140.44-73.33V801.7c31.62,21.38,57.15,16.73,84,22.31l29.39,1.17c40.89,2.79,87.43,8.89,128.12,28.25l1.87-1.8c-37.46-31.6-75.09-28.49-112.26-58.24,0,0-.71-1.16-.71,1.78,0,6.92,24.18,24.42,34.12,25.82a24.1,24.1,0,0,1-10.59,1.84c-29.56,0-58.13-51.14-76.42-76.3Z" transform="translate(-50 -50)" style="fill:#005c9d;fill-rule:evenodd"/><path d="M772,437c-1.25-1.82-1.56-2.1-2.63-1.56s-3.18,1.6-11.28-.8c-9.15-2.71-16.21-6.68-23-10.51-9.72-5.46-18.9-10.63-32.67-11.2s-27.75,5.76-38.88,10.86c-7.64,3.51-14.24,6.54-18.74,6.34-11.09-.49-15.18-4.29-20.34-9.11-6.94-6.46-15.58-14.49-44.22-19.58-15.38-2.74-28.33-1.25-40.83.19-10.09,1.16-19.6,2.25-29.87,1.15l-4.84-.48c-10.06-.95-14.23-1.35-29.18-10.23l-.62-.35.09.71,1.74,15.72,0,.26.25.05,6,1.28c9.92,2.12,17.09,3.66,28.81,3.89A245.28,245.28,0,0,0,540.4,412c14.13-1.35,27.5-2.62,41.15.08,9.21,1.83,14.14,5.09,21.59,10l2.34,1.56L624.61,558a123,123,0,0,0-29.32.54c-13.55,1.62-23.27,7-32.68,12.13-9.14,5-18.62,10.24-31.67,12.06a133.88,133.88,0,0,1-35.21.92l-.41,0,0,.42.69,10.42,0,.26.26.07c29.57,7,50.44-3.42,68.85-12.61,9.22-4.6,17.92-8.93,26.67-10.48h0c8.65-3.17,18.64-3.06,29.21-2.94,16.1.17,32.74.35,47.76-10.57,13-9.48,15.29-13.59,19-20.39,2.82-5.18,6.32-11.63,15.78-23.07,6.18-7.51,20.35-10.85,30.71-13.29,5.13-1.21,9.19-2.17,11.31-3.34,16.78-9.26,28.62-22.48,31.69-35.36C779.42,453.92,777.62,445.25,772,437Z" transform="translate(-50 -50)" style="fill:#005c9d"/><path d="M541.29,464.69c-1.63,7.75-2.1,10.09-3.52,19.44-.22,1.52.33,1.85,1,2.82,1.64,2.58,7.13,1.72,11.73,1.41,4.21-.29,9.21,1.43,10.52-2.58a6.07,6.07,0,0,0,.24-3c-2.58-10.52-.46-10.06-5.16-21.55-1.31-3.21-10.36-5.21-13.34-.94-1.05,1.49-1,2.38-1.42,4.45Zm-39,82.49c7.71-43.5,8.91-60.91,15.12-101a22,22,0,0,1,5.49-12.13c4-4.45,14.79-3.27,25.21-3.09,11.5.21,26.16-2,28.51,4.59.68,1.92,1.69,3.93,2.37,5.95,12.64,36.53,16.63,61.84,27.19,92a8.87,8.87,0,0,1,0,7.28c-1.94,5.12-7.33,4.78-12.66,6.09-4.8,1.18-8.16,2.78-12.64.7-2.35-1.08-4.39-1.59-5.16-4.21-2.34-8-2.34-24.84-6.53-24.37-8.18.91-31.15-1.47-32.79,2.05-2.46,5.3-4.48,26.93-6.56,29.59-2.84,3.62-6.77,2.77-11.35,3.23-6.2.61-14.44.72-15.84-2.3-.72-1.56-.75-2.19-.36-4.42Z" transform="translate(-50 -50)" style="fill:#050703;fill-rule:evenodd"/><path d="M297.23,645.57c-4.14,3.93-9.73,16-9,26,.35,5,2.21,8.78,5.53,11.15a5.28,5.28,0,0,0,4.24,1.1c3.72-.73,7.37-5.91,12.09-13.33l-2.95-34.8C304,638.92,300.8,642.18,297.23,645.57Z" transform="translate(-50 -50)" style="fill:#050703"/><path d="M496.84,594.27,475.12,391.68v-.08a61.22,61.22,0,0,0-16.35-25.82c-7.05-6.58-16.08-11.94-27.6-16.36-17.65-6.79-40.28-7.07-65.43-.82a218.73,218.73,0,0,0-64,28l-.16.1v.18l-.89,17.43,0,.29.28.07c39,11.33,41.41,56.17,43.55,95.73l.4,7.25c2.12,36.51,2,63.69-4.92,86.35-3.7,12.07-9.48,23.11-18.17,34.61l3.1,29.64c14.54-19.41,37.16-41.38,76.86-51.25l4.62-1.15c32.31-8.07,44.41-11.09,90-1.25l.49.11Z" transform="translate(-50 -50)" style="fill:#050703"/><path d="M300.53,348.66c-.6-5-6.1-8.34-12.3-7.56s-10.73,5.43-10.14,10.39,6.1,8.34,12.29,7.56S301.12,353.62,300.53,348.66Z" transform="translate(-50 -50)" style="fill:none"/><path d="M293,367.11c.5-.06.95-.21,1.44-.29l35.12,373.79,9.75-.93L304,363.36c6.63-3.95,10.71-10.34,9.88-17.06-1.22-9.93-12.52-16.72-25.25-15.16S266.55,342,267.77,352c.71,5.83,4.94,10.52,10.85,13.13l34.07,359.1,5.09-.48L283.92,366.8A28.9,28.9,0,0,0,293,367.11Zm-14.92-15.62c-.59-5,4-9.61,10.14-10.39s11.7,2.61,12.3,7.56-3.94,9.61-10.15,10.39S278.69,356.44,278.09,351.49Z" transform="translate(-50 -50)" style="fill:#050703"/></svg>